<svg xmlns="http://www.w3.org/2000/svg" xmlns:xlink="http://www.w3.org/1999/xlink" width="200" zoomAndPan="magnify" viewBox="0 0 150 149.999998" height="200" preserveAspectRatio="xMidYMid meet" version="1.0"><defs><clipPath id="id1"><path d="M 60.132812 21.546875 L 90 21.546875 L 90 50.796875 L 60.132812 50.796875 Z M 60.132812 21.546875 " clip-rule="nonzero"/></clipPath><clipPath id="id2"><path d="M 60.132812 33 L 78 33 L 78 50.796875 L 60.132812 50.796875 Z M 60.132812 33 " clip-rule="nonzero"/></clipPath><clipPath id="id3"><path d="M 72 21.546875 L 90.132812 21.546875 L 90.132812 39 L 72 39 Z M 72 21.546875 " clip-rule="nonzero"/></clipPath><clipPath id="id4"><path d="M 45 11 L 136 11 L 136 145 L 45 145 Z M 45 11 " clip-rule="nonzero"/></clipPath><clipPath id="id5"><path d="M 19.457031 35.828125 L 133.042969 7.78125 L 160.375 118.453125 L 46.785156 146.503906 Z M 19.457031 35.828125 " clip-rule="nonzero"/></clipPath><clipPath id="id6"><path d="M 19.457031 35.828125 L 133.042969 7.78125 L 160.375 118.453125 L 46.785156 146.503906 Z M 19.457031 35.828125 " clip-rule="nonzero"/></clipPath><clipPath id="id7"><path d="M 19.457031 35.828125 L 133.042969 7.78125 L 160.375 118.453125 L 46.785156 146.503906 Z M 19.457031 35.828125 " clip-rule="nonzero"/></clipPath><clipPath id="id8"><path d="M 81 23 L 132 23 L 132 96 L 81 96 Z M 81 23 " clip-rule="nonzero"/></clipPath><clipPath id="id9"><path d="M 19.457031 35.828125 L 133.042969 7.78125 L 160.375 118.453125 L 46.785156 146.503906 Z M 19.457031 35.828125 " clip-rule="nonzero"/></clipPath><clipPath id="id10"><path d="M 19.457031 35.828125 L 133.042969 7.78125 L 160.375 118.453125 L 46.785156 146.503906 Z M 19.457031 35.828125 " clip-rule="nonzero"/></clipPath><clipPath id="id11"><path d="M 19.457031 35.828125 L 133.042969 7.78125 L 160.375 118.453125 L 46.785156 146.503906 Z M 19.457031 35.828125 " clip-rule="nonzero"/></clipPath></defs><g clip-path="url(#id1)"><path fill="#231f20" d="M 77.296875 49.265625 L 77.472656 49.441406 C 77.589844 49.554688 77.65625 49.589844 77.683594 49.601562 C 77.734375 49.574219 77.820312 49.492188 77.878906 49.4375 C 78.039062 49.28125 78.246094 49.085938 78.539062 49.011719 C 80.863281 48.421875 82.988281 47.226562 84.695312 45.550781 C 86.421875 43.855469 87.648438 41.734375 88.238281 39.417969 C 88.308594 39.132812 88.507812 38.933594 88.671875 38.773438 C 88.722656 38.726562 88.789062 38.65625 88.828125 38.609375 C 88.804688 38.597656 88.765625 38.550781 88.6875 38.488281 L 88.472656 38.3125 L 88.511719 38.039062 C 89.105469 33.878906 87.714844 29.789062 84.695312 26.824219 C 82.148438 24.320312 78.761719 22.945312 75.160156 22.945312 C 74.53125 22.945312 73.898438 22.988281 73.277344 23.074219 L 72.976562 23.117188 L 72.796875 22.875 C 72.699219 22.742188 72.644531 22.714844 72.644531 22.714844 C 72.648438 22.734375 72.511719 22.859375 72.425781 22.933594 C 72.238281 23.105469 72.019531 23.304688 71.726562 23.378906 C 69.429688 23.972656 67.320312 25.164062 65.628906 26.824219 C 63.898438 28.523438 62.671875 30.644531 62.082031 32.964844 C 62.011719 33.25 61.816406 33.441406 61.660156 33.597656 C 61.613281 33.648438 61.542969 33.71875 61.511719 33.761719 C 61.527344 33.769531 61.566406 33.824219 61.65625 33.902344 L 61.851562 34.078125 L 61.8125 34.335938 C 61.21875 38.496094 62.609375 42.585938 65.628906 45.550781 C 68.175781 48.054688 71.558594 49.429688 75.160156 49.429688 C 75.789062 49.429688 76.421875 49.386719 77.046875 49.300781 Z M 77.691406 50.597656 C 77.441406 50.597656 77.199219 50.503906 76.953125 50.308594 C 76.359375 50.382812 75.757812 50.417969 75.160156 50.417969 C 71.289062 50.417969 67.652344 48.9375 64.917969 46.25 C 61.730469 43.117188 60.230469 38.824219 60.78125 34.4375 C 60.597656 34.21875 60.503906 34 60.496094 33.769531 C 60.484375 33.363281 60.761719 33.085938 60.945312 32.90625 C 61.003906 32.84375 61.09375 32.757812 61.109375 32.71875 C 61.742188 30.230469 63.058594 27.949219 64.917969 26.125 C 66.734375 24.339844 69 23.058594 71.472656 22.421875 C 71.527344 22.40625 71.664062 22.28125 71.746094 22.207031 C 71.980469 21.996094 72.273438 21.730469 72.683594 21.730469 C 72.945312 21.730469 73.1875 21.839844 73.410156 22.058594 C 73.992188 21.992188 74.578125 21.957031 75.160156 21.957031 C 79.03125 21.957031 82.671875 23.4375 85.40625 26.125 C 88.589844 29.253906 90.089844 33.539062 89.542969 37.921875 C 89.734375 38.132812 89.835938 38.34375 89.847656 38.574219 C 89.867188 38.992188 89.589844 39.265625 89.386719 39.46875 C 89.324219 39.53125 89.230469 39.628906 89.210938 39.667969 C 88.578125 42.148438 87.261719 44.425781 85.40625 46.25 C 83.574219 48.050781 81.289062 49.335938 78.792969 49.96875 C 78.75 49.984375 78.648438 50.078125 78.582031 50.144531 C 78.378906 50.335938 78.109375 50.597656 77.691406 50.597656 " fill-opacity="1" fill-rule="nonzero"/></g><g clip-path="url(#id2)"><path fill="#231f20" d="M 75.707031 49.417969 C 76.019531 49.417969 76.265625 49.554688 76.484375 49.675781 C 76.515625 49.695312 76.558594 49.714844 76.597656 49.738281 C 76.050781 46.550781 74.054688 43.074219 71.101562 40.175781 C 68.160156 37.28125 64.625 35.324219 61.386719 34.78125 C 61.40625 34.8125 61.421875 34.839844 61.433594 34.867188 C 61.5625 35.09375 61.703125 35.355469 61.691406 35.636719 C 61.535156 39.328125 62.972656 42.941406 65.628906 45.550781 C 68.304688 48.179688 71.921875 49.566406 75.703125 49.417969 Z M 76.742188 50.796875 C 76.460938 50.796875 76.210938 50.660156 75.988281 50.535156 C 75.902344 50.488281 75.769531 50.414062 75.71875 50.40625 C 75.550781 50.414062 75.355469 50.417969 75.160156 50.417969 C 71.289062 50.417969 67.652344 48.9375 64.917969 46.25 C 62.0625 43.445312 60.519531 39.5625 60.6875 35.597656 C 60.679688 35.570312 60.601562 35.429688 60.550781 35.335938 C 60.386719 35.039062 60.160156 34.628906 60.378906 34.230469 C 60.601562 33.828125 61.105469 33.789062 61.273438 33.773438 L 61.332031 33.769531 L 61.394531 33.777344 C 64.878906 34.316406 68.675781 36.394531 71.8125 39.476562 C 74.953125 42.558594 77.066406 46.289062 77.613281 49.710938 L 77.625 49.792969 L 77.613281 49.871094 C 77.476562 50.675781 77.007812 50.796875 76.742188 50.796875 " fill-opacity="1" fill-rule="nonzero"/></g><path fill="#231f20" d="M 76.96875 49.097656 L 77.054688 49.5 C 77.054688 49.5 77.003906 49.921875 76.519531 49.851562 C 76.03125 49.785156 75.515625 49.75 75.269531 49.871094 C 75.023438 49.988281 74.945312 49.636719 75.140625 49.484375 C 75.339844 49.355469 76.070312 48.675781 76.96875 49.097656 " fill-opacity="1" fill-rule="nonzero"/><path fill="#231f20" d="M 76.96875 49.097656 L 77.054688 49.5 C 77.054688 49.5 77.277344 49.882812 77.703125 49.664062 C 78.128906 49.445312 78.582031 49.195312 78.867188 49.246094 C 79.148438 49.300781 79.046875 48.804688 78.800781 48.710938 C 78.546875 48.601562 77.605469 48.304688 76.96875 49.097656 " fill-opacity="1" fill-rule="nonzero"/><path fill="#231f20" d="M 76.226562 46.753906 L 76.386719 47.132812 C 76.386719 47.132812 76.394531 47.238281 76.335938 47.347656 C 76.28125 47.457031 76.15625 47.566406 75.914062 47.574219 C 75.433594 47.589844 74.910156 47.644531 74.691406 47.804688 C 74.472656 47.964844 74.324219 47.621094 74.488281 47.4375 C 74.660156 47.265625 75.261719 46.480469 76.226562 46.753906 " fill-opacity="1" fill-rule="nonzero"/><path fill="#231f20" d="M 76.226562 46.753906 L 76.386719 47.132812 C 76.386719 47.132812 76.453125 47.214844 76.574219 47.261719 C 76.6875 47.3125 76.851562 47.328125 77.046875 47.179688 C 77.433594 46.886719 77.832031 46.566406 78.121094 46.566406 C 78.40625 46.570312 78.226562 46.113281 77.964844 46.066406 C 77.699219 46.007812 76.714844 45.871094 76.226562 46.753906 " fill-opacity="1" fill-rule="nonzero"/><path fill="#231f20" d="M 75.140625 44.539062 L 75.347656 44.894531 C 75.347656 44.894531 75.410156 45.320312 74.933594 45.402344 C 74.457031 45.484375 73.960938 45.597656 73.765625 45.792969 C 73.570312 45.984375 73.386719 45.648438 73.511719 45.445312 C 73.652344 45.25 74.132812 44.398438 75.140625 44.539062 " fill-opacity="1" fill-rule="nonzero"/><path fill="#231f20" d="M 75.140625 44.539062 L 75.347656 44.894531 C 75.347656 44.894531 75.652344 45.199219 75.996094 44.855469 C 76.339844 44.507812 76.703125 44.132812 76.980469 44.097656 C 77.265625 44.054688 77.039062 43.632812 76.765625 43.625 C 76.496094 43.609375 75.492188 43.605469 75.140625 44.539062 " fill-opacity="1" fill-rule="nonzero"/><path fill="#231f20" d="M 73.773438 42.472656 L 74.011719 42.808594 C 74.011719 42.808594 74.140625 43.222656 73.671875 43.359375 C 73.207031 43.5 72.722656 43.671875 72.550781 43.890625 C 72.378906 44.105469 72.152344 43.789062 72.265625 43.566406 C 72.386719 43.351562 72.78125 42.4375 73.773438 42.472656 " fill-opacity="1" fill-rule="nonzero"/><path fill="#231f20" d="M 73.773438 42.472656 L 74.011719 42.808594 C 74.011719 42.808594 74.363281 43.070312 74.660156 42.691406 C 74.953125 42.308594 75.265625 41.898438 75.539062 41.824219 C 75.816406 41.753906 75.539062 41.363281 75.28125 41.382812 C 75.015625 41.394531 74.035156 41.496094 73.773438 42.472656 " fill-opacity="1" fill-rule="nonzero"/><path fill="#231f20" d="M 72.175781 40.578125 L 72.460938 40.878906 C 72.460938 40.878906 72.503906 40.976562 72.496094 41.097656 C 72.480469 41.21875 72.40625 41.367188 72.183594 41.460938 C 71.742188 41.648438 71.273438 41.875 71.128906 42.105469 C 70.984375 42.339844 70.710938 42.054688 70.796875 41.820312 C 70.886719 41.597656 71.167969 40.65625 72.175781 40.578125 " fill-opacity="1" fill-rule="nonzero"/><path fill="#231f20" d="M 72.175781 40.578125 L 72.460938 40.878906 C 72.460938 40.878906 72.558594 40.929688 72.683594 40.933594 C 72.808594 40.9375 72.964844 40.898438 73.09375 40.6875 C 73.347656 40.273438 73.605469 39.839844 73.871094 39.734375 C 74.136719 39.632812 73.8125 39.285156 73.554688 39.335938 C 73.289062 39.378906 72.316406 39.589844 72.175781 40.578125 " fill-opacity="1" fill-rule="nonzero"/><path fill="#231f20" d="M 70.394531 38.847656 L 70.699219 39.128906 C 70.699219 39.128906 70.910156 39.503906 70.484375 39.738281 C 70.0625 39.972656 69.625 40.238281 69.503906 40.488281 C 69.382812 40.734375 69.089844 40.464844 69.152344 40.222656 C 69.226562 39.988281 69.40625 39.027344 70.394531 38.847656 " fill-opacity="1" fill-rule="nonzero"/><path fill="#231f20" d="M 70.394531 38.847656 L 70.699219 39.128906 C 70.699219 39.128906 71.097656 39.3125 71.304688 38.878906 C 71.511719 38.445312 71.730469 37.976562 71.980469 37.847656 C 72.230469 37.722656 71.882812 37.398438 71.632812 37.472656 C 71.382812 37.535156 70.4375 37.847656 70.394531 38.847656 " fill-opacity="1" fill-rule="nonzero"/><path fill="#231f20" d="M 68.425781 37.324219 L 68.769531 37.558594 C 68.769531 37.558594 69.027344 37.902344 68.628906 38.179688 C 68.230469 38.460938 67.824219 38.777344 67.734375 39.035156 C 67.636719 39.289062 67.3125 39.066406 67.347656 38.824219 C 67.390625 38.585938 67.464844 37.605469 68.425781 37.324219 " fill-opacity="1" fill-rule="nonzero"/><path fill="#231f20" d="M 68.425781 37.324219 L 68.769531 37.558594 C 68.769531 37.558594 69.191406 37.691406 69.351562 37.238281 C 69.507812 36.789062 69.667969 36.304688 69.90625 36.148438 C 70.144531 35.996094 69.753906 35.722656 69.511719 35.824219 C 69.261719 35.917969 68.355469 36.324219 68.425781 37.324219 " fill-opacity="1" fill-rule="nonzero"/><path fill="#231f20" d="M 66.308594 36.011719 L 66.671875 36.214844 C 66.671875 36.214844 66.960938 36.542969 66.597656 36.859375 C 66.238281 37.175781 65.875 37.53125 65.8125 37.800781 C 65.75 38.074219 65.414062 37.863281 65.417969 37.628906 C 65.433594 37.390625 65.378906 36.421875 66.308594 36.011719 " fill-opacity="1" fill-rule="nonzero"/><path fill="#231f20" d="M 66.308594 36.011719 L 66.671875 36.214844 C 66.671875 36.214844 67.097656 36.308594 67.207031 35.84375 C 67.308594 35.371094 67.414062 34.867188 67.628906 34.6875 C 67.847656 34.515625 67.4375 34.257812 67.203125 34.394531 C 66.960938 34.519531 66.105469 35.042969 66.308594 36.011719 " fill-opacity="1" fill-rule="nonzero"/><path fill="#231f20" d="M 64.03125 34.988281 L 64.417969 35.144531 C 64.417969 35.144531 64.75 35.421875 64.433594 35.785156 C 64.121094 36.152344 63.8125 36.558594 63.785156 36.828125 C 63.757812 37.101562 63.402344 36.960938 63.375 36.710938 C 63.367188 36.46875 63.179688 35.503906 64.03125 34.988281 " fill-opacity="1" fill-rule="nonzero"/><path fill="#231f20" d="M 64.03125 34.988281 L 64.417969 35.144531 C 64.417969 35.144531 64.859375 35.175781 64.898438 34.699219 C 64.933594 34.222656 64.96875 33.710938 65.160156 33.503906 C 65.351562 33.296875 64.890625 33.113281 64.683594 33.265625 C 64.460938 33.414062 63.699219 34.035156 64.03125 34.988281 " fill-opacity="1" fill-rule="nonzero"/><path fill="#231f20" d="M 61.621094 34.328125 L 62.027344 34.414062 C 62.027344 34.414062 62.402344 34.628906 62.152344 35.039062 C 61.902344 35.457031 61.675781 35.90625 61.691406 36.175781 C 61.707031 36.445312 61.351562 36.375 61.285156 36.136719 C 61.238281 35.902344 60.878906 34.96875 61.621094 34.328125 " fill-opacity="1" fill-rule="nonzero"/><path fill="#231f20" d="M 61.621094 34.328125 L 62.027344 34.414062 C 62.027344 34.414062 62.46875 34.367188 62.429688 33.894531 C 62.386719 33.417969 62.324219 32.90625 62.480469 32.671875 C 62.640625 32.4375 62.136719 32.332031 61.957031 32.519531 C 61.753906 32.703125 61.121094 33.433594 61.621094 34.328125 " fill-opacity="1" fill-rule="nonzero"/><g clip-path="url(#id3)"><path fill="#231f20" d="M 73.722656 22.628906 C 74.269531 25.816406 76.265625 29.296875 79.21875 32.199219 C 82.175781 35.101562 85.71875 37.0625 88.960938 37.597656 C 88.9375 37.546875 88.902344 37.484375 88.878906 37.4375 C 88.757812 37.222656 88.621094 36.976562 88.632812 36.6875 C 88.773438 33.015625 87.339844 29.421875 84.695312 26.824219 C 82.03125 24.207031 78.433594 22.828125 74.660156 22.953125 C 74.328125 22.953125 74.078125 22.792969 73.875 22.664062 C 73.835938 22.636719 73.789062 22.605469 73.746094 22.582031 C 73.738281 22.59375 73.730469 22.613281 73.722656 22.628906 Z M 89.035156 38.613281 L 88.929688 38.597656 C 85.445312 38.058594 81.648438 35.980469 78.507812 32.898438 C 75.371094 29.8125 73.257812 26.082031 72.707031 22.660156 L 72.691406 22.546875 L 72.726562 22.433594 C 72.917969 21.84375 73.238281 21.546875 73.675781 21.546875 C 73.976562 21.546875 74.230469 21.707031 74.429688 21.835938 C 74.503906 21.882812 74.613281 21.957031 74.660156 21.96875 C 74.804688 21.960938 74.984375 21.957031 75.160156 21.957031 C 79.03125 21.957031 82.671875 23.4375 85.40625 26.125 C 88.246094 28.914062 89.789062 32.78125 89.636719 36.726562 C 89.644531 36.757812 89.714844 36.882812 89.757812 36.964844 C 89.910156 37.234375 90.113281 37.605469 89.941406 38.003906 C 89.765625 38.417969 89.292969 38.542969 89.140625 38.585938 L 89.035156 38.613281 " fill-opacity="1" fill-rule="nonzero"/></g><path fill="#231f20" d="M 73.351562 23.273438 L 73.265625 22.875 C 73.265625 22.875 73.316406 22.453125 73.804688 22.523438 C 74.292969 22.589844 74.808594 22.625 75.054688 22.503906 C 75.300781 22.386719 75.378906 22.738281 75.183594 22.886719 C 74.984375 23.019531 74.25 23.699219 73.351562 23.273438 " fill-opacity="1" fill-rule="nonzero"/><path fill="#231f20" d="M 73.351562 23.273438 L 73.265625 22.875 C 73.265625 22.875 73.046875 22.492188 72.621094 22.707031 C 72.195312 22.929688 71.738281 23.179688 71.457031 23.128906 C 71.171875 23.074219 71.273438 23.566406 71.523438 23.660156 C 71.773438 23.773438 72.714844 24.070312 73.351562 23.273438 " fill-opacity="1" fill-rule="nonzero"/><path fill="#231f20" d="M 74.09375 25.621094 L 73.9375 25.242188 C 73.9375 25.242188 73.929688 25.136719 73.984375 25.027344 C 74.042969 24.917969 74.167969 24.808594 74.410156 24.800781 C 74.890625 24.78125 75.414062 24.730469 75.628906 24.566406 C 75.851562 24.40625 75.996094 24.753906 75.832031 24.9375 C 75.664062 25.109375 75.058594 25.894531 74.09375 25.621094 " fill-opacity="1" fill-rule="nonzero"/><path fill="#231f20" d="M 74.09375 25.621094 L 73.9375 25.242188 C 73.9375 25.242188 73.867188 25.160156 73.75 25.113281 C 73.632812 25.0625 73.472656 25.046875 73.277344 25.195312 C 72.890625 25.488281 72.488281 25.804688 72.203125 25.808594 C 71.914062 25.804688 72.097656 26.257812 72.359375 26.304688 C 72.625 26.367188 73.605469 26.503906 74.09375 25.621094 " fill-opacity="1" fill-rule="nonzero"/><path fill="#231f20" d="M 75.183594 27.835938 L 74.976562 27.480469 C 74.976562 27.480469 74.910156 27.054688 75.390625 26.972656 C 75.863281 26.890625 76.363281 26.773438 76.558594 26.578125 C 76.753906 26.386719 76.933594 26.726562 76.8125 26.929688 C 76.671875 27.121094 76.1875 27.976562 75.183594 27.835938 " fill-opacity="1" fill-rule="nonzero"/><path fill="#231f20" d="M 75.183594 27.835938 L 74.976562 27.480469 C 74.976562 27.480469 74.667969 27.175781 74.324219 27.519531 C 73.984375 27.863281 73.621094 28.238281 73.34375 28.277344 C 73.058594 28.316406 73.285156 28.742188 73.558594 28.746094 C 73.828125 28.765625 74.828125 28.765625 75.183594 27.835938 " fill-opacity="1" fill-rule="nonzero"/><path fill="#231f20" d="M 76.550781 29.898438 L 76.3125 29.5625 C 76.3125 29.5625 76.183594 29.152344 76.648438 29.015625 C 77.117188 28.871094 77.601562 28.699219 77.769531 28.484375 C 77.941406 28.269531 78.171875 28.585938 78.058594 28.808594 C 77.9375 29.023438 77.542969 29.9375 76.550781 29.898438 " fill-opacity="1" fill-rule="nonzero"/><path fill="#231f20" d="M 76.550781 29.898438 L 76.3125 29.5625 C 76.3125 29.5625 75.957031 29.304688 75.664062 29.683594 C 75.367188 30.0625 75.054688 30.476562 74.78125 30.546875 C 74.507812 30.621094 74.785156 31.011719 75.042969 30.988281 C 75.308594 30.980469 76.285156 30.878906 76.550781 29.898438 " fill-opacity="1" fill-rule="nonzero"/><path fill="#231f20" d="M 78.148438 31.796875 L 77.863281 31.496094 C 77.863281 31.496094 77.816406 31.398438 77.828125 31.277344 C 77.84375 31.152344 77.917969 31.007812 78.136719 30.914062 C 78.578125 30.726562 79.050781 30.496094 79.191406 30.265625 C 79.335938 30.035156 79.613281 30.320312 79.527344 30.554688 C 79.4375 30.777344 79.152344 31.714844 78.148438 31.796875 " fill-opacity="1" fill-rule="nonzero"/><path fill="#231f20" d="M 78.148438 31.796875 L 77.863281 31.496094 C 77.863281 31.496094 77.765625 31.441406 77.636719 31.441406 C 77.511719 31.433594 77.355469 31.476562 77.230469 31.6875 C 76.976562 32.097656 76.71875 32.53125 76.453125 32.640625 C 76.183594 32.742188 76.511719 33.085938 76.769531 33.039062 C 77.03125 32.996094 78.003906 32.78125 78.148438 31.796875 " fill-opacity="1" fill-rule="nonzero"/><path fill="#231f20" d="M 79.929688 33.523438 L 79.625 33.246094 C 79.625 33.246094 79.414062 32.867188 79.839844 32.636719 C 80.261719 32.402344 80.699219 32.136719 80.820312 31.886719 C 80.941406 31.640625 81.234375 31.90625 81.171875 32.148438 C 81.097656 32.386719 80.917969 33.347656 79.929688 33.523438 " fill-opacity="1" fill-rule="nonzero"/><path fill="#231f20" d="M 79.929688 33.523438 L 79.625 33.246094 C 79.625 33.246094 79.226562 33.0625 79.015625 33.496094 C 78.808594 33.929688 78.59375 34.398438 78.34375 34.523438 C 78.089844 34.652344 78.441406 34.976562 78.6875 34.902344 C 78.941406 34.839844 79.886719 34.527344 79.929688 33.523438 " fill-opacity="1" fill-rule="nonzero"/><path fill="#231f20" d="M 81.894531 35.050781 L 81.550781 34.816406 C 81.554688 34.816406 81.296875 34.472656 81.695312 34.195312 C 82.09375 33.914062 82.5 33.597656 82.59375 33.339844 C 82.683594 33.085938 83.011719 33.308594 82.976562 33.550781 C 82.929688 33.789062 82.859375 34.769531 81.894531 35.050781 " fill-opacity="1" fill-rule="nonzero"/><path fill="#231f20" d="M 81.894531 35.050781 L 81.550781 34.816406 C 81.554688 34.816406 81.132812 34.683594 80.972656 35.136719 C 80.816406 35.582031 80.652344 36.070312 80.417969 36.222656 C 80.175781 36.378906 80.570312 36.652344 80.8125 36.550781 C 81.0625 36.457031 81.964844 36.050781 81.894531 35.050781 " fill-opacity="1" fill-rule="nonzero"/><path fill="#231f20" d="M 84.011719 36.363281 L 83.652344 36.160156 C 83.652344 36.160156 83.363281 35.832031 83.726562 35.515625 C 84.085938 35.195312 84.445312 34.839844 84.507812 34.570312 C 84.574219 34.300781 84.90625 34.511719 84.90625 34.746094 C 84.890625 34.980469 84.941406 35.953125 84.011719 36.363281 " fill-opacity="1" fill-rule="nonzero"/><path fill="#231f20" d="M 84.011719 36.363281 L 83.652344 36.160156 C 83.652344 36.160156 83.226562 36.0625 83.117188 36.53125 C 83.015625 37.003906 82.90625 37.507812 82.691406 37.6875 C 82.476562 37.859375 82.886719 38.117188 83.121094 37.980469 C 83.363281 37.855469 84.214844 37.332031 84.011719 36.363281 " fill-opacity="1" fill-rule="nonzero"/><path fill="#231f20" d="M 86.292969 37.382812 L 85.90625 37.230469 C 85.90625 37.230469 85.570312 36.953125 85.890625 36.585938 C 86.203125 36.222656 86.511719 35.816406 86.535156 35.546875 C 86.566406 35.273438 86.917969 35.414062 86.945312 35.660156 C 86.957031 35.90625 87.144531 36.871094 86.292969 37.382812 " fill-opacity="1" fill-rule="nonzero"/><path fill="#231f20" d="M 86.292969 37.382812 L 85.90625 37.230469 C 85.90625 37.230469 85.464844 37.199219 85.425781 37.675781 C 85.386719 38.152344 85.355469 38.664062 85.164062 38.871094 C 84.972656 39.078125 85.429688 39.261719 85.636719 39.109375 C 85.859375 38.960938 86.625 38.335938 86.292969 37.382812 " fill-opacity="1" fill-rule="nonzero"/><path fill="#231f20" d="M 88.703125 38.042969 L 88.296875 37.960938 C 88.296875 37.960938 87.917969 37.746094 88.171875 37.332031 C 88.417969 36.917969 88.648438 36.46875 88.628906 36.195312 C 88.617188 35.925781 88.972656 36 89.039062 36.234375 C 89.082031 36.46875 89.441406 37.40625 88.703125 38.042969 " fill-opacity="1" fill-rule="nonzero"/><path fill="#231f20" d="M 88.703125 38.042969 L 88.296875 37.960938 C 88.296875 37.960938 87.851562 38.007812 87.894531 38.480469 C 87.9375 38.953125 88 39.464844 87.84375 39.703125 C 87.683594 39.933594 88.1875 40.039062 88.367188 39.855469 C 88.570312 39.671875 89.203125 38.941406 88.703125 38.042969 " fill-opacity="1" fill-rule="nonzero"/><g clip-path="url(#id4)"><g clip-path="url(#id5)"><g clip-path="url(#id6)"><g clip-path="url(#id7)"><path fill="#000000" d="M 56.644531 142.253906 C 58.613281 141.476562 55.335938 139.277344 54.566406 138.734375 C 53.222656 137.800781 51.824219 136.9375 50.367188 136.207031 C 49.621094 135.839844 46.660156 134.914062 46.808594 136.679688 C 46.9375 138.171875 48.238281 139.328125 49.417969 140.09375 C 51.367188 141.351562 54.242188 142.902344 56.644531 142.253906 Z M 56.703125 138.34375 C 57.722656 136.582031 58.746094 134.828125 59.789062 133.089844 C 56.972656 132.648438 54.152344 132.183594 51.355469 133.007812 C 51.304688 133.019531 51.261719 133.027344 51.207031 133.03125 C 50.925781 133.496094 50.660156 133.964844 50.402344 134.445312 C 52.113281 135.152344 54.792969 136.675781 56.703125 138.34375 Z M 60.714844 131.542969 C 61.9375 129.503906 63.175781 127.484375 64.425781 125.472656 C 62.085938 124.484375 59.507812 123.890625 56.96875 124.191406 C 56.921875 124.199219 56.863281 124.191406 56.8125 124.195312 C 56.234375 125.152344 55.65625 126.105469 55.089844 127.074219 C 54.289062 128.433594 53.386719 129.734375 52.507812 131.03125 C 55.234375 130.621094 57.964844 131.132812 60.714844 131.542969 Z M 69.988281 116.816406 C 67.398438 116.34375 64.769531 115.714844 62.144531 116.207031 C 62 116.230469 61.867188 116.226562 61.75 116.191406 C 60.464844 118.285156 59.164062 120.371094 57.871094 122.46875 C 60.457031 122.402344 62.941406 123.027344 65.332031 124.042969 C 66.859375 121.621094 68.410156 119.210938 69.988281 116.816406 Z M 70.992188 115.304688 C 72.039062 113.71875 73.109375 112.140625 74.183594 110.5625 C 71.476562 109.863281 68.847656 109.097656 66.003906 109.335938 C 64.933594 111.023438 63.882812 112.722656 62.835938 114.429688 C 65.585938 114.179688 68.261719 114.863281 70.992188 115.304688 Z M 78.191406 104.8125 C 78.113281 104.785156 78.035156 104.75 77.953125 104.695312 C 75.828125 103.171875 73.316406 102.113281 70.664062 102.242188 C 70.644531 102.246094 70.632812 102.242188 70.625 102.242188 C 69.429688 104.019531 68.261719 105.808594 67.113281 107.609375 C 69.886719 107.589844 72.503906 108.414062 75.199219 109.089844 C 76.1875 107.660156 77.183594 106.226562 78.191406 104.8125 Z M 79.089844 103.550781 C 79.757812 102.609375 80.421875 101.667969 81.097656 100.734375 C 78.855469 99.382812 76.425781 98.378906 74.1875 97.035156 C 73.359375 98.210938 72.542969 99.382812 71.738281 100.566406 C 74.289062 100.707031 76.765625 101.78125 78.824219 103.25 C 78.945312 103.335938 79.027344 103.445312 79.089844 103.550781 Z M 134.175781 20.429688 C 133.765625 16.339844 130.386719 14.691406 126.816406 13.785156 C 123.734375 13.003906 122.125 13.285156 119.945312 15.753906 C 115.550781 20.71875 113.125 27.003906 109.480469 32.484375 C 104.871094 39.417969 100.523438 46.492188 96.175781 53.585938 C 88.320312 66.394531 85.230469 81.683594 76.375 93.921875 C 75.957031 94.496094 75.5625 95.082031 75.15625 95.660156 C 77.414062 96.996094 79.855469 98.007812 82.097656 99.382812 C 84.832031 95.644531 87.621094 91.949219 90.488281 88.296875 C 96.648438 80.445312 103.636719 73.285156 109.570312 65.265625 C 115.539062 57.214844 120.855469 48.707031 125.855469 40.023438 C 127.792969 36.652344 129.832031 33.296875 131.550781 29.796875 C 132.917969 27.007812 134.492188 23.632812 134.175781 20.429688 Z M 135.476562 18.316406 C 136.945312 23.671875 133.871094 29.238281 131.332031 33.777344 C 127.09375 41.34375 122.757812 48.867188 117.992188 56.117188 C 108.53125 70.503906 96.542969 82.785156 86.292969 96.566406 C 77.558594 108.3125 69.464844 120.277344 61.949219 132.761719 C 61.914062 132.921875 61.832031 133.0625 61.707031 133.164062 C 60.4375 135.28125 59.175781 137.417969 57.929688 139.570312 C 59.289062 141.175781 59.5625 142.761719 57.289062 143.773438 C 57.222656 143.820312 57.136719 143.855469 57.046875 143.886719 C 56.945312 143.921875 56.859375 143.9375 56.773438 143.941406 C 53.417969 144.660156 48.667969 142.371094 46.558594 139.875 C 45.640625 138.78125 44.457031 136.707031 45.484375 135.292969 C 46.253906 134.226562 47.496094 133.828125 48.761719 133.96875 C 49.828125 131.964844 51.296875 130.40625 52.394531 128.421875 C 53.820312 125.863281 55.394531 123.390625 56.921875 120.890625 C 60.164062 115.558594 63.375 110.203125 66.761719 104.960938 C 70.03125 99.894531 73.824219 95.140625 76.964844 90.003906 C 79.757812 85.441406 82.015625 80.601562 84.070312 75.671875 C 86.046875 70.917969 87.902344 66.101562 90.082031 61.433594 C 92.335938 56.644531 95.148438 52.320312 97.859375 47.796875 C 100.96875 42.605469 104.117188 37.519531 107.46875 32.476562 C 110.078125 28.550781 112.078125 24.347656 114.542969 20.359375 C 116.328125 17.46875 119.929688 10.988281 124.128906 11.535156 C 128.339844 12.085938 134.191406 13.621094 135.476562 18.316406 " fill-opacity="1" fill-rule="nonzero"/></g></g></g></g><g clip-path="url(#id8)"><g clip-path="url(#id9)"><g clip-path="url(#id10)"><g clip-path="url(#id11)"><path fill="#000000" d="M 131.558594 23.269531 C 131.671875 23.328125 131.21875 24.472656 130.292969 26.496094 C 129.824219 27.5 129.25 28.726562 128.585938 30.15625 C 127.914062 31.578125 127.164062 33.230469 126.261719 35.007812 C 125.324219 36.757812 124.328125 38.707031 123.167969 40.742188 C 122.574219 41.753906 121.960938 42.792969 121.324219 43.871094 C 121.007812 44.40625 120.683594 44.953125 120.359375 45.507812 C 120.019531 46.046875 119.671875 46.601562 119.316406 47.15625 C 118.609375 48.269531 117.886719 49.40625 117.148438 50.570312 C 116.394531 51.726562 115.59375 52.878906 114.796875 54.070312 C 113.21875 56.460938 111.457031 58.851562 109.703125 61.328125 C 107.898438 63.761719 106.148438 66.167969 104.394531 68.417969 C 103.960938 68.988281 103.535156 69.546875 103.105469 70.105469 C 102.890625 70.382812 102.679688 70.660156 102.46875 70.9375 L 102.3125 71.144531 L 102.207031 71.273438 L 102.125 71.367188 L 101.78125 71.765625 C 100.882812 72.8125 100.015625 73.851562 99.132812 74.828125 C 95.644531 78.765625 92.433594 82.210938 89.886719 85.234375 C 89.234375 85.976562 88.640625 86.703125 88.082031 87.394531 C 87.527344 88.085938 86.996094 88.738281 86.5 89.347656 C 85.578125 90.597656 84.742188 91.652344 84.097656 92.550781 C 82.855469 94.394531 82.109375 95.382812 82.007812 95.320312 C 81.886719 95.246094 82.417969 94.128906 83.46875 92.175781 C 84.015625 91.210938 84.785156 90.066406 85.644531 88.722656 C 86.097656 88.070312 86.605469 87.390625 87.132812 86.660156 C 87.664062 85.925781 88.226562 85.164062 88.855469 84.386719 C 91.289062 81.230469 94.421875 77.667969 97.820312 73.6875 C 98.679688 72.699219 99.511719 71.664062 100.398438 70.609375 L 100.726562 70.21875 L 100.800781 70.125 L 100.808594 70.117188 L 100.824219 70.097656 L 100.863281 70.046875 L 101.023438 69.835938 C 101.226562 69.558594 101.433594 69.277344 101.644531 69 C 102.066406 68.4375 102.492188 67.875 102.921875 67.300781 C 104.65625 65.027344 106.371094 62.640625 108.175781 60.21875 C 109.917969 57.75 111.671875 55.382812 113.269531 53.023438 C 114.074219 51.851562 114.867188 50.699219 115.644531 49.574219 C 116.394531 48.429688 117.132812 47.308594 117.847656 46.21875 C 118.207031 45.675781 118.566406 45.136719 118.917969 44.597656 C 119.253906 44.058594 119.582031 43.53125 119.910156 43.007812 C 120.5625 41.957031 121.199219 40.929688 121.8125 39.941406 C 123.023438 37.960938 124.074219 36.074219 125.085938 34.375 C 126.050781 32.652344 126.871094 31.0625 127.632812 29.691406 C 127.828125 29.34375 128.011719 29.007812 128.1875 28.6875 C 128.367188 28.367188 128.542969 28.050781 128.710938 27.757812 C 129.050781 27.171875 129.359375 26.640625 129.636719 26.15625 C 130.765625 24.242188 131.445312 23.210938 131.558594 23.269531 " fill-opacity="1" fill-rule="nonzero"/></g></g></g></g></svg>