<svg xmlns="http://www.w3.org/2000/svg" xmlns:xlink="http://www.w3.org/1999/xlink" width="200" zoomAndPan="magnify" viewBox="0 0 150 149.999998" height="200" preserveAspectRatio="xMidYMid meet" version="1.0"><defs><clipPath id="id1"><path d="M 21 49 L 107 49 L 107 147.5 L 21 147.5 Z M 21 49 " clip-rule="nonzero"/></clipPath><clipPath id="id2"><path d="M 2.191406 36 L 94 36 L 94 123 L 2.191406 123 Z M 2.191406 36 " clip-rule="nonzero"/></clipPath><clipPath id="id3"><path d="M 2.191406 16 L 80 16 L 80 68 L 2.191406 68 Z M 2.191406 16 " clip-rule="nonzero"/></clipPath><clipPath id="id4"><path d="M 34 3.5 L 92 3.5 L 92 30 L 34 30 Z M 34 3.5 " clip-rule="nonzero"/></clipPath><clipPath id="id5"><path d="M 72 64 L 130 64 L 130 147.5 L 72 147.5 Z M 72 64 " clip-rule="nonzero"/></clipPath><clipPath id="id6"><path d="M 112 56 L 146.941406 56 L 146.941406 123 L 112 123 Z M 112 56 " clip-rule="nonzero"/></clipPath><clipPath id="id7"><path d="M 99 26 L 146.941406 26 L 146.941406 67 L 99 67 Z M 99 26 " clip-rule="nonzero"/></clipPath><clipPath id="id8"><path d="M 21 49 L 107 49 L 107 147.5 L 21 147.5 Z M 21 49 " clip-rule="nonzero"/></clipPath></defs><g clip-path="url(#id1)"><path fill="#000000" d="M 96.933594 49.253906 L 106.441406 60.945312 C 83.269531 77.890625 93.128906 136.839844 67.4375 147.507812 C 49.257812 145.722656 33.042969 137.207031 21.339844 124.488281 C 44.769531 96.390625 69 69.640625 96.933594 49.253906 Z M 96.933594 49.253906 " fill-opacity="1" fill-rule="evenodd"/></g><g clip-path="url(#id2)"><path fill="#000000" d="M 83.273438 36.105469 L 93.515625 46.332031 C 59.582031 75.054688 38.109375 99.121094 19.644531 122.050781 L 19.339844 122.226562 C 8.703125 109.65625 2.289062 93.40625 2.289062 75.675781 C 2.289062 74.238281 2.332031 72.816406 2.414062 71.402344 C 15.265625 45.515625 63.535156 54 83.273438 36.109375 Z M 83.273438 36.105469 " fill-opacity="1" fill-rule="evenodd"/></g><g clip-path="url(#id3)"><path fill="#000000" d="M 40.519531 16.261719 C 56.652344 16.421875 77.140625 26.78125 79.132812 32.707031 C 78.480469 47.574219 10.019531 43.21875 2.816406 67.757812 L 2.71875 67.769531 C 4.980469 47.0625 16.019531 28.976562 32.050781 17.308594 C 34.667969 16.550781 37.539062 16.230469 40.519531 16.261719 Z M 40.519531 16.261719 " fill-opacity="1" fill-rule="evenodd"/></g><g clip-path="url(#id4)"><path fill="#000000" d="M 74.574219 3.492188 C 78.203125 3.492188 81.773438 3.761719 85.261719 4.277344 C 96.015625 15.902344 90.273438 26.34375 84.5 29.535156 C 79.570312 33.039062 66.859375 11.097656 34.988281 15.289062 C 46.363281 7.835938 59.960938 3.496094 74.574219 3.496094 Z M 74.574219 3.492188 " fill-opacity="1" fill-rule="evenodd"/></g><g clip-path="url(#id5)"><path fill="#000000" d="M 107.527344 64.773438 C 108.1875 64.785156 108.875 64.917969 109.605469 65.164062 C 119.023438 72.546875 136.261719 108.070312 126.1875 125.773438 C 126.1875 125.777344 126.191406 125.785156 126.1875 125.789062 C 113.066406 139.148438 94.78125 147.441406 74.570312 147.441406 C 74.015625 147.441406 73.464844 147.441406 72.914062 147.429688 C 94.683594 131.71875 89.945312 69.085938 107.527344 64.773438 Z M 107.527344 64.773438 " fill-opacity="1" fill-rule="evenodd"/></g><g clip-path="url(#id6)"><path fill="#000000" d="M 124.921875 56.066406 C 132.835938 56.316406 142.074219 60.457031 146.417969 69.464844 L 146.648438 70.007812 C 146.792969 71.878906 146.875 73.765625 146.875 75.671875 C 146.875 93.527344 140.367188 109.871094 129.59375 122.480469 C 139.5625 91.230469 109.230469 63.757812 112.527344 60.703125 C 114.710938 57.550781 119.507812 55.894531 124.921875 56.066406 Z M 124.921875 56.066406 " fill-opacity="1" fill-rule="evenodd"/></g><g clip-path="url(#id7)"><path fill="#000000" d="M 127.214844 26.222656 C 137.429688 37.054688 144.34375 51.03125 146.308594 66.542969 C 138.625 53.714844 127.160156 49.058594 108.632812 58.757812 L 99.125 46.824219 C 105.332031 41.234375 118.421875 31.578125 127.214844 26.222656 Z M 127.214844 26.222656 " fill-opacity="1" fill-rule="evenodd"/></g><path fill="#000000" d="M 88.386719 4.808594 C 102.546875 7.546875 115.238281 14.417969 125.148438 24.109375 L 124.972656 24.425781 C 114.546875 29.167969 105.628906 36.9375 96.4375 44.144531 L 85.472656 33.921875 C 92.617188 26.726562 98.128906 18.871094 88.386719 4.808594 Z M 88.386719 4.808594 " fill-opacity="1" fill-rule="evenodd"/><g clip-path="url(#id8)"><path fill="#000000" d="M 96.933594 49.253906 L 106.441406 60.945312 C 83.269531 77.890625 93.128906 136.839844 67.4375 147.507812 C 49.257812 145.722656 33.042969 137.207031 21.339844 124.488281 C 44.769531 96.390625 69 69.640625 96.933594 49.253906 Z M 96.933594 49.253906 " fill-opacity="1" fill-rule="evenodd"/></g></svg>