<svg xmlns="http://www.w3.org/2000/svg" xmlns:xlink="http://www.w3.org/1999/xlink" width="200" zoomAndPan="magnify" viewBox="0 0 150 149.999998" height="200" preserveAspectRatio="xMidYMid meet" version="1.0"><defs><clipPath id="id1"><path d="M 4.722656 75 L 62 75 L 62 132.472656 L 4.722656 132.472656 Z M 4.722656 75 " clip-rule="nonzero"/></clipPath><clipPath id="id2"><path d="M 40 32 L 144.972656 32 L 144.972656 132.472656 L 40 132.472656 Z M 40 32 " clip-rule="nonzero"/></clipPath></defs><g clip-path="url(#id1)"><path fill="#100f0d" d="M 32.300781 80.59375 C 45.230469 80.246094 56 90.449219 56.351562 103.371094 C 56.351562 103.597656 56.351562 103.832031 56.351562 104.058594 C 56.460938 116.980469 46.054688 127.558594 33.125 127.660156 C 20.183594 127.773438 9.601562 117.367188 9.503906 104.445312 C 9.503906 104.308594 9.503906 104.183594 9.503906 104.058594 C 9.476562 91.347656 19.585938 80.929688 32.300781 80.59375 Z M 32.265625 75.714844 C 16.890625 76.078125 4.648438 88.675781 4.722656 104.058594 C 4.609375 119.636719 17.140625 132.351562 32.726562 132.472656 C 48.3125 132.597656 61.042969 120.0625 61.167969 104.480469 C 61.167969 104.332031 61.167969 104.195312 61.167969 104.058594 C 61.242188 88.476562 48.675781 75.777344 33.089844 75.703125 C 32.8125 75.703125 32.539062 75.703125 32.265625 75.714844 " fill-opacity="1" fill-rule="nonzero"/></g><g clip-path="url(#id2)"><path fill="#100f0d" d="M 117.988281 80.667969 C 130.914062 81.292969 140.875 92.269531 140.25 105.191406 C 139.625 118.105469 128.644531 128.070312 115.726562 127.449219 C 102.800781 126.824219 92.828125 115.847656 93.464844 102.921875 C 93.839844 95.0625 98.144531 87.917969 104.910156 83.910156 L 114.679688 105.054688 C 115.292969 106.230469 116.738281 106.691406 117.910156 106.078125 C 119.011719 105.503906 119.496094 104.195312 119.035156 103.058594 L 109.261719 81.902344 C 112.058594 80.941406 115.027344 80.519531 117.988281 80.667969 Z M 80.035156 32.46875 C 78.453125 32.429688 76.878906 32.828125 75.507812 33.640625 L 44.59375 51.691406 C 40.515625 54.074219 39.140625 59.324219 41.539062 63.402344 C 42.324219 64.75 43.472656 65.875 44.855469 66.609375 L 68.730469 79.507812 L 68.730469 103.722656 C 68.804688 106.554688 71.164062 108.785156 74.007812 108.710938 C 76.730469 108.636719 78.925781 106.441406 79 103.722656 L 79 77.476562 C 79 74.957031 77.628906 72.648438 75.40625 71.449219 L 63.300781 64.902344 C 62.464844 64.4375 62.164062 63.390625 62.628906 62.566406 C 62.789062 62.292969 63.015625 62.058594 63.300781 61.90625 L 81.046875 51.726562 C 81.871094 51.253906 82.90625 51.539062 83.382812 52.363281 C 83.40625 52.402344 83.429688 52.4375 83.457031 52.476562 L 89.457031 65.027344 C 90.019531 66.210938 91.21875 66.972656 92.542969 66.972656 L 97.132812 66.972656 L 102.9375 79.546875 C 89.394531 87.253906 84.667969 104.46875 92.367188 118.003906 C 100.078125 131.550781 117.300781 136.277344 130.851562 128.582031 C 144.394531 120.875 149.136719 103.644531 141.421875 90.113281 C 134.621094 78.171875 120.21875 72.859375 107.292969 77.539062 L 102.414062 66.972656 L 113.042969 66.972656 C 115.878906 66.972656 118.1875 64.675781 118.1875 61.832031 C 118.1875 59 115.878906 56.691406 113.042969 56.691406 L 97.933594 56.691406 C 97.285156 56.691406 96.683594 56.320312 96.398438 55.71875 L 87.550781 37.332031 C 86.164062 34.425781 83.257812 32.554688 80.035156 32.46875 " fill-opacity="1" fill-rule="nonzero"/></g><path fill="#100f0d" d="M 116.363281 28.050781 C 116.414062 20.953125 110.699219 15.152344 103.597656 15.101562 C 96.484375 15.054688 90.695312 20.765625 90.644531 27.863281 C 90.644531 27.925781 90.644531 27.988281 90.644531 28.050781 C 90.59375 35.148438 96.308594 40.949219 103.410156 41 C 110.511719 41.050781 116.316406 35.335938 116.363281 28.226562 C 116.363281 28.175781 116.363281 28.113281 116.363281 28.050781 " fill-opacity="1" fill-rule="nonzero"/></svg>