<svg xmlns="http://www.w3.org/2000/svg" xmlns:xlink="http://www.w3.org/1999/xlink" width="200" zoomAndPan="magnify" viewBox="0 0 150 149.999998" height="200" preserveAspectRatio="xMidYMid meet" version="1.0"><defs><clipPath id="id1"><path d="M 4.695312 4.695312 L 144.945312 4.695312 L 144.945312 144.945312 L 4.695312 144.945312 Z M 4.695312 4.695312 " clip-rule="nonzero"/></clipPath></defs><g clip-path="url(#id1)"><path fill="#000000" d="M 144.394531 21.980469 C 143.824219 20.601562 142.476562 19.707031 140.988281 19.707031 L 129.9375 19.707031 L 129.9375 8.65625 C 129.9375 7.164062 129.042969 5.820312 127.660156 5.25 C 126.28125 4.679688 124.707031 4.992188 123.644531 6.050781 L 108.914062 20.785156 C 108.222656 21.476562 107.835938 22.414062 107.835938 23.390625 L 107.835938 36.789062 C 107.566406 36.945312 107.300781 37.128906 107.070312 37.359375 L 64.710938 79.71875 C 63.273438 81.15625 63.273438 83.488281 64.710938 84.933594 C 65.429688 85.652344 66.375 86.011719 67.316406 86.011719 C 68.253906 86.011719 69.203125 85.652344 69.921875 84.933594 L 112.28125 42.570312 C 112.511719 42.34375 112.695312 42.085938 112.855469 41.808594 L 126.253906 41.808594 C 127.230469 41.808594 128.167969 41.421875 128.859375 40.730469 L 143.59375 25.996094 C 144.640625 24.9375 144.957031 23.351562 144.394531 21.980469 Z M 124.722656 34.441406 L 115.203125 34.441406 L 115.203125 24.917969 L 122.570312 17.550781 L 122.570312 23.390625 C 122.570312 25.425781 124.21875 27.074219 126.253906 27.074219 L 132.089844 27.074219 Z M 56.265625 82.328125 C 56.265625 88.421875 61.21875 93.378906 67.316406 93.378906 C 72.195312 93.378906 76.441406 90.246094 77.878906 85.578125 C 78.476562 83.632812 80.53125 82.546875 82.484375 83.136719 C 84.425781 83.734375 85.523438 85.796875 84.921875 87.742188 C 82.527344 95.523438 75.457031 100.742188 67.316406 100.742188 C 57.160156 100.742188 48.898438 92.484375 48.898438 82.328125 C 48.898438 74.1875 54.121094 67.113281 61.902344 64.71875 C 63.84375 64.121094 65.90625 65.207031 66.503906 67.160156 C 67.105469 69.101562 66.007812 71.164062 64.066406 71.765625 C 59.398438 73.199219 56.265625 77.445312 56.265625 82.328125 Z M 67.316406 56.542969 C 53.097656 56.542969 41.53125 68.109375 41.53125 82.328125 C 41.53125 96.542969 53.097656 108.109375 67.316406 108.109375 C 81.535156 108.109375 93.101562 96.542969 93.101562 82.328125 C 93.101562 79.535156 92.632812 76.753906 91.710938 74.046875 C 91.054688 72.125 92.085938 70.03125 94.011719 69.378906 C 95.9375 68.726562 98.027344 69.757812 98.679688 71.679688 C 99.871094 75.144531 100.46875 78.734375 100.46875 82.328125 C 100.46875 100.605469 85.59375 115.476562 67.316406 115.476562 C 49.035156 115.476562 34.164062 100.605469 34.164062 82.328125 C 34.164062 64.046875 49.035156 49.175781 67.316406 49.175781 C 70.90625 49.175781 74.488281 49.773438 77.96875 50.953125 C 79.894531 51.605469 80.925781 53.695312 80.273438 55.621094 C 79.617188 57.546875 77.527344 58.578125 75.605469 57.921875 C 72.886719 57.011719 70.097656 56.542969 67.316406 56.542969 Z M 107.835938 82.328125 C 107.835938 75.734375 106.214844 69.195312 103.136719 63.394531 C 102.191406 61.597656 102.871094 59.367188 104.667969 58.410156 C 106.472656 57.453125 108.691406 58.144531 109.648438 59.941406 C 113.277344 66.800781 115.203125 74.535156 115.203125 82.328125 C 115.203125 104.105469 100.503906 123.160156 79.460938 128.65625 C 79.148438 128.738281 78.835938 128.777344 78.53125 128.777344 C 76.894531 128.777344 75.402344 127.679688 74.96875 126.023438 C 74.453125 124.050781 75.632812 122.042969 77.601562 121.527344 C 95.402344 116.878906 107.835938 100.753906 107.835938 82.328125 Z M 57.019531 121.527344 C 58.992188 122.042969 60.171875 124.050781 59.65625 126.023438 C 59.222656 127.679688 57.730469 128.777344 56.089844 128.777344 C 55.785156 128.777344 55.464844 128.738281 55.152344 128.65625 C 34.117188 123.148438 19.429688 104.097656 19.429688 82.328125 C 19.429688 60.464844 34.203125 41.394531 55.34375 35.949219 C 57.316406 35.445312 59.324219 36.632812 59.828125 38.601562 C 60.335938 40.574219 59.148438 42.582031 57.175781 43.085938 C 39.292969 47.691406 26.796875 63.824219 26.796875 82.328125 C 26.796875 100.742188 39.230469 116.867188 57.019531 121.527344 Z M 86.25 46.503906 C 83.699219 45.152344 80.992188 44.074219 78.21875 43.300781 C 76.257812 42.757812 75.117188 40.722656 75.660156 38.757812 C 76.203125 36.796875 78.238281 35.65625 80.199219 36.199219 C 83.488281 37.121094 86.683594 38.390625 89.695312 39.992188 C 91.488281 40.941406 92.179688 43.179688 91.222656 44.976562 C 90.558594 46.21875 89.277344 46.9375 87.960938 46.9375 C 87.390625 46.9375 86.800781 46.800781 86.25 46.503906 Z M 120.277344 48.925781 C 126.59375 58.925781 129.9375 70.476562 129.9375 82.328125 C 129.9375 116.859375 101.847656 144.945312 67.316406 144.945312 C 32.78125 144.945312 4.695312 116.859375 4.695312 82.328125 C 4.695312 47.792969 32.78125 19.707031 67.316406 19.707031 C 79.167969 19.707031 90.714844 23.050781 100.714844 29.367188 C 102.4375 30.453125 102.953125 32.726562 101.859375 34.449219 C 100.773438 36.171875 98.496094 36.679688 96.773438 35.601562 C 87.953125 30.019531 77.769531 27.074219 67.316406 27.074219 C 36.851562 27.074219 12.0625 51.863281 12.0625 82.328125 C 12.0625 112.789062 36.851562 137.578125 67.316406 137.578125 C 97.777344 137.578125 122.570312 112.789062 122.570312 82.328125 C 122.570312 71.875 119.621094 61.679688 114.050781 52.867188 C 112.964844 51.144531 113.480469 48.871094 115.191406 47.785156 C 116.90625 46.699219 119.1875 47.214844 120.277344 48.925781 Z M 67.316406 122.84375 C 69.351562 122.84375 71 124.492188 71 126.527344 C 71 128.5625 69.351562 130.210938 67.316406 130.210938 C 65.28125 130.210938 63.632812 128.5625 63.632812 126.527344 C 63.632812 124.492188 65.28125 122.84375 67.316406 122.84375 Z M 67.316406 41.808594 C 65.28125 41.808594 63.632812 40.160156 63.632812 38.125 C 63.632812 36.089844 65.28125 34.441406 67.316406 34.441406 C 69.351562 34.441406 71 36.089844 71 38.125 C 71 40.160156 69.351562 41.808594 67.316406 41.808594 Z M 67.316406 41.808594 " fill-opacity="1" fill-rule="nonzero"/></g></svg>