<svg xmlns="http://www.w3.org/2000/svg" xmlns:xlink="http://www.w3.org/1999/xlink" width="200" zoomAndPan="magnify" viewBox="0 0 150 149.999998" height="200" preserveAspectRatio="xMidYMid meet" version="1.0"><defs><clipPath id="id1"><path d="M 6.394531 33 L 143.644531 33 L 143.644531 135 L 6.394531 135 Z M 6.394531 33 " clip-rule="nonzero"/></clipPath></defs><g clip-path="url(#id1)"><path fill="#000000" d="M 140.363281 72.261719 C 140.34375 71.972656 140.277344 71.691406 140.171875 71.425781 C 137.96875 59.738281 127.921875 52.5 114.988281 52.5 C 110.359375 52.5 103.757812 51.070312 98.605469 60.210938 L 75.132812 60.210938 C 75.480469 55.640625 76.648438 53.53125 77.976562 51.636719 C 79.933594 48.851562 82.152344 45.414062 82.152344 36.164062 C 82.152344 34.582031 80.878906 33.167969 79.296875 33.167969 C 77.71875 33.167969 76.441406 34.375 76.441406 35.949219 C 76.441406 43.394531 74.992188 45.992188 73.300781 48.398438 C 71.660156 50.738281 69.820312 51.074219 69.398438 60.210938 L 51.421875 60.210938 C 46.265625 51.074219 39.664062 52.5 35.039062 52.5 C 22.164062 52.5 11.761719 60.777344 9.71875 73.277344 C 8.746094 85.9375 6.484375 115.347656 6.484375 116.300781 C 6.484375 126.296875 14.488281 134.992188 23.617188 134.992188 C 31.78125 134.992188 37.09375 131.949219 39.414062 126.042969 C 39.445312 125.988281 39.476562 125.917969 39.5 125.855469 L 45.398438 112.0625 C 47.792969 113.882812 51.066406 116.113281 55.027344 116.113281 C 62.066406 116.113281 68.605469 110.441406 71.113281 105.875 L 78.945312 105.875 C 81.40625 110.441406 87.800781 115.296875 95.015625 115.296875 C 98.871094 115.296875 102.027344 114.273438 104.582031 112.765625 L 110.5625 126.015625 C 110.585938 126.066406 110.613281 126.035156 110.636719 126.09375 C 112.957031 131.992188 118.269531 134.945312 126.429688 134.945312 C 135.707031 134.945312 143.5625 126.707031 143.5625 116.984375 C 143.542969 116.039062 141.324219 85.386719 140.363281 72.261719 Z M 40.75 87.601562 L 33.894531 87.601562 L 33.894531 93.3125 C 33.894531 94.894531 33.191406 96.167969 31.609375 96.167969 C 30.03125 96.167969 29.328125 94.894531 29.328125 93.3125 L 29.328125 87.601562 L 23.617188 87.601562 C 22.035156 87.601562 20.761719 86.902344 20.761719 85.320312 C 20.761719 83.738281 22.035156 83.035156 23.617188 83.035156 L 29.328125 83.035156 L 29.328125 76.183594 C 29.328125 74.605469 30.03125 73.332031 31.609375 73.332031 C 33.191406 73.332031 33.894531 74.609375 33.894531 76.183594 L 33.894531 83.035156 L 40.75 83.035156 C 42.328125 83.035156 43.605469 83.738281 43.605469 85.320312 C 43.605469 86.902344 42.328125 87.601562 40.75 87.601562 Z M 69.300781 87.601562 L 63.589844 87.601562 C 62.011719 87.601562 60.738281 86.902344 60.738281 85.320312 C 60.738281 83.738281 62.011719 83.035156 63.589844 83.035156 L 69.300781 83.035156 C 70.882812 83.035156 72.15625 83.738281 72.15625 85.320312 C 72.15625 86.902344 70.882812 87.601562 69.300781 87.601562 Z M 86.433594 87.601562 L 80.722656 87.601562 C 79.144531 87.601562 77.867188 86.902344 77.867188 85.320312 C 77.867188 83.738281 79.144531 83.035156 80.722656 83.035156 L 86.433594 83.035156 C 88.015625 83.035156 89.289062 83.738281 89.289062 85.320312 C 89.289062 86.902344 88.015625 87.601562 86.433594 87.601562 Z M 103.566406 99.019531 C 100.417969 99.019531 97.855469 96.464844 97.855469 93.3125 C 97.855469 90.167969 100.417969 87.601562 103.566406 87.601562 C 106.71875 87.601562 109.277344 90.167969 109.277344 93.3125 C 109.277344 96.46875 106.71875 99.019531 103.566406 99.019531 Z M 103.566406 81.894531 C 100.417969 81.894531 97.855469 79.339844 97.855469 76.183594 C 97.855469 73.039062 100.417969 70.476562 103.566406 70.476562 C 106.71875 70.476562 109.277344 73.039062 109.277344 76.183594 C 109.277344 79.339844 106.71875 81.894531 103.566406 81.894531 Z M 120.699219 99.019531 C 117.550781 99.019531 114.988281 96.464844 114.988281 93.3125 C 114.988281 90.167969 117.550781 87.601562 120.699219 87.601562 C 123.851562 87.601562 126.410156 90.167969 126.410156 93.3125 C 126.410156 96.46875 123.851562 99.019531 120.699219 99.019531 Z M 120.699219 81.894531 C 117.550781 81.894531 114.988281 79.339844 114.988281 76.183594 C 114.988281 73.039062 117.550781 70.476562 120.699219 70.476562 C 123.851562 70.476562 126.410156 73.039062 126.410156 76.183594 C 126.410156 79.339844 123.851562 81.894531 120.699219 81.894531 Z M 120.699219 81.894531 " fill-opacity="1" fill-rule="nonzero"/></g></svg>