<svg xmlns="http://www.w3.org/2000/svg" xmlns:xlink="http://www.w3.org/1999/xlink" width="200" zoomAndPan="magnify" viewBox="0 0 150 149.999998" height="200" preserveAspectRatio="xMidYMid meet" version="1.0"><defs><clipPath id="id1"><path d="M 3.042969 3 L 147 3 L 147 146.863281 L 3.042969 146.863281 Z M 3.042969 3 " clip-rule="nonzero"/></clipPath></defs><g clip-path="url(#id1)"><path fill="#000000" d="M 75.210938 3.015625 C 114.875 3.015625 147.042969 35.191406 146.894531 75.03125 C 146.773438 115.019531 113.636719 146.710938 74.273438 146.261719 C 35.03125 145.808594 3.042969 113.511719 3.285156 74.035156 C 3.527344 34.980469 35.726562 3.015625 75.210938 3.015625 Z M 47.003906 133.835938 C 57.886719 140.078125 83.132812 142.429688 91.054688 138.058594 C 89.359375 136.761719 87.667969 135.464844 85.914062 134.136719 C 86.640625 133.683594 87.273438 133.324219 87.910156 132.929688 C 92.625 130.007812 97.402344 127.171875 101.363281 123.191406 C 102.480469 122.074219 103.238281 120.597656 104.203125 119.210938 C 106.382812 119.027344 108.921875 119 111.371094 118.578125 C 116.023438 117.761719 120.742188 117.007812 124.792969 114.023438 C 124.25 115.679688 123.734375 117.308594 123.101562 119.300781 C 131.472656 110.734375 137.882812 98.191406 139.789062 86.15625 C 139.214844 86.882812 138.761719 87.453125 138.277344 88.085938 C 134.679688 75.601562 134.40625 75.152344 127.058594 68.636719 C 127.785156 67.25 128.722656 66.042969 129.144531 64.65625 C 130.597656 60.164062 130.808594 55.546875 130.144531 50.90625 C 129.8125 48.613281 129.144531 46.378906 128.601562 44.089844 C 128.90625 44.058594 129.207031 43.96875 129.480469 44.027344 C 130.929688 44.421875 132.351562 44.84375 133.953125 45.296875 C 127.242188 32.296875 117.445312 22.527344 104.445312 15.984375 C 106.167969 18.304688 108.042969 20.566406 108.285156 23.523438 C 104.476562 23.761719 100.816406 23.914062 97.128906 24.214844 C 93.441406 24.546875 89.875 25.421875 86.851562 27.503906 C 80.289062 22.195312 72.339844 20.113281 64.628906 17.1875 C 65.535156 15.679688 66.292969 14.265625 67.230469 12.96875 C 68.136719 11.671875 69.222656 10.523438 70.402344 9.078125 C 50.992188 10.886719 35.394531 19.238281 23.027344 34.410156 C 28.378906 31.210938 33.941406 30.878906 39.65625 30.757812 C 39.625 31.210938 39.625 31.511719 39.566406 31.816406 C 38.929688 35.433594 38.207031 39.050781 37.691406 42.703125 C 37.117188 46.832031 36.453125 51.023438 37.390625 55.003906 C 34.09375 57.660156 30.769531 60.191406 27.625 62.90625 C 24.449219 65.652344 21.726562 68.816406 19.945312 72.859375 C 16.859375 69.359375 14.050781 65.984375 12.355469 61.820312 C 11.722656 60.253906 11.601562 58.65625 12.113281 56.996094 C 12.597656 55.398438 13.050781 53.769531 13.503906 52.171875 C 9.394531 63.027344 8.367188 74.183594 10.300781 85.613281 C 11.902344 95.085938 15.441406 103.769531 21.003906 111.820312 C 21.515625 109.832031 21.941406 107.992188 22.515625 106.183594 C 23.089844 104.371094 23.785156 102.59375 25.355469 101.054688 C 25.960938 103.648438 27.140625 105.789062 29.257812 107.117188 C 31.25 108.351562 33.398438 109.589844 35.636719 110.191406 C 38.871094 111.066406 42.257812 111.398438 45.613281 111.851562 C 46.550781 111.972656 47.003906 112.183594 47.15625 113.148438 C 47.367188 114.265625 47.730469 115.320312 48.0625 116.40625 C 49.875 122.136719 52.171875 127.625 56.949219 131.816406 C 53.894531 133.925781 50.601562 134.015625 47.003906 133.835938 Z M 47.003906 133.835938 " fill-opacity="1" fill-rule="nonzero"/></g><path fill="#000000" d="M 89.996094 98.644531 C 82.132812 97.253906 74.304688 95.867188 66.441406 94.421875 C 66.082031 94.359375 65.566406 93.816406 65.503906 93.425781 C 63.632812 84.621094 61.816406 75.8125 59.972656 67.007812 C 59.820312 66.285156 60.0625 65.921875 60.699219 65.589844 C 68.742188 61.429688 76.78125 57.238281 84.792969 53.015625 C 85.398438 52.714844 85.730469 52.742188 86.246094 53.226562 C 92.746094 59.558594 99.246094 65.832031 105.777344 72.136719 C 106.382812 72.707031 106.5 73.191406 106.140625 73.945312 C 102.875 80.820312 99.609375 87.695312 96.34375 94.570312 C 96.222656 94.8125 96.070312 95.023438 95.949219 95.234375 C 94.074219 98.3125 93.621094 98.550781 90.054688 98.28125 C 90.023438 98.371094 89.996094 98.492188 89.996094 98.644531 Z M 89.996094 98.644531 " fill-opacity="1" fill-rule="nonzero"/></svg>