<svg xmlns="http://www.w3.org/2000/svg" xmlns:xlink="http://www.w3.org/1999/xlink" width="200" zoomAndPan="magnify" viewBox="0 0 150 149.999998" height="200" preserveAspectRatio="xMidYMid meet" version="1.0"><defs><clipPath id="id1"><path d="M 8 12 L 142.617188 12 L 142.617188 137.996094 L 8 137.996094 Z M 8 12 " clip-rule="nonzero"/></clipPath></defs><g clip-path="url(#id1)"><path fill="#000000" d="M 141.601562 23.507812 C 140.792969 23.027344 140.3125 22.679688 139.589844 22.667969 C 138.878906 22.648438 137.417969 22.757812 137.289062 22.757812 C 137.171875 22.757812 137.191406 22.570312 137.222656 22.296875 C 137.25 22.015625 137.726562 21.421875 138.234375 20.847656 C 138.742188 20.261719 140.820312 18.285156 140.996094 17.652344 C 141.171875 17.019531 140.851562 16.640625 140.117188 16.75 C 139.375 16.84375 138.8125 17.410156 137.972656 18.285156 C 137.125 19.164062 135.347656 21.082031 134.996094 21.414062 C 134.644531 21.742188 134.121094 21.65625 133.90625 21.34375 C 133.699219 21.03125 133.945312 19.980469 134.296875 18.257812 C 134.644531 16.535156 134.859375 13.808594 134.578125 12.921875 C 134.296875 12.046875 133.730469 12.328125 133.417969 12.71875 C 133.105469 13.105469 132.820312 15.910156 132.433594 17.097656 C 132.042969 18.296875 131.796875 20.78125 131.796875 20.78125 C 131.796875 20.78125 131.632812 20.953125 131.445312 20.886719 C 131.269531 20.820312 131.203125 19.550781 131.09375 18.355469 C 130.996094 17.15625 130.785156 15.199219 130.539062 14.605469 C 130.296875 14.011719 129.769531 13.730469 129.378906 14.011719 C 129 14.285156 128.785156 14.847656 128.960938 16.007812 C 129.136719 17.167969 129.203125 19.6875 129.203125 21.128906 C 129.203125 22.570312 129.222656 25.550781 129.222656 25.550781 C 129.222656 25.550781 128.746094 24.832031 128.414062 24.160156 C 128.082031 23.488281 127.359375 22.855469 126.96875 22.71875 C 126.578125 22.582031 126.199219 22.71875 126.128906 23.195312 C 126.0625 23.671875 126.941406 24.664062 127.183594 25.714844 C 127.429688 26.777344 127.222656 28.140625 128.167969 28.976562 C 129.125 29.824219 129.261719 30.878906 129.261719 30.878906 C 129.261719 30.878906 129.195312 30.945312 128.871094 31.578125 C 128.558594 32.210938 128.628906 32.425781 128.414062 32.738281 C 128.199219 33.058594 128.0625 32.980469 127.496094 33.476562 C 126.941406 33.972656 126.089844 34.597656 125.566406 34.984375 C 125.039062 35.375 123.203125 34.957031 123.203125 34.957031 L 122.433594 33.621094 C 122.433594 33.621094 121.839844 33.488281 121.242188 33.652344 C 120.640625 33.828125 119.59375 33.757812 118.894531 33.757812 C 118.179688 33.757812 117.207031 34.109375 116.289062 34.179688 C 115.371094 34.246094 113.832031 33.058594 111.851562 33.546875 C 109.890625 34.042969 106.867188 33.476562 106.261719 33.789062 L 103.949219 34.089844 C 104.640625 33.027344 104.992188 31.988281 105.707031 31.003906 C 106.613281 29.738281 106.757812 28.996094 107.042969 27.808594 C 107.324219 26.613281 107.179688 25.785156 107.238281 25.648438 C 107.296875 25.511719 107.761719 24.742188 107.9375 24.402344 C 108.113281 24.070312 108.222656 23.476562 108.144531 22.757812 C 108.066406 22.132812 107.910156 19.726562 107.871094 19.105469 C 107.878906 19.085938 107.898438 19.054688 107.910156 19.027344 C 108.027344 18.804688 108.113281 18.558594 108.171875 18.34375 C 108.222656 18.121094 108.242188 17.925781 108.242188 17.78125 C 108.242188 17.644531 108.210938 17.554688 108.210938 17.554688 C 108.210938 17.554688 108.222656 17.644531 108.203125 17.78125 C 108.183594 17.886719 108.152344 18.015625 108.105469 18.167969 C 108.125 17.917969 108.113281 17.664062 108.074219 17.441406 C 108.035156 17.214844 107.96875 17.019531 107.910156 16.882812 C 107.851562 16.75 107.800781 16.679688 107.800781 16.679688 C 107.800781 16.679688 107.839844 16.757812 107.878906 16.894531 C 107.917969 17.03125 107.957031 17.226562 107.96875 17.449219 C 107.96875 17.535156 107.96875 17.632812 107.96875 17.730469 C 107.949219 17.664062 107.917969 17.59375 107.878906 17.527344 C 107.878906 17.488281 107.871094 17.449219 107.851562 17.421875 C 107.839844 17.382812 107.820312 17.34375 107.800781 17.304688 C 107.773438 17.195312 107.722656 17.097656 107.667969 17 C 107.667969 16.992188 107.65625 16.992188 107.65625 16.980469 C 107.65625 16.980469 107.65625 16.972656 107.648438 16.972656 C 107.578125 16.816406 107.519531 16.738281 107.519531 16.738281 C 107.519531 16.738281 107.550781 16.777344 107.578125 16.863281 C 107.519531 16.777344 107.453125 16.691406 107.394531 16.621094 C 107.355469 16.582031 107.324219 16.542969 107.296875 16.515625 C 107.238281 16.386719 107.167969 16.261719 107.101562 16.15625 C 107.003906 16 106.90625 15.871094 106.828125 15.792969 C 106.738281 15.714844 106.679688 15.6875 106.679688 15.6875 C 106.679688 15.6875 106.730469 15.734375 106.789062 15.824219 C 106.847656 15.910156 106.914062 16.039062 106.972656 16.183594 C 106.972656 16.183594 106.972656 16.183594 106.972656 16.171875 C 106.808594 16 106.632812 15.851562 106.464844 15.726562 C 106.300781 15.597656 106.144531 15.511719 106.027344 15.445312 C 106.007812 15.433594 105.988281 15.425781 105.96875 15.414062 C 105.871094 15.355469 105.785156 15.308594 105.6875 15.269531 C 105.453125 15.160156 105.257812 15.101562 105.160156 15.074219 C 105.082031 15.042969 105.011719 15.015625 104.945312 14.984375 C 104.640625 14.878906 104.40625 14.800781 104.40625 14.800781 L 104.710938 14.984375 C 104.601562 14.9375 104.476562 14.898438 104.371094 14.867188 C 104.039062 14.761719 103.773438 14.695312 103.773438 14.695312 C 103.773438 14.695312 104.222656 14.917969 104.679688 15.171875 C 104.613281 15.152344 104.554688 15.132812 104.484375 15.101562 C 104.28125 15.003906 104.019531 14.917969 103.804688 14.847656 C 103.558594 14.773438 103.375 14.722656 103.375 14.722656 L 103.570312 14.839844 C 102.984375 14.714844 102.417969 14.683594 101.675781 14.734375 C 100.410156 14.800781 99.140625 14.734375 97.734375 15.21875 C 96.332031 15.714844 96.332031 15.851562 96.046875 15.882812 C 95.765625 15.921875 95.414062 16.125 95.101562 16.300781 C 94.789062 16.476562 94.46875 16.71875 93.835938 17.59375 C 93.484375 18.09375 93.433594 18.375 93.453125 18.695312 C 93.308594 19.183594 93.257812 19.777344 93.257812 19.765625 C 93.257812 19.765625 93.257812 19.746094 93.277344 19.699219 C 93.269531 19.785156 93.257812 19.863281 93.257812 19.933594 C 93.25 20.019531 93.257812 20.070312 93.257812 20.097656 C 93.230469 20.339844 93.210938 20.554688 93.191406 20.710938 L 93.179688 20.984375 L 93.230469 20.722656 C 93.230469 20.683594 93.238281 20.644531 93.257812 20.59375 C 93.257812 20.710938 93.269531 20.839844 93.277344 20.945312 C 93.296875 21.121094 93.328125 21.265625 93.355469 21.375 C 93.328125 21.421875 93.289062 21.5 93.296875 21.617188 C 93.296875 21.761719 93.347656 21.949219 93.386719 22.105469 C 93.375 22.296875 93.367188 22.40625 93.367188 22.40625 L 92.945312 22.335938 C 92.945312 22.335938 92.234375 22.40625 91.679688 23.457031 C 91.113281 24.507812 91.609375 25.707031 91.882812 26.503906 C 92.167969 27.3125 92.90625 27.945312 93.015625 28.191406 C 93.113281 28.433594 93.113281 30.15625 92.761719 31.871094 C 92.421875 33.59375 92.34375 36.253906 92.34375 36.253906 C 92.34375 36.253906 92.058594 36.535156 91.328125 36.960938 C 90.585938 37.382812 90.800781 37.703125 90.410156 37.945312 C 90.019531 38.191406 89.640625 38.753906 88.976562 38.890625 C 88.304688 39.027344 87.855469 38.957031 86.480469 38.824219 C 85.105469 38.6875 81.769531 40.128906 80.53125 40.300781 C 79.300781 40.476562 78.734375 41.148438 77.585938 42.015625 C 76.421875 42.902344 67.675781 47.984375 67.429688 48.054688 C 67.175781 48.121094 66.835938 48.160156 64.894531 48.160156 C 62.960938 48.160156 63.382812 47.527344 61.273438 47.070312 C 59.167969 46.613281 58.847656 46.503906 57.023438 46.40625 C 55.199219 46.300781 54.808594 45.570312 52.066406 44.871094 C 49.328125 44.160156 47.289062 43.847656 45.386719 43.359375 C 43.484375 42.863281 38.878906 40.339844 37.972656 39.921875 C 37.066406 39.503906 36.351562 40.03125 35.261719 40.3125 C 34.1875 40.546875 33.269531 41.109375 33.269531 41.109375 C 33.269531 41.109375 31.730469 41.316406 30.84375 41.625 C 29.964844 41.9375 29.292969 43.066406 28.910156 43.59375 C 28.726562 43.847656 28.753906 43.925781 29 44.003906 C 27.097656 45.5625 25.898438 47.9375 25.898438 50.574219 C 25.898438 55.289062 29.71875 59.105469 34.429688 59.105469 C 39.144531 59.105469 42.976562 55.277344 42.976562 50.574219 C 42.976562 49.679688 42.839844 48.8125 42.578125 47.996094 C 42.65625 47.925781 42.722656 47.867188 42.789062 47.820312 C 43.296875 47.488281 43.972656 46.964844 44.214844 46.894531 C 44.457031 46.828125 44.984375 46.71875 45.863281 47.3125 C 46.742188 47.90625 55.355469 53.90625 59.5 55.386719 C 63.644531 56.855469 66.386719 57.351562 66.386719 57.351562 L 66.667969 58.539062 C 66.667969 58.539062 70.328125 58.472656 71.3125 58.191406 C 72.296875 57.90625 73.847656 56.992188 75.808594 57.136719 C 77.777344 57.285156 81.640625 56.582031 81.640625 56.582031 C 81.640625 56.582031 82.550781 59.171875 82.414062 59.523438 C 82.277344 59.882812 81.847656 62.054688 81.074219 64.089844 C 80.304688 66.125 81.074219 66.75 80.304688 68.308594 C 79.535156 69.84375 78.335938 73.214844 78.335938 73.214844 C 78.335938 73.214844 76.511719 75.179688 76.160156 75.601562 C 75.808594 76.019531 76.089844 77.070312 76.089844 77.070312 C 76.089844 77.070312 75.320312 78.121094 74.472656 78.824219 C 73.632812 79.523438 73.136719 79.660156 70.464844 81.207031 C 67.789062 82.746094 62.523438 86.789062 61.890625 87.34375 C 61.253906 87.90625 61.988281 87.976562 61.988281 87.976562 C 61.988281 87.976562 62.203125 88.042969 61.246094 88.648438 C 60.300781 89.242188 58.015625 91.976562 58.015625 91.976562 C 58.015625 91.976562 57.800781 92.183594 56.183594 92.960938 C 54.5625 93.730469 54.777344 94.160156 52.242188 95.492188 C 49.714844 96.828125 48.800781 96.90625 45.921875 99.144531 C 43.042969 101.382812 36.148438 108.550781 36.148438 108.550781 C 36.148438 108.550781 36.003906 108.621094 35.230469 108.96875 C 34.460938 109.320312 33.542969 111.421875 30.597656 114.9375 C 27.644531 118.445312 22.082031 121.8125 21.378906 121.609375 C 20.679688 121.394531 19.761719 122.378906 19.476562 122.933594 C 19.195312 123.496094 17.65625 124.414062 16.53125 125.046875 C 15.410156 125.679688 13.644531 125.882812 13.226562 126.03125 C 12.804688 126.175781 9.285156 125.824219 8.515625 126.808594 C 7.746094 127.792969 12.875 135.085938 14.914062 135.855469 C 16.953125 136.632812 15.480469 135.367188 17.734375 134.949219 C 19.976562 134.53125 19.136719 135.367188 19.976562 134.8125 C 20.816406 134.246094 20.746094 134.035156 21.378906 132.992188 C 22.015625 131.941406 23.066406 131.726562 23.703125 131.171875 C 24.335938 130.617188 24.902344 129.632812 25.457031 128.640625 C 26.023438 127.65625 26.375 127.441406 28.34375 125.902344 C 30.316406 124.363281 39.066406 118.113281 39.980469 117.617188 C 40.898438 117.121094 41.179688 116.632812 41.289062 116.175781 C 41.386719 115.726562 41.960938 115.445312 41.960938 115.445312 C 41.960938 115.445312 44.351562 114.246094 46.59375 112.425781 C 48.847656 110.605469 50.957031 108.21875 52.292969 106.816406 C 53.628906 105.40625 54.679688 104.703125 56.019531 103.9375 C 57.355469 103.167969 57.917969 102.921875 58.582031 102.320312 C 59.246094 101.726562 60.339844 102.007812 62.308594 101.804688 C 64.28125 101.589844 64.980469 101.199219 64.980469 101.199219 C 64.980469 101.199219 66.210938 102.074219 66.210938 102.785156 C 66.210938 103.488281 68.003906 102.367188 68.746094 101.949219 C 69.476562 101.53125 73.136719 101.035156 75.28125 101.421875 C 77.417969 101.8125 77.847656 102.515625 79.503906 102.046875 C 81.152344 101.597656 82.382812 100.050781 82.421875 100.265625 C 82.460938 100.46875 81.964844 102.960938 81.613281 104.898438 C 81.261719 106.828125 81.789062 108.375 82.109375 109.640625 C 82.421875 110.90625 82.109375 111.257812 81.613281 112.835938 C 81.125 114.414062 79.679688 119.992188 79.679688 119.992188 L 79.332031 119.640625 C 79.332031 119.640625 76.792969 116.164062 76.695312 115.855469 C 76.589844 115.53125 76.492188 115.007812 76.695312 113.996094 C 76.902344 112.972656 77.507812 111.328125 77.507812 110.839844 C 77.507812 110.34375 77.410156 107.605469 76.382812 106.769531 C 75.371094 105.933594 73.078125 105.503906 70.933594 106.769531 C 68.785156 108.023438 66.472656 110.382812 66.042969 110.800781 C 65.625 111.21875 64.492188 111.296875 62.738281 112.066406 C 60.984375 112.835938 57.363281 116.835938 56.230469 118.660156 C 55.109375 120.480469 56.300781 122.171875 58.417969 122.902344 C 60.523438 123.644531 63.332031 121.5 64.777344 121.394531 C 66.21875 121.289062 67.3125 120.65625 67.3125 120.65625 C 67.3125 120.65625 68.542969 121.53125 69.246094 122.230469 C 69.945312 122.933594 71.214844 122.339844 71.429688 122.339844 C 71.632812 122.339844 72.679688 123.246094 73.078125 123.789062 C 73.488281 124.335938 73.339844 124.199219 73.515625 124.878906 C 73.691406 125.570312 76.101562 129.515625 76.101562 129.515625 C 76.101562 129.515625 76.101562 129.652344 76.167969 131.269531 C 76.238281 132.882812 77.222656 137.089844 79.046875 137.585938 C 80.871094 138.085938 84.8125 136.875 87.066406 134.636719 C 89.308594 132.398438 90.089844 129.378906 90.859375 128.746094 C 91.640625 128.121094 93.53125 124.394531 93.53125 124.394531 C 93.53125 124.394531 95.707031 125.027344 96.273438 125.027344 C 96.839844 125.027344 96.691406 123.691406 97.042969 122.152344 C 97.394531 120.605469 99.960938 115.414062 100.203125 114.851562 C 100.449219 114.296875 101.011719 113.625 101.636719 111.65625 C 102.273438 109.699219 105.121094 99.621094 105.472656 98.152344 C 105.824219 96.671875 106.671875 97.03125 107.441406 93.585938 C 108.210938 90.148438 107.304688 84.742188 107.375 84.394531 C 107.441406 84.042969 107.859375 82.707031 107.859375 82.707031 L 111.097656 82.007812 C 111.097656 82.007812 112.152344 79.894531 112.007812 78.003906 C 111.871094 76.117188 111.800781 75.132812 112.289062 72.816406 C 112.785156 70.488281 115.382812 62.5625 115.167969 59.691406 C 114.960938 56.816406 114.394531 55.832031 114.191406 54.011719 C 113.976562 52.191406 113.585938 47.519531 113.585938 47.519531 C 113.585938 47.519531 114.152344 47.273438 114.921875 46.953125 C 115.695312 46.640625 116.191406 46.710938 116.648438 46.359375 C 117.097656 46.007812 117.246094 45.871094 118.367188 45.550781 C 119.488281 45.238281 121.203125 44.917969 121.742188 44.890625 C 122.269531 44.851562 122.375 44.082031 122.445312 43.730469 C 122.511719 43.378906 123.703125 43.339844 123.703125 43.339844 C 123.703125 43.339844 125.253906 43.273438 126.089844 42.953125 C 126.929688 42.628906 128.207031 43.300781 129.359375 43.371094 C 130.519531 43.4375 130.558594 43.058594 131.503906 41.996094 C 132.453125 40.945312 134.238281 37.613281 134.238281 37.613281 C 134.238281 37.613281 134.625 37.507812 134.800781 36.671875 C 134.976562 35.832031 135.464844 33.867188 135.503906 33.097656 C 135.535156 32.316406 135.4375 31.859375 135.4375 31.859375 C 135.4375 31.859375 136.421875 31.089844 136.910156 28.734375 C 137.398438 26.386719 137.464844 26.210938 137.679688 25.753906 C 137.894531 25.296875 138.265625 24.597656 138.265625 24.597656 C 138.265625 24.597656 138.859375 24.34375 139.582031 24.34375 C 140.292969 24.34375 140.507812 24.644531 141.160156 24.90625 C 141.816406 25.171875 142 25.210938 142.273438 24.90625 C 142.566406 24.585938 142.410156 23.984375 141.601562 23.507812 Z M 141.601562 23.507812 " fill-opacity="1" fill-rule="nonzero"/></g></svg>