<svg xmlns="http://www.w3.org/2000/svg" xmlns:xlink="http://www.w3.org/1999/xlink" width="200" zoomAndPan="magnify" viewBox="0 0 150 149.999998" height="200" preserveAspectRatio="xMidYMid meet" version="1.0"><defs><clipPath id="id1"><path d="M 4 2.511719 L 146 2.511719 L 146 147.261719 L 4 147.261719 Z M 4 2.511719 " clip-rule="nonzero"/></clipPath></defs><g clip-path="url(#id1)"><path fill="#000000" d="M 143.496094 8.449219 L 130.710938 2.808594 C 129.828125 2.414062 128.792969 2.390625 127.882812 2.734375 C 126.976562 3.078125 126.238281 3.789062 125.84375 4.671875 L 78.820312 110.976562 L 26.777344 107.371094 C 16.898438 106.4375 7.925781 112.695312 5.441406 122.3125 C 3.894531 128.347656 5.195312 134.628906 9.03125 139.535156 C 12.863281 144.441406 18.617188 147.261719 24.859375 147.261719 L 73.066406 147.261719 C 81.007812 147.261719 88.183594 142.578125 91.378906 135.339844 L 145.363281 13.308594 C 146.199219 11.445312 145.363281 9.285156 143.496094 8.449219 Z M 143.496094 8.449219 " fill-opacity="1" fill-rule="nonzero"/></g><path fill="#000000" d="M 45.929688 79.058594 C 55.859375 79.058594 78.941406 78.078125 78.941406 69.023438 L 78.941406 54.597656 C 78.941406 45.519531 55.859375 44.5625 45.929688 44.5625 C 36.265625 44.5625 14.167969 45.519531 13.039062 53.960938 C 12.964844 54.132812 12.9375 54.328125 12.9375 54.625 L 12.9375 69.050781 C 12.914062 78.078125 35.996094 79.058594 45.929688 79.058594 Z M 20.289062 61.589844 C 27.910156 64.242188 39.585938 64.632812 45.929688 64.632812 C 52.269531 64.632812 63.921875 64.214844 71.566406 61.589844 L 71.566406 68.09375 C 69.28125 69.515625 60.429688 71.722656 45.929688 71.722656 C 31.425781 71.722656 22.574219 69.515625 20.289062 68.09375 Z M 20.289062 61.589844 " fill-opacity="1" fill-rule="nonzero"/></svg>