<svg xmlns="http://www.w3.org/2000/svg" xmlns:xlink="http://www.w3.org/1999/xlink" width="200" zoomAndPan="magnify" viewBox="0 0 150 149.999998" height="200" preserveAspectRatio="xMidYMid meet" version="1.0"><defs><clipPath id="id1"><path d="M 11.113281 35.335938 L 94 35.335938 L 94 114.835938 L 11.113281 114.835938 Z M 11.113281 35.335938 " clip-rule="nonzero"/></clipPath><clipPath id="id2"><path d="M 66 39 L 138.613281 39 L 138.613281 114.835938 L 66 114.835938 Z M 66 39 " clip-rule="nonzero"/></clipPath></defs><g clip-path="url(#id1)"><path fill="#000000" d="M 64.835938 61.050781 C 61.050781 63.089844 57.96875 63.394531 55.839844 64.519531 C 55.839844 64.519531 55.328125 65.363281 55.125 66.5 C 54.921875 67.640625 53.25 76.78125 53.285156 76.949219 C 53.320312 77.121094 53.046875 77.226562 52.914062 77.289062 C 52.78125 77.359375 52.542969 80.566406 52.234375 82.472656 C 51.925781 84.375 50.910156 87.433594 51.085938 89.304688 C 51.253906 91.175781 51.980469 101.203125 51.980469 101.203125 C 51.980469 101.203125 51.933594 101.476562 51.121094 101.792969 C 50.308594 102.117188 43.511719 103.003906 43.511719 103.003906 C 43.511719 103.003906 42.804688 107.695312 42.851562 108.628906 C 42.902344 109.566406 42.9375 111.578125 43.007812 111.863281 C 43.074219 112.152344 43.441406 113.335938 42.804688 113.960938 C 42.164062 114.585938 40.042969 114.332031 38.929688 114.183594 C 37.816406 114.03125 37.839844 114.191406 37.003906 114.382812 C 36.164062 114.570312 34.695312 114.570312 34.40625 114.558594 C 34.121094 114.550781 33.261719 114.789062 32.839844 114.769531 C 32.414062 114.753906 31.804688 114.65625 31.804688 114.65625 C 31.804688 114.65625 31.664062 114.691406 31.445312 114.628906 C 31.230469 114.558594 31.125 114.390625 31.144531 114.144531 C 31.171875 113.898438 31.472656 113.847656 31.550781 113.726562 C 31.628906 113.609375 31.929688 113.109375 32.460938 112.96875 C 32.992188 112.835938 34.164062 112.636719 34.976562 112.203125 C 35.789062 111.765625 36.199219 111.105469 37.207031 110.558594 C 38.21875 110 38.503906 109.171875 38.714844 108.390625 C 38.925781 107.609375 39.050781 103.699219 39.050781 103.699219 C 39.050781 103.699219 38.769531 103.589844 38.617188 103.460938 C 38.460938 103.335938 38.726562 97.660156 38.691406 96.640625 C 38.65625 95.621094 38.421875 93.277344 38.589844 91.648438 C 38.757812 90.015625 38.792969 90.21875 38.859375 88.6875 C 38.929688 87.152344 38.386719 85.867188 38.621094 84.199219 C 38.859375 82.535156 39.09375 82.402344 39.195312 81.550781 C 39.300781 80.699219 39.636719 77.660156 39.636719 77.660156 C 39.636719 77.660156 39.492188 77.703125 38.992188 77.546875 C 38.496094 77.394531 37.984375 77.175781 37.851562 77.148438 C 37.71875 77.121094 37.691406 77.230469 37.285156 77.359375 C 36.878906 77.484375 36.269531 77.429688 36.160156 76.984375 C 36.046875 76.542969 35.90625 75.082031 35.90625 75.082031 C 35.90625 75.082031 35.863281 75.039062 35.464844 74.882812 C 35.066406 74.730469 33.085938 74.292969 33.085938 74.292969 C 33.085938 74.292969 33.070312 74.292969 32.910156 74.546875 C 32.75 74.800781 32.546875 74.910156 32.546875 74.910156 C 32.546875 74.910156 30.3125 74.671875 28.722656 74.46875 C 27.132812 74.265625 27.195312 73.414062 26.390625 73.246094 C 25.578125 73.078125 25.207031 73.449219 24.359375 73.351562 C 23.511719 73.246094 23.074219 73.148438 22.332031 72.4375 C 21.589844 71.71875 17.371094 66.964844 17.359375 66.472656 C 17.34375 65.980469 17.597656 65.777344 17.953125 64.335938 C 18.3125 62.894531 18.613281 61.3125 18.613281 61.3125 C 18.613281 61.3125 18.101562 60.511719 17.96875 59.777344 C 17.835938 59.046875 17.835938 58.949219 17.765625 58.808594 C 17.695312 58.675781 16.953125 58.183594 16.953125 58.183594 C 16.953125 58.183594 16.730469 58.351562 16.140625 58.589844 C 15.550781 58.828125 14.851562 58.253906 14.46875 58.160156 C 14.074219 58.078125 13.453125 57.585938 13.402344 57.226562 C 13.355469 56.867188 13.472656 56.628906 13.472656 56.628906 C 13.472656 56.628906 11.085938 53.992188 11.261719 52.65625 C 11.429688 51.3125 11.882812 49.117188 13.375 48.289062 C 14.867188 47.457031 16.777344 47.507812 18.023438 47.84375 C 19.277344 48.183594 19.957031 49.1875 20.242188 49.476562 C 20.53125 49.765625 20.734375 50.023438 20.902344 50.328125 C 21.070312 50.636719 21.308594 50.699219 21.796875 51.074219 C 22.289062 51.445312 23.101562 53.0625 23.101562 53.0625 C 23.101562 53.0625 23.863281 52.523438 24.355469 52.246094 C 24.84375 51.972656 24.84375 51.890625 25.320312 51.347656 C 25.789062 50.796875 28.132812 47.796875 28.503906 47.640625 C 28.875 47.488281 30.046875 47.199219 31.277344 46.925781 C 32.511719 46.648438 32.546875 46.621094 33.546875 46.566406 C 34.546875 46.515625 35.492188 46.171875 37.859375 45.582031 C 40.226562 44.984375 42.929688 44.246094 43.203125 44.21875 C 43.476562 44.1875 43.539062 44.1875 43.71875 44.125 C 43.894531 44.0625 44.238281 43.84375 44.863281 43.597656 C 45.492188 43.351562 47.453125 43.148438 47.453125 43.148438 C 47.453125 43.148438 47.488281 42.84375 47.824219 42.726562 C 48.160156 42.605469 48.851562 42.234375 49.28125 42.066406 C 49.707031 41.894531 49.707031 42.050781 49.839844 42.066406 C 49.972656 42.078125 50.363281 41.945312 50.6875 41.960938 C 51.007812 41.972656 51.078125 42.4375 51.210938 42.4375 C 51.34375 42.4375 54.964844 40.734375 55.34375 40.382812 C 55.714844 40.027344 55.882812 38.597656 56.191406 38.273438 C 56.492188 37.953125 56.835938 38.105469 57.003906 38.070312 C 57.171875 38.035156 57.476562 37.445312 57.914062 37.277344 C 58.355469 37.109375 59.585938 37.277344 59.957031 37.566406 C 60.328125 37.851562 60.160156 38.386719 60.160156 38.386719 C 60.160156 38.386719 60.441406 38.519531 60.683594 38.851562 C 60.929688 39.183594 60.671875 39.695312 60.671875 39.695312 C 60.671875 39.695312 60.980469 39.933594 60.984375 40.371094 C 60.992188 40.8125 60.714844 40.863281 60.714844 40.863281 C 60.714844 40.863281 60.886719 41.109375 60.816406 41.59375 C 60.742188 42.078125 60.089844 42.121094 60.089844 42.121094 C 60.089844 42.121094 60.054688 42.191406 59.664062 42.515625 C 59.269531 42.839844 57.652344 43.210938 57.5 43.246094 C 57.34375 43.28125 57.09375 43.28125 56.757812 43.535156 C 56.421875 43.789062 53.355469 45.523438 53.222656 45.742188 C 53.089844 45.96875 53.4375 46.714844 53.628906 46.980469 C 53.816406 47.253906 51.238281 48.289062 50.917969 48.359375 C 50.597656 48.429688 49.027344 49.210938 48.0625 49.917969 C 47.09375 50.628906 46.570312 50.75 45.625 50.953125 C 44.679688 51.15625 42.125 52.804688 42.125 52.804688 C 42.125 52.804688 42.613281 53.605469 43.273438 53.753906 C 43.929688 53.90625 43.980469 54.144531 44.40625 54.179688 C 44.828125 54.214844 44.714844 53.824219 45.351562 53.535156 C 45.996094 53.246094 45.910156 53.859375 46.773438 53.195312 C 47.632812 52.535156 55.65625 50.089844 56.535156 49.984375 C 57.414062 49.878906 57.546875 50.152344 58.121094 50.152344 C 58.695312 50.152344 59.914062 49.644531 61.132812 49.238281 C 62.351562 48.828125 62.828125 48.757812 63.269531 48.085938 C 63.710938 47.410156 64.046875 47.578125 65.195312 46.824219 C 66.34375 46.082031 66.785156 45.433594 69.828125 43.5625 C 72.875 41.691406 78.355469 39.351562 78.355469 39.351562 C 78.355469 39.351562 78.796875 38.738281 79.132812 38.4375 C 79.46875 38.128906 81.640625 37.488281 81.878906 37.453125 C 82.117188 37.417969 82.417969 37.761719 82.417969 37.761719 C 82.417969 37.761719 82.621094 38 83.097656 37.964844 C 83.574219 37.929688 87.292969 36.945312 87.648438 36.792969 C 88.003906 36.636719 88.410156 36.433594 88.78125 36.347656 C 89.152344 36.265625 89.292969 36.433594 89.664062 36.46875 C 90.035156 36.503906 90.988281 35.941406 91.675781 35.652344 C 92.367188 35.363281 92.878906 35.460938 93.082031 35.636719 C 93.285156 35.804688 93.488281 36.796875 93.523438 36.980469 C 93.558594 37.15625 93.605469 37.234375 93.65625 37.710938 C 93.703125 38.191406 93.621094 39.933594 93.503906 40.363281 C 93.382812 40.785156 93.332031 42.09375 92.976562 42.535156 C 92.621094 42.980469 91.960938 42.621094 91.808594 42.691406 C 91.652344 42.761719 90.625 42.878906 90.183594 42.296875 C 89.742188 41.71875 90.132812 41.144531 90.132812 41.144531 C 90.132812 41.144531 89.824219 41.074219 89.488281 41.011719 C 89.152344 40.941406 87.664062 40.582031 86.984375 40.699219 C 86.3125 40.820312 83.699219 42.078125 83.699219 42.078125 C 83.699219 42.078125 84.15625 46.46875 84.414062 47.007812 C 84.664062 47.550781 84.617188 48.710938 83.53125 49.320312 C 82.445312 49.933594 80.820312 50.136719 79 50.882812 C 77.175781 51.628906 73.722656 55.503906 72.980469 55.945312 C 72.238281 56.390625 71.894531 56.59375 70.304688 57.683594 C 68.695312 58.773438 68.625 59.011719 64.835938 61.050781 Z M 64.835938 61.050781 " fill-opacity="1" fill-rule="evenodd"/></g><g clip-path="url(#id2)"><path fill="#000000" d="M 78.53125 45.125 C 78.113281 44.957031 75.640625 44.238281 75.1875 43.832031 C 74.730469 43.421875 74.675781 43.371094 73.96875 43.21875 C 73.253906 43.0625 71.910156 42.316406 71.339844 42.066406 C 70.773438 41.8125 69.667969 40.953125 69.09375 40.695312 C 68.519531 40.441406 67.492188 39.984375 67.246094 40.003906 C 67 40.03125 66.917969 40.132812 66.917969 40.132812 C 66.917969 40.132812 66.328125 39.984375 66.175781 40.101562 C 66.019531 40.222656 66.140625 40.574219 66.140625 40.574219 C 66.140625 40.574219 66.042969 40.730469 66.078125 41.015625 C 66.113281 41.304688 66.609375 41.671875 66.609375 41.671875 C 66.609375 41.671875 66.550781 41.859375 66.820312 42.183594 C 67.089844 42.507812 67.597656 42.480469 67.792969 42.628906 C 67.988281 42.773438 68.414062 43.054688 68.644531 43.226562 C 68.878906 43.394531 69.492188 43.921875 69.492188 43.921875 C 69.492188 43.921875 69.996094 44.449219 70.355469 44.667969 C 70.71875 44.886719 70.675781 44.792969 71.097656 45.195312 C 71.523438 45.59375 72.679688 46.085938 73.246094 46.207031 C 73.8125 46.328125 74.007812 46.3125 74.09375 46.328125 C 74.175781 46.339844 76.867188 48.097656 76.867188 48.097656 C 76.867188 48.097656 77.414062 51.960938 77.789062 52.28125 C 78.160156 52.605469 79.113281 52.773438 79.605469 52.738281 C 80.09375 52.703125 80.3125 52.632812 80.3125 52.632812 C 80.3125 52.632812 82.542969 54.589844 83.882812 55.320312 C 85.21875 56.050781 85.316406 56.113281 86.304688 57.035156 C 87.285156 57.957031 86.640625 57.816406 88.550781 58.871094 C 90.464844 59.925781 92.480469 61.164062 92.480469 61.164062 C 92.480469 61.164062 93.683594 62.472656 93.984375 64.449219 C 94.285156 66.417969 94.523438 68.117188 95.070312 69.34375 C 95.609375 70.566406 95.105469 71.070312 95.476562 72.027344 C 95.847656 72.976562 96.421875 73.660156 96.421875 73.660156 L 96.554688 76.175781 C 96.554688 76.175781 94.355469 78.097656 94.203125 78.351562 C 94.046875 78.601562 94.714844 78.300781 93.507812 78.742188 C 92.304688 79.1875 91.835938 79.882812 91.324219 80.460938 C 90.8125 81.035156 90.464844 81.339844 90.464844 81.339844 C 90.464844 81.339844 84.566406 86.367188 83.882812 87.238281 C 83.195312 88.105469 82.152344 88.355469 81.746094 89.839844 C 81.339844 91.316406 81.390625 91.976562 81.136719 93.433594 C 80.886719 94.890625 79.8125 101.308594 79.703125 101.730469 C 79.589844 102.152344 79.15625 102.574219 78.996094 102.984375 C 78.828125 103.390625 78.460938 103.875 78.726562 104.425781 C 78.996094 104.972656 79.132812 106.402344 80.304688 106.824219 C 81.472656 107.246094 83.316406 107.421875 83.316406 107.421875 C 83.316406 107.421875 83.265625 108.785156 83.035156 109.039062 C 82.804688 109.289062 81.402344 110.667969 80.976562 111.175781 C 80.542969 111.683594 80.28125 111.773438 79.738281 111.949219 C 79.191406 112.125 78.867188 112.109375 78.496094 112.398438 C 78.125 112.6875 77.921875 113.023438 77.984375 113.214844 C 78.050781 113.40625 78.230469 113.410156 78.230469 113.410156 C 78.230469 113.410156 78.308594 113.582031 78.40625 113.644531 C 78.511719 113.707031 78.609375 113.707031 78.660156 113.734375 C 78.707031 113.761719 78.8125 113.890625 79.070312 113.890625 C 79.324219 113.890625 79.457031 113.898438 79.535156 113.945312 C 79.609375 113.996094 80.144531 114.214844 80.402344 114.226562 C 80.660156 114.242188 81.492188 114.074219 81.632812 113.980469 C 81.773438 113.890625 81.824219 113.855469 81.824219 113.855469 C 81.824219 113.855469 82.132812 113.847656 82.648438 113.609375 C 83.167969 113.371094 83.355469 113.171875 83.519531 113.109375 C 83.6875 113.046875 84.820312 112.8125 85.871094 112.800781 C 86.921875 112.785156 87.410156 112.566406 87.4375 112.152344 C 87.464844 111.738281 86.550781 111.238281 86.613281 109.578125 C 86.675781 107.917969 86.421875 107.539062 86.71875 107.554688 C 87.011719 107.566406 87.480469 107.589844 87.621094 107.210938 C 87.761719 106.824219 88.074219 105.71875 88.046875 105.5625 C 88.019531 105.410156 87.84375 105.050781 87.84375 105.050781 C 87.84375 105.050781 89.203125 102.679688 89.496094 101.914062 C 89.792969 101.148438 89.839844 100.84375 90.246094 100.421875 C 90.652344 100 90.792969 99.433594 90.871094 98.804688 C 90.945312 98.179688 91.164062 97.660156 91.164062 97.660156 C 91.164062 97.660156 98.667969 91.121094 99.453125 90.613281 C 100.238281 90.101562 100.453125 89.898438 100.453125 89.898438 C 100.453125 89.898438 100.175781 95.042969 100.785156 94.945312 C 101.394531 94.839844 102.332031 94.820312 102.378906 94.558594 C 102.429688 94.304688 102.40625 90.25 102.457031 90.023438 C 102.507812 89.792969 104.363281 90.332031 106.363281 90.382812 C 108.367188 90.429688 109.660156 90.050781 109.816406 90.128906 C 109.96875 90.207031 111.0625 91.480469 111.0625 91.480469 C 111.0625 91.480469 110.734375 93.847656 111.1875 93.875 C 111.644531 93.90625 112.484375 93.875 112.484375 93.875 L 112.636719 93.160156 C 112.636719 93.160156 118.421875 98.308594 120.277344 100.527344 C 122.125 102.742188 123.042969 104.046875 124.132812 105.628906 C 125.226562 107.210938 125.101562 107.105469 125.378906 108.152344 C 125.660156 109.199219 125.410156 109.859375 126.492188 109.964844 C 127.585938 110.0625 130.378906 109.886719 131.242188 109.101562 C 132.101562 108.3125 132.789062 107.828125 132.789062 107.828125 C 132.789062 107.828125 133.558594 109.410156 133.613281 110.070312 C 133.664062 110.734375 133.097656 111.828125 132.664062 112.34375 C 132.226562 112.847656 131.773438 113.320312 131.925781 113.734375 C 132.082031 114.144531 132.753906 114.375 133.066406 114.296875 C 133.382812 114.21875 133.460938 114.15625 133.539062 114.191406 C 133.613281 114.226562 134.179688 114.523438 134.398438 114.4375 C 134.617188 114.347656 134.753906 114.261719 134.753906 114.261719 C 134.753906 114.261719 135.226562 114.464844 135.519531 114.324219 C 135.8125 114.183594 135.875 114.007812 135.875 114.007812 C 135.875 114.007812 136.234375 114.136719 136.535156 114.074219 C 136.84375 114.007812 137.179688 113.757812 137.179688 113.757812 C 137.179688 113.757812 137.5625 113.679688 138.019531 113.195312 C 138.472656 112.707031 138.59375 111.464844 138.464844 111.261719 C 138.332031 111.0625 137.871094 110.507812 137.871094 110.507812 C 137.871094 110.507812 137.382812 109.777344 137.285156 108.972656 C 137.179688 108.171875 137.039062 107.90625 136.675781 107.503906 C 136.304688 107.109375 136.253906 107.160156 136.101562 106.828125 C 135.945312 106.5 135.492188 105.71875 135.492188 105.71875 C 135.492188 105.71875 135.722656 104.417969 135.316406 103.523438 C 134.910156 102.632812 134.144531 101.816406 134.070312 101.773438 C 133.992188 101.738281 131.367188 96.738281 130.058594 95.917969 C 128.75 95.085938 128.007812 94.859375 127.804688 94.488281 C 127.601562 94.117188 126.304688 91.097656 125.554688 89.890625 C 124.804688 88.679688 124.226562 88.117188 123.964844 87.757812 C 123.714844 87.398438 122.480469 86.691406 121.773438 84.339844 C 121.066406 81.992188 119.820312 80.183594 119.210938 79.292969 C 118.601562 78.398438 118.476562 77.835938 117.945312 77.175781 C 117.414062 76.515625 116.675781 76.183594 116.242188 76.03125 C 115.808594 75.875 115.277344 75.59375 115.277344 75.59375 L 115.304688 74.496094 C 115.304688 74.496094 115.746094 74.566406 116.109375 74.863281 C 116.472656 75.15625 116.773438 75.3125 117.125 75.234375 C 117.476562 75.15625 117.316406 75.058594 117.804688 75.144531 C 118.292969 75.234375 118.492188 75.128906 118.609375 74.945312 C 118.730469 74.765625 118.777344 74.617188 118.777344 74.617188 C 118.777344 74.617188 118.828125 73.640625 118.777344 73.351562 C 118.730469 73.054688 118.75 72.898438 118.867188 72.765625 C 118.980469 72.625 119.316406 72.105469 119.226562 71.796875 C 119.136719 71.488281 118.917969 71.386719 118.917969 71.386719 C 118.917969 71.386719 119.605469 69.96875 119.625 69.460938 C 119.644531 68.957031 119.644531 68.429688 119.519531 68.324219 C 119.402344 68.21875 119.351562 68.140625 119.351562 68.140625 C 119.351562 68.140625 119.371094 66.394531 119.28125 65.832031 C 119.191406 65.269531 119.03125 65.460938 119.066406 64.96875 C 119.101562 64.46875 119.660156 63.695312 119.765625 63.238281 C 119.863281 62.78125 119.6875 62.042969 119.660156 61.964844 C 119.632812 61.886719 119.472656 60.511719 119 59.90625 C 118.53125 59.292969 118.546875 58.292969 117.921875 57.367188 C 117.300781 56.4375 116.984375 56.332031 116.769531 55.75 C 116.550781 55.164062 116.3125 54.433594 115.738281 54.144531 C 115.164062 53.851562 113.847656 52.910156 112.972656 52.859375 C 112.097656 52.808594 112.0625 52.9375 111.398438 52.5625 C 110.738281 52.191406 110.277344 51.964844 110.277344 51.964844 C 110.277344 51.964844 109.492188 49.941406 109.226562 49.722656 C 108.960938 49.503906 108.800781 49.617188 108.816406 49.492188 C 108.828125 49.363281 108.84375 48.296875 109.046875 47.726562 C 109.25 47.148438 109.710938 45.160156 109.558594 43.675781 C 109.402344 42.199219 108.511719 40.273438 107.105469 39.5625 C 105.699219 38.84375 102.90625 39.140625 101.722656 39.855469 C 100.539062 40.566406 99.71875 42.191406 99.613281 42.839844 C 99.507812 43.484375 99.4375 43.816406 99.347656 44.035156 C 99.257812 44.253906 99.363281 44.730469 99.460938 44.851562 C 99.566406 44.960938 99.628906 45.136719 99.621094 45.160156 C 99.613281 45.179688 99.605469 45.320312 99.671875 45.46875 C 99.726562 45.617188 99.753906 45.664062 99.753906 45.664062 C 99.753906 45.664062 99.621094 46.390625 99.65625 46.683594 C 99.691406 46.980469 99.796875 47.09375 99.746094 47.242188 C 99.691406 47.386719 99.566406 47.410156 99.65625 47.578125 C 99.746094 47.746094 100.027344 47.957031 100.027344 47.957031 C 100.027344 47.957031 100.125 48.308594 100.222656 48.675781 C 100.320312 49.046875 100.230469 49.222656 100.390625 49.582031 C 100.546875 49.941406 101.085938 50.980469 101.085938 51.023438 C 101.085938 51.058594 100.734375 51.144531 100.414062 51.355469 C 100.089844 51.566406 99.78125 51.761719 99.648438 51.789062 C 99.515625 51.820312 98.683594 51.078125 97.933594 51.015625 C 97.183594 50.953125 96.960938 50.863281 95.839844 50.671875 C 94.726562 50.480469 94.683594 50.566406 93.402344 50.328125 C 92.121094 50.082031 91.667969 50.300781 91.476562 50.152344 C 91.289062 49.996094 84.839844 46.796875 83.246094 46.261719 C 81.648438 45.730469 81.390625 45.980469 80.988281 45.601562 C 80.582031 45.214844 79.210938 44.597656 78.925781 44.582031 C 78.636719 44.535156 78.53125 45.125 78.53125 45.125 Z M 78.53125 45.125 " fill-opacity="1" fill-rule="evenodd"/></g></svg>