<svg xmlns="http://www.w3.org/2000/svg" xmlns:xlink="http://www.w3.org/1999/xlink" width="200" zoomAndPan="magnify" viewBox="0 0 150 149.999998" height="200" preserveAspectRatio="xMidYMid meet" version="1.0"><defs><clipPath id="id1"><path d="M 5.046875 33.226562 L 145.296875 33.226562 L 145.296875 116.476562 L 5.046875 116.476562 Z M 5.046875 33.226562 " clip-rule="nonzero"/></clipPath></defs><g clip-path="url(#id1)"><path fill="#040606" d="M 124.460938 112.34375 C 115.273438 112.34375 107.796875 104.910156 107.796875 95.777344 C 107.796875 90.558594 110.242188 85.90625 114.046875 82.867188 L 118.8125 91.296875 C 117.820312 92.53125 117.203125 94.074219 117.203125 95.777344 C 117.203125 99.757812 120.453125 102.988281 124.460938 102.988281 C 128.46875 102.988281 131.71875 99.757812 131.71875 95.777344 C 131.71875 91.84375 128.550781 88.664062 124.617188 88.578125 L 120.800781 79.628906 C 121.980469 79.363281 123.199219 79.210938 124.460938 79.210938 C 133.652344 79.210938 141.128906 86.640625 141.128906 95.777344 C 141.128906 104.910156 133.652344 112.34375 124.460938 112.34375 Z M 109.183594 72.625 C 109.382812 72.417969 109.578125 72.199219 109.78125 72 C 109.875 71.902344 109.96875 71.816406 110.0625 71.726562 C 109.597656 72.183594 109.132812 72.667969 108.675781 73.175781 C 108.84375 72.988281 109.015625 72.808594 109.183594 72.625 Z M 65.023438 99.886719 C 63.59375 99.886719 61.695312 98.742188 61.035156 97.488281 L 57.535156 90.832031 C 58.214844 90.101562 58.90625 89.367188 59.628906 88.644531 C 60.917969 87.464844 62.179688 86.203125 63.5625 85.046875 C 66.320312 82.726562 69.261719 80.480469 72.414062 78.511719 C 73.199219 78.019531 73.988281 77.523438 74.777344 77.027344 L 77.21875 75.667969 C 78.828125 74.730469 80.519531 73.949219 82.183594 73.132812 C 83.851562 72.324219 85.570312 71.640625 87.246094 70.917969 C 88.964844 70.289062 90.640625 69.585938 92.355469 69.046875 C 95.75 67.875 99.132812 66.949219 102.421875 66.15625 C 105.707031 65.382812 108.894531 64.761719 111.929688 64.300781 C 113.5625 64.035156 115.140625 63.832031 116.671875 63.65625 C 115.757812 64.324219 114.875 64.925781 114.144531 65.425781 L 113.417969 65.917969 C 111.429688 67.285156 109.34375 69.007812 107.363281 71.113281 C 106.410156 71.503906 105.457031 71.886719 104.496094 72.308594 C 101.582031 73.609375 98.628906 75.042969 95.761719 76.671875 C 94.300781 77.445312 92.914062 78.363281 91.488281 79.203125 C 90.117188 80.128906 88.710938 81.011719 87.386719 81.988281 C 86.070312 82.976562 84.730469 83.917969 83.503906 84.984375 L 81.636719 86.527344 L 79.886719 88.152344 C 77.550781 90.296875 75.492188 92.601562 73.621094 94.871094 C 72.6875 96.007812 71.882812 97.210938 71.035156 98.328125 C 70.683594 98.839844 70.351562 99.355469 70.027344 99.871094 Z M 34.71875 54.175781 L 35.660156 57.671875 C 35.898438 58.558594 36.828125 59.390625 37.738281 59.542969 L 64.308594 63.96875 C 65.21875 64.117188 66.1875 63.535156 66.472656 62.667969 L 68.140625 57.613281 C 69.09375 57.480469 70.011719 57.207031 70.882812 56.828125 L 68.714844 63.398438 C 68.144531 65.125 66.453125 66.335938 64.601562 66.335938 C 64.375 66.335938 64.148438 66.316406 63.921875 66.277344 L 37.347656 61.851562 C 35.527344 61.550781 33.859375 60.046875 33.382812 58.277344 L 31.453125 51.105469 C 31.460938 51.113281 31.484375 51.128906 31.492188 51.136719 C 32.058594 52.390625 33.289062 53.421875 34.71875 54.175781 Z M 109.8125 52.738281 C 109.773438 52.757812 109.726562 52.765625 109.679688 52.78125 C 109.515625 52.832031 109.339844 52.871094 109.164062 52.882812 C 109.132812 52.886719 109.097656 52.878906 109.0625 52.878906 C 109.316406 52.878906 109.574219 52.824219 109.8125 52.738281 Z M 109.914062 52.707031 C 109.902344 52.710938 109.890625 52.714844 109.882812 52.71875 C 110.128906 52.617188 110.359375 52.472656 110.542969 52.273438 C 110.371094 52.464844 110.148438 52.601562 109.914062 52.707031 Z M 113.039062 69.117188 C 112.648438 69.421875 112.257812 69.738281 111.863281 70.074219 C 112.257812 69.738281 112.648438 69.421875 113.039062 69.117188 Z M 110.40625 71.394531 C 110.617188 71.195312 110.824219 70.988281 111.03125 70.800781 C 111.207031 70.640625 111.378906 70.496094 111.554688 70.34375 C 111.132812 70.714844 110.710938 71.101562 110.289062 71.507812 C 110.328125 71.46875 110.371094 71.429688 110.40625 71.394531 Z M 27.265625 111.515625 C 26.980469 111.527344 26.695312 111.539062 26.417969 111.539062 C 17.535156 111.539062 10.230469 104.625 9.785156 95.796875 C 9.328125 86.675781 16.417969 78.882812 25.597656 78.425781 C 25.882812 78.410156 26.167969 78.402344 26.449219 78.402344 C 32.078125 78.402344 37.070312 81.1875 40.085938 85.46875 L 31.261719 89.621094 C 29.976562 88.476562 28.292969 87.757812 26.429688 87.757812 C 22.421875 87.757812 19.175781 90.988281 19.175781 94.96875 C 19.175781 98.953125 22.421875 102.179688 26.429688 102.179688 C 29.695312 102.179688 32.421875 100.027344 33.332031 97.082031 L 43.078125 95.714844 C 42.699219 104.144531 35.910156 111.082031 27.265625 111.515625 Z M 124.460938 75.066406 C 122.625 75.066406 120.847656 75.328125 119.152344 75.769531 L 115.542969 67.3125 C 115.269531 67.496094 115.007812 67.675781 114.757812 67.847656 C 114.292969 68.164062 113.820312 68.511719 113.339844 68.878906 C 113.378906 68.847656 113.421875 68.8125 113.460938 68.78125 C 113.460938 68.78125 113.460938 68.785156 113.460938 68.785156 C 113.898438 68.453125 114.332031 68.136719 114.757812 67.847656 C 115.203125 67.539062 115.695312 67.207031 116.207031 66.859375 C 118.011719 65.617188 120.109375 64.121094 121.777344 62.460938 C 121.789062 62.449219 121.800781 62.4375 121.8125 62.425781 C 122.046875 62.191406 122.277344 61.949219 122.492188 61.707031 C 122.523438 61.671875 122.554688 61.640625 122.582031 61.609375 C 122.777344 61.386719 122.957031 61.160156 123.132812 60.933594 C 123.148438 60.917969 123.160156 60.902344 123.171875 60.882812 C 123.199219 60.847656 123.230469 60.8125 123.253906 60.777344 C 123.410156 60.566406 123.550781 60.355469 123.683594 60.140625 C 123.730469 60.074219 123.78125 60.003906 123.820312 59.933594 C 123.9375 59.730469 124.042969 59.527344 124.140625 59.324219 C 124.179688 59.242188 124.226562 59.164062 124.261719 59.082031 C 124.304688 58.988281 124.335938 58.894531 124.371094 58.800781 C 124.398438 58.730469 124.417969 58.660156 124.445312 58.589844 C 124.457031 58.554688 124.46875 58.519531 124.480469 58.480469 C 124.511719 58.394531 124.546875 58.308594 124.570312 58.21875 C 124.609375 58.074219 124.628906 57.933594 124.652344 57.785156 C 124.671875 57.695312 124.691406 57.601562 124.703125 57.507812 C 124.707031 57.457031 124.722656 57.402344 124.730469 57.347656 C 124.753906 57.058594 124.757812 56.765625 124.722656 56.472656 C 124.648438 55.746094 124.484375 55.003906 124.28125 54.257812 C 124.238281 54.09375 124.191406 53.933594 124.140625 53.769531 C 121.667969 45.5625 112.574219 36.644531 109.230469 33.578125 C 109.074219 33.4375 108.945312 33.355469 108.824219 33.300781 C 108.789062 33.285156 108.757812 33.28125 108.726562 33.269531 C 108.683594 33.257812 108.636719 33.230469 108.601562 33.230469 C 108.582031 33.230469 108.578125 33.261719 108.5625 33.265625 C 108.488281 33.28125 108.4375 33.332031 108.402344 33.402344 C 108.386719 33.4375 108.359375 33.457031 108.351562 33.5 C 108.324219 33.644531 108.324219 33.828125 108.386719 34.082031 L 111.976562 48.65625 C 112.195312 49.546875 111.871094 50.816406 111.253906 51.492188 L 111.179688 51.574219 L 106.636719 43.21875 C 106.488281 42.945312 106.25 42.742188 105.960938 42.636719 L 105.234375 42.378906 C 105.253906 42.457031 105.25 42.539062 105.257812 42.621094 C 105.167969 41.867188 104.679688 41.1875 103.914062 40.914062 L 96.132812 38.144531 C 95.050781 37.761719 93.855469 38.320312 93.46875 39.394531 C 93.082031 40.46875 93.644531 41.65625 94.726562 42.042969 L 102.511719 44.8125 C 102.738281 44.894531 102.976562 44.933594 103.210938 44.933594 C 103.570312 44.933594 103.914062 44.824219 104.21875 44.652344 C 104.21875 44.652344 104.214844 44.65625 104.214844 44.65625 L 104.664062 44.816406 L 109.046875 52.878906 C 108.957031 52.878906 108.867188 52.886719 108.78125 52.871094 C 108.71875 52.863281 108.652344 52.863281 108.59375 52.847656 C 108.386719 52.800781 108.1875 52.734375 108.011719 52.621094 C 107.699219 52.421875 107.371094 52.207031 107.027344 51.980469 C 106.886719 51.890625 106.746094 51.804688 106.601562 51.710938 C 106.308594 51.523438 106.011719 51.335938 105.691406 51.140625 C 105.53125 51.042969 105.363281 50.945312 105.195312 50.84375 C 104.890625 50.664062 104.574219 50.484375 104.242188 50.304688 C 104.0625 50.203125 103.886719 50.105469 103.695312 50.007812 C 103.320312 49.8125 102.921875 49.625 102.511719 49.4375 C 102.355469 49.367188 102.210938 49.289062 102.046875 49.21875 C 101.46875 48.972656 100.867188 48.738281 100.226562 48.519531 C 100.105469 48.480469 99.976562 48.453125 99.855469 48.414062 C 99.328125 48.246094 98.78125 48.09375 98.207031 47.957031 C 97.96875 47.902344 97.71875 47.859375 97.46875 47.808594 C 96.976562 47.710938 96.46875 47.628906 95.941406 47.558594 C 95.65625 47.519531 95.367188 47.488281 95.066406 47.460938 C 94.523438 47.414062 93.957031 47.382812 93.375 47.371094 C 93.164062 47.363281 92.980469 47.335938 92.765625 47.335938 C 92.640625 47.335938 92.503906 47.347656 92.375 47.351562 C 92.136719 47.355469 91.890625 47.367188 91.644531 47.378906 C 91.125 47.398438 90.589844 47.4375 90.039062 47.488281 C 89.777344 47.515625 89.519531 47.539062 89.25 47.570312 C 88.597656 47.652344 87.921875 47.761719 87.234375 47.886719 C 87.0625 47.921875 86.902344 47.941406 86.730469 47.972656 C 85.867188 48.148438 84.96875 48.367188 84.039062 48.621094 C 83.800781 48.6875 83.546875 48.773438 83.300781 48.84375 C 82.59375 49.054688 81.871094 49.285156 81.125 49.546875 C 80.792969 49.660156 80.457031 49.785156 80.117188 49.910156 C 79.390625 50.183594 78.644531 50.484375 77.882812 50.804688 C 77.554688 50.945312 77.234375 51.074219 76.898438 51.222656 C 75.804688 51.707031 74.6875 52.230469 73.523438 52.824219 C 72.152344 53.523438 70.550781 54.554688 68.957031 55.070312 C 68.59375 55.1875 68.234375 55.273438 67.875 55.324219 C 67.808594 55.335938 67.742188 55.335938 67.675781 55.34375 C 67.328125 55.378906 66.980469 55.394531 66.644531 55.347656 L 38.824219 53.09375 C 36.546875 52.777344 34.226562 51.472656 33.640625 50.175781 C 33.617188 50.121094 33.570312 50.070312 33.539062 50.015625 C 33.539062 50.011719 33.535156 50.007812 33.535156 50.007812 C 33.269531 49.554688 32.808594 49.140625 32.199219 48.796875 C 32.1875 48.792969 32.175781 48.785156 32.164062 48.777344 C 31.976562 48.671875 31.777344 48.574219 31.5625 48.480469 C 31.519531 48.464844 31.472656 48.449219 31.425781 48.429688 C 31.238281 48.355469 31.054688 48.28125 30.855469 48.222656 C 30.761719 48.191406 30.667969 48.171875 30.578125 48.144531 C 30.414062 48.101562 30.253906 48.054688 30.085938 48.019531 C 29.945312 47.992188 29.800781 47.972656 29.652344 47.953125 C 29.527344 47.933594 29.402344 47.90625 29.273438 47.894531 C 29.078125 47.875 28.882812 47.867188 28.683594 47.859375 C 28.605469 47.859375 28.523438 47.847656 28.445312 47.847656 C 28.4375 47.847656 28.425781 47.847656 28.421875 47.847656 L 14.675781 47.890625 C 12.375 47.898438 11.195312 49.070312 12.035156 50.511719 C 12.878906 51.945312 15.101562 54.160156 17 55.453125 L 43.597656 73.578125 C 45.492188 74.867188 47.898438 77.5625 48.964844 79.585938 L 49.683594 80.957031 L 43.878906 83.6875 C 40.144531 77.992188 33.699219 74.261719 26.449219 74.257812 C 26.097656 74.257812 25.742188 74.269531 25.390625 74.285156 C 13.898438 74.859375 5.050781 84.582031 5.625 96.007812 C 6.183594 107.078125 15.390625 115.675781 26.417969 115.675781 C 26.765625 115.675781 27.121094 115.667969 27.476562 115.652344 C 38.5625 115.097656 47.160156 106.027344 47.238281 95.132812 L 56.453125 93.839844 L 58.945312 98.574219 C 60.007812 100.59375 62.726562 102.226562 65.023438 102.226562 C 65.027344 102.226562 65.03125 102.226562 65.039062 102.226562 L 68.574219 102.21875 L 96.203125 102.136719 C 98.503906 102.128906 100.15625 100.273438 100.109375 97.988281 C 100.085938 96.984375 100.097656 96.007812 100.140625 95.054688 C 100.15625 94.742188 100.1875 94.445312 100.207031 94.140625 C 100.246094 93.511719 100.285156 92.882812 100.351562 92.28125 C 100.390625 91.925781 100.449219 91.589844 100.496094 91.242188 C 100.566406 90.710938 100.636719 90.179688 100.730469 89.667969 C 100.792969 89.308594 100.871094 88.96875 100.945312 88.621094 C 101.042969 88.144531 101.140625 87.667969 101.257812 87.207031 C 101.34375 86.859375 101.441406 86.527344 101.539062 86.1875 C 101.664062 85.753906 101.785156 85.316406 101.921875 84.898438 C 102.03125 84.566406 102.148438 84.242188 102.261719 83.921875 C 102.40625 83.519531 102.554688 83.121094 102.710938 82.734375 C 102.835938 82.417969 102.972656 82.109375 103.105469 81.804688 C 103.269531 81.433594 103.433594 81.070312 103.605469 80.714844 C 103.75 80.417969 103.894531 80.125 104.046875 79.839844 C 104.226562 79.496094 104.40625 79.164062 104.59375 78.835938 C 104.753906 78.554688 104.914062 78.277344 105.078125 78.007812 C 105.269531 77.695312 105.464844 77.390625 105.660156 77.089844 C 105.832031 76.828125 106.003906 76.566406 106.183594 76.3125 C 106.382812 76.027344 106.585938 75.75 106.792969 75.472656 C 106.972656 75.230469 107.15625 74.988281 107.339844 74.753906 C 107.546875 74.488281 107.761719 74.238281 107.972656 73.988281 C 108.164062 73.761719 108.351562 73.53125 108.546875 73.3125 C 108.566406 73.292969 108.585938 73.273438 108.605469 73.25 L 111.984375 79.21875 C 106.917969 83 103.628906 88.996094 103.628906 95.777344 C 103.628906 107.214844 112.953125 116.484375 124.460938 116.484375 C 135.964844 116.484375 145.292969 107.214844 145.292969 95.777344 C 145.292969 84.335938 135.964844 75.066406 124.460938 75.066406 " fill-opacity="1" fill-rule="nonzero"/></g></svg>