<svg xmlns="http://www.w3.org/2000/svg" xmlns:xlink="http://www.w3.org/1999/xlink" width="200" zoomAndPan="magnify" viewBox="0 0 150 149.999998" height="200" preserveAspectRatio="xMidYMid meet" version="1.0"><defs><clipPath id="id1"><path d="M 9.148438 7 L 141 7 L 141 139 L 9.148438 139 Z M 9.148438 7 " clip-rule="nonzero"/></clipPath></defs><g clip-path="url(#id1)"><path fill="#040606" d="M 12.875 98.660156 C 21.378906 113.882812 33.78125 126.527344 48.78125 135.289062 C 40.929688 136.058594 33.023438 135.871094 25.207031 134.742188 C 18.894531 133.832031 13.960938 128.792969 13.121094 122.421875 C 12.105469 114.546875 12.023438 106.566406 12.875 98.660156 Z M 107.484375 25.476562 C 119.511719 34.878906 128.925781 47.257812 134.804688 61.398438 C 125.671875 96.664062 98.128906 124.066406 62.992188 132.828125 C 49.550781 127.125 37.734375 118.152344 28.578125 106.730469 C 32.195312 101.003906 36.007812 95.402344 40.03125 89.96875 L 46.355469 96.089844 C 47.195312 96.933594 48.550781 96.933594 49.378906 96.101562 C 50.21875 95.261719 50.21875 93.898438 49.390625 93.058594 C 49.367188 93.035156 49.34375 93.011719 49.320312 92.988281 L 42.632812 86.515625 C 46.15625 81.894531 49.832031 77.390625 53.648438 73.003906 L 60.039062 79.199219 C 60.890625 80.027344 62.246094 80.003906 63.0625 79.152344 C 63.878906 78.300781 63.855469 76.9375 63.015625 76.121094 C 63.003906 76.121094 63.003906 76.121094 63.003906 76.109375 L 56.492188 69.796875 C 61.101562 64.664062 65.894531 59.707031 70.890625 54.933594 L 78.472656 62.285156 C 79.324219 63.113281 80.664062 63.089844 81.480469 62.238281 C 82.308594 61.386719 82.285156 60.019531 81.433594 59.203125 C 81.433594 59.191406 81.433594 59.191406 81.421875 59.191406 L 74.003906 51.996094 C 78.167969 48.121094 82.460938 44.386719 86.847656 40.796875 L 94.886719 48.589844 C 95.738281 49.417969 97.089844 49.394531 97.90625 48.542969 C 98.734375 47.679688 98.710938 46.324219 97.859375 45.496094 C 97.859375 45.496094 97.847656 45.496094 97.847656 45.496094 L 90.207031 38.089844 C 95.808594 33.65625 101.570312 29.457031 107.484375 25.476562 Z M 86.324219 13.238281 C 92.972656 15.933594 99.273438 19.433594 105.070312 23.65625 C 99.285156 27.589844 93.636719 31.730469 88.144531 36.082031 L 80.804688 28.964844 C 79.953125 28.136719 78.601562 28.160156 77.785156 29 C 76.96875 29.863281 76.988281 31.21875 77.832031 32.046875 C 77.839844 32.046875 77.839844 32.058594 77.839844 32.058594 L 84.78125 38.789062 C 80.398438 42.394531 76.113281 46.136719 71.949219 50 L 64.378906 42.660156 C 63.539062 41.832031 62.1875 41.84375 61.371094 42.707031 C 60.542969 43.558594 60.566406 44.914062 61.417969 45.742188 C 61.417969 45.742188 61.417969 45.753906 61.417969 45.753906 L 68.835938 52.9375 C 63.855469 57.710938 59.046875 62.667969 54.441406 67.800781 L 45.949219 59.578125 C 45.109375 58.75 43.753906 58.773438 42.9375 59.625 C 42.121094 60.476562 42.132812 61.839844 42.984375 62.667969 C 42.984375 62.667969 42.984375 62.667969 42.996094 62.667969 L 51.59375 71.023438 C 47.777344 75.394531 44.105469 79.898438 40.570312 84.519531 L 32.277344 76.457031 C 31.414062 75.640625 30.070312 75.675781 29.253906 76.539062 C 28.449219 77.390625 28.472656 78.734375 29.3125 79.550781 L 37.96875 87.960938 C 34.023438 93.28125 30.28125 98.738281 26.722656 104.328125 C 22.136719 98.191406 18.371094 91.484375 15.5 84.378906 C 24.550781 49.484375 51.652344 22.269531 86.324219 13.238281 Z M 110.492188 10.078125 C 112.070312 10.066406 113.667969 10.101562 115.253906 10.160156 C 118.542969 10.300781 121.832031 10.617188 125.089844 11.082031 C 131.398438 11.992188 136.332031 17.03125 137.171875 23.402344 C 138.199219 31.335938 138.28125 39.347656 137.394531 47.292969 C 128.667969 31.953125 115.953125 19.269531 100.625 10.636719 C 103.902344 10.289062 107.191406 10.101562 110.492188 10.078125 Z M 115.371094 7.300781 C 59.304688 4.898438 11.917969 48.714844 9.539062 105.167969 C 9.28125 111.058594 9.539062 116.949219 10.308594 122.796875 C 11.300781 130.4375 17.226562 136.480469 24.808594 137.574219 C 80.351562 145.601562 131.84375 106.765625 139.820312 50.839844 C 141.128906 41.625 141.1875 32.265625 139.996094 23.027344 C 138.992188 15.386719 133.066406 9.34375 125.484375 8.246094 C 122.136719 7.757812 118.753906 7.441406 115.371094 7.300781 " fill-opacity="1" fill-rule="nonzero"/></g></svg>