<svg xmlns="http://www.w3.org/2000/svg" xmlns:xlink="http://www.w3.org/1999/xlink" width="200" zoomAndPan="magnify" viewBox="0 0 150 149.999998" height="200" preserveAspectRatio="xMidYMid meet" version="1.0"><defs><clipPath id="id1"><path d="M 4.015625 110 L 40 110 L 40 145.882812 L 4.015625 145.882812 Z M 4.015625 110 " clip-rule="nonzero"/></clipPath></defs><path fill="#000000" d="M 139.53125 45.03125 C 138.269531 55.796875 132.871094 66.429688 124.324219 74.976562 C 116.960938 82.339844 108.210938 87.160156 99.53125 89.253906 C 98.558594 89.332031 94.871094 89.648438 89.679688 90.453125 C 81.332031 90.441406 73.597656 87.675781 67.90625 81.984375 C 62.378906 76.457031 59.445312 68.855469 59.433594 60.242188 C 60.253906 54.972656 60.570312 51.246094 60.640625 50.328125 C 62.792969 41.375 67.75 32.734375 74.917969 25.566406 C 83.460938 17.023438 94.097656 11.621094 104.859375 10.363281 C 106.449219 10.175781 108.007812 10.085938 109.539062 10.085938 C 118.175781 10.085938 125.796875 13.019531 131.335938 18.558594 C 137.855469 25.078125 140.765625 34.480469 139.53125 45.03125 Z M 134.773438 15.117188 C 127.179688 7.523438 116.355469 4.121094 104.296875 5.53125 C 92.449219 6.917969 80.792969 12.816406 71.480469 22.128906 C 62.164062 31.445312 56.269531 43.097656 54.882812 54.945312 C 54.695312 56.527344 54.597656 58.085938 54.574219 59.625 C 52.65625 71.742188 48.03125 92.175781 37.707031 103.859375 L 41.152344 107.296875 C 49.191406 98.328125 53.996094 84.953125 56.824219 73.394531 C 58.488281 77.933594 61.050781 82.007812 64.46875 85.425781 C 67.941406 88.894531 72.058594 91.421875 76.570312 93.050781 C 64.992188 95.878906 51.582031 100.683594 42.597656 108.738281 L 46.046875 112.171875 C 57.832031 101.769531 78.488281 97.160156 90.566406 95.269531 C 93.683594 95.210938 96.863281 94.816406 100.046875 94.09375 C 100.066406 94.089844 100.082031 94.089844 100.085938 94.089844 L 100.085938 94.082031 C 109.820312 91.863281 119.59375 86.582031 127.761719 78.414062 C 137.078125 69.097656 142.972656 57.445312 144.359375 45.597656 C 145.773438 33.539062 142.367188 22.714844 134.773438 15.117188 " fill-opacity="1" fill-rule="nonzero"/><path fill="#000000" d="M 31.445312 108.441406 L 41.453125 118.445312 L 45.378906 114.519531 L 35.375 104.515625 L 31.445312 108.441406 " fill-opacity="1" fill-rule="nonzero"/><g clip-path="url(#id1)"><path fill="#000000" d="M 5.238281 134.652344 C 4.011719 135.875 4.011719 137.863281 5.238281 139.085938 L 10.808594 144.65625 C 12.03125 145.878906 14.015625 145.878906 15.242188 144.65625 L 39.601562 120.296875 L 29.59375 110.292969 L 5.238281 134.652344 " fill-opacity="1" fill-rule="nonzero"/></g><path fill="#000000" d="M 132.269531 28.71875 L 121.222656 39.769531 L 110.390625 28.941406 L 121.441406 17.890625 Z M 132.050781 53.246094 L 121 64.296875 L 110.171875 53.464844 L 121.222656 42.414062 Z M 108.628906 76.667969 L 97.800781 65.835938 L 108.847656 54.789062 L 119.679688 65.617188 Z M 85.644531 53.683594 L 96.695312 42.632812 L 107.527344 53.464844 L 96.476562 64.515625 Z M 84.105469 76.886719 L 73.277344 66.054688 L 84.324219 55.007812 L 95.15625 65.835938 Z M 73.496094 41.53125 L 84.542969 30.484375 L 95.375 41.3125 L 84.324219 52.363281 Z M 96.914062 18.109375 L 107.746094 28.941406 L 96.695312 39.992188 L 85.867188 29.160156 Z M 119.898438 41.09375 L 108.847656 52.144531 L 98.019531 41.3125 L 109.070312 30.261719 Z M 123.222656 16.109375 C 121.386719 15.136719 119.433594 14.382812 117.394531 13.84375 L 120.117188 16.566406 L 109.070312 27.617188 L 98.238281 16.789062 L 101.351562 13.675781 C 100.167969 13.921875 98.980469 14.230469 97.792969 14.589844 L 96.914062 15.464844 L 96.464844 15.011719 C 95.816406 15.230469 95.167969 15.464844 94.523438 15.714844 L 95.59375 16.789062 L 84.542969 27.835938 L 80.640625 23.9375 C 80.164062 24.332031 79.6875 24.738281 79.21875 25.15625 L 83.222656 29.160156 L 72.171875 40.210938 L 69.089844 37.128906 C 68.75 37.679688 68.425781 38.234375 68.109375 38.789062 L 70.847656 41.53125 L 63.9375 48.441406 C 63.578125 49.628906 63.273438 50.816406 63.023438 52.003906 L 72.171875 42.855469 L 83.003906 53.683594 L 71.953125 64.734375 L 62.472656 55.253906 C 62.371094 56.0625 62.292969 56.867188 62.242188 57.667969 L 70.628906 66.054688 L 64.597656 72.089844 C 64.863281 72.695312 65.148438 73.289062 65.457031 73.875 L 71.953125 67.378906 L 82.785156 78.207031 L 76.375 84.617188 C 76.964844 84.921875 77.566406 85.199219 78.179688 85.457031 L 84.105469 79.53125 L 92.226562 87.648438 C 93.027344 87.597656 93.832031 87.523438 94.640625 87.421875 L 85.425781 78.207031 L 96.476562 67.160156 L 107.308594 77.988281 L 98.578125 86.71875 C 99.792969 86.4375 101.011719 86.101562 102.230469 85.710938 L 108.628906 79.3125 L 111.105469 81.785156 C 111.660156 81.46875 112.210938 81.140625 112.761719 80.800781 L 109.953125 77.988281 L 121 66.941406 L 124.738281 70.675781 C 125.152344 70.203125 125.558594 69.730469 125.957031 69.25 L 122.324219 65.617188 L 133.375 54.566406 L 134.175781 55.371094 C 134.425781 54.722656 134.660156 54.078125 134.878906 53.429688 L 134.695312 53.246094 L 135.058594 52.878906 C 135.453125 51.664062 135.789062 50.445312 136.070312 49.226562 L 133.375 51.921875 L 122.542969 41.09375 L 133.59375 30.042969 L 136.046875 32.5 C 135.542969 30.585938 134.851562 28.753906 133.96875 27.023438 L 133.59375 27.398438 L 122.761719 16.566406 L 123.222656 16.109375 " fill-opacity="1" fill-rule="nonzero"/><path fill="#000000" d="M 36.800781 40.507812 C 36.800781 38.34375 35.957031 36.265625 34.464844 34.714844 C 33.085938 36.25 32.242188 38.28125 32.242188 40.507812 C 32.242188 42.738281 33.085938 44.769531 34.464844 46.304688 C 35.957031 44.75 36.800781 42.671875 36.800781 40.507812 " fill-opacity="1" fill-rule="nonzero"/><path fill="#000000" d="M 47.3125 46.34375 C 48.71875 44.804688 49.574219 42.757812 49.574219 40.507812 C 49.574219 38.261719 48.71875 36.210938 47.3125 34.671875 C 45.800781 36.230469 44.941406 38.328125 44.941406 40.507812 C 44.941406 42.691406 45.800781 44.785156 47.3125 46.34375 " fill-opacity="1" fill-rule="nonzero"/><path fill="#000000" d="M 35.859375 47.550781 C 37.28125 48.570312 39.023438 49.175781 40.90625 49.175781 C 42.773438 49.175781 44.496094 48.585938 45.910156 47.582031 C 44.097656 45.683594 43.070312 43.144531 43.070312 40.507812 C 43.070312 37.871094 44.097656 35.335938 45.910156 33.433594 C 44.496094 32.433594 42.773438 31.84375 40.90625 31.84375 C 39.023438 31.84375 37.28125 32.445312 35.859375 33.46875 C 37.652344 35.363281 38.667969 37.886719 38.667969 40.507812 C 38.667969 43.132812 37.652344 45.65625 35.859375 47.550781 " fill-opacity="1" fill-rule="nonzero"/></svg>