<svg xmlns="http://www.w3.org/2000/svg" xmlns:xlink="http://www.w3.org/1999/xlink" width="200" zoomAndPan="magnify" viewBox="0 0 150 149.999998" height="200" preserveAspectRatio="xMidYMid meet" version="1.0"><defs><clipPath id="id1"><path d="M 3.800781 6.496094 L 146.207031 6.496094 L 146.207031 148.613281 L 3.800781 148.613281 Z M 3.800781 6.496094 " clip-rule="nonzero"/></clipPath></defs><g clip-path="url(#id1)"><path fill="#333333" d="M 75.003906 12.179688 C 38.886719 12.179688 9.496094 41.507812 9.496094 77.554688 C 9.496094 113.601562 38.886719 142.929688 75.003906 142.929688 C 111.121094 142.929688 140.511719 113.601562 140.511719 77.554688 C 140.511719 41.507812 111.121094 12.179688 75.003906 12.179688 Z M 75.003906 148.613281 C 35.742188 148.613281 3.800781 116.738281 3.800781 77.554688 C 3.800781 38.371094 35.742188 6.492188 75.003906 6.492188 C 114.265625 6.492188 146.207031 38.371094 146.207031 77.554688 C 146.207031 116.738281 114.265625 148.613281 75.003906 148.613281 " fill-opacity="1" fill-rule="nonzero"/></g><path fill="#333333" d="M 75.003906 80.394531 C 74.230469 80.394531 73.480469 80.085938 72.933594 79.507812 C 43.46875 48.480469 13.058594 55.902344 11.773438 56.226562 C 10.234375 56.613281 8.695312 55.710938 8.300781 54.191406 C 7.90625 52.675781 8.808594 51.128906 10.328125 50.730469 C 11.734375 50.363281 44.328125 42.234375 75.832031 74.3125 C 83.761719 71.714844 118.457031 59.074219 126.378906 34.992188 C 126.859375 33.503906 128.472656 32.664062 129.96875 33.179688 C 131.460938 33.667969 132.277344 35.273438 131.78125 36.765625 C 121.933594 66.726562 77.667969 79.746094 75.792969 80.285156 C 75.53125 80.355469 75.265625 80.394531 75.003906 80.394531 " fill-opacity="1" fill-rule="nonzero"/><path fill="#333333" d="M 87.074219 147.53125 C 86.386719 147.53125 85.691406 147.28125 85.144531 146.777344 C 59.101562 122.828125 71.722656 78.625 72.273438 76.753906 C 72.707031 75.253906 74.265625 74.382812 75.804688 74.828125 C 77.3125 75.265625 78.179688 76.851562 77.734375 78.351562 C 77.613281 78.773438 65.574219 121.050781 89.007812 142.597656 C 90.164062 143.664062 90.234375 145.460938 89.171875 146.617188 C 88.609375 147.222656 87.84375 147.53125 87.074219 147.53125 " fill-opacity="1" fill-rule="nonzero"/><path fill="#333333" d="M 107.757812 64.625 C 106.601562 64.625 105.511719 63.914062 105.082031 62.761719 C 85.105469 8.574219 36.4375 25.386719 34.378906 26.128906 C 32.894531 26.679688 31.265625 25.902344 30.734375 24.425781 C 30.203125 22.953125 30.957031 21.324219 32.4375 20.789062 C 33 20.578125 88.464844 1.214844 110.433594 60.800781 C 110.972656 62.277344 110.214844 63.910156 108.742188 64.453125 C 108.414062 64.570312 108.085938 64.625 107.757812 64.625 " fill-opacity="1" fill-rule="nonzero"/><path fill="#333333" d="M 83.320312 115.144531 C 76.089844 115.144531 71.398438 113.894531 71.253906 113.855469 C 69.742188 113.429688 68.863281 111.863281 69.285156 110.351562 C 69.714844 108.847656 71.269531 107.960938 72.796875 108.382812 C 74.507812 108.847656 114.917969 119.375 140.535156 69.953125 C 141.257812 68.554688 142.992188 68.015625 144.371094 68.734375 C 145.769531 69.453125 146.320312 71.167969 145.597656 72.5625 C 126.558594 109.28125 98.984375 115.144531 83.320312 115.144531 " fill-opacity="1" fill-rule="nonzero"/><path fill="#333333" d="M 52.085938 144.667969 C 51.308594 144.667969 50.527344 144.34375 49.960938 143.71875 C 19.25 109.457031 40.855469 57.777344 41.789062 55.597656 C 42.40625 54.152344 44.070312 53.476562 45.527344 54.097656 C 46.972656 54.714844 47.648438 56.386719 47.027344 57.828125 C 46.8125 58.328125 25.929688 108.386719 54.210938 139.929688 C 55.253906 141.097656 55.15625 142.898438 53.984375 143.945312 C 53.441406 144.429688 52.765625 144.667969 52.085938 144.667969 " fill-opacity="1" fill-rule="nonzero"/></svg>