<svg xmlns="http://www.w3.org/2000/svg" xmlns:xlink="http://www.w3.org/1999/xlink" width="200" zoomAndPan="magnify" viewBox="0 0 150 149.999998" height="200" preserveAspectRatio="xMidYMid meet" version="1.0"><defs><clipPath id="id1"><path d="M 112 4.226562 L 141 4.226562 L 141 33 L 112 33 Z M 112 4.226562 " clip-rule="nonzero"/></clipPath><clipPath id="id2"><path d="M 8.472656 80 L 141 80 L 141 145.976562 L 8.472656 145.976562 Z M 8.472656 80 " clip-rule="nonzero"/></clipPath></defs><g clip-path="url(#id1)"><path fill="#000000" d="M 112.421875 18.394531 C 112.421875 26.222656 118.738281 32.574219 126.539062 32.574219 C 134.339844 32.574219 140.664062 26.222656 140.664062 18.394531 C 140.664062 10.578125 134.339844 4.226562 126.539062 4.226562 C 118.738281 4.226562 112.421875 10.578125 112.421875 18.394531 Z M 112.421875 18.394531 " fill-opacity="1" fill-rule="nonzero"/></g><path fill="#000000" d="M 36.421875 19.734375 C 35.078125 18.945312 33.347656 19.394531 32.554688 20.742188 C 31.765625 22.09375 32.214844 23.828125 33.558594 24.625 L 61.933594 41.367188 C 62.921875 40.121094 64.1875 38.621094 65.683594 37 Z M 36.421875 19.734375 " fill-opacity="1" fill-rule="nonzero"/><path fill="#000000" d="M 125.164062 69.914062 C 121.847656 67.234375 105.878906 57.914062 105.878906 57.914062 C 105.878906 57.914062 112.410156 42.566406 112.410156 34.582031 C 112.410156 26.601562 104.683594 22.425781 99.351562 21.59375 C 85.035156 19.347656 72.722656 29.421875 65.683594 37.003906 L 91.640625 52.320312 L 95.171875 49.871094 C 95.171875 49.871094 94.898438 51.765625 94.765625 54.167969 C 94.640625 56.339844 94.632812 58.917969 95.03125 60.902344 C 95.109375 61.28125 95.195312 61.644531 95.304688 61.96875 C 96.433594 65.398438 105.789062 70.257812 120.882812 76.652344 C 130.179688 80.59375 132.117188 75.527344 125.164062 69.914062 Z M 125.164062 69.914062 " fill-opacity="1" fill-rule="nonzero"/><g clip-path="url(#id2)"><path fill="#000000" d="M 126.230469 145.964844 C 122.328125 145.964844 118.6875 144.960938 116.328125 143.902344 L 10.226562 85.902344 C 8.859375 85.152344 8.351562 83.433594 9.097656 82.058594 C 9.84375 80.683594 11.558594 80.171875 12.929688 80.925781 L 118.832031 138.828125 C 119.085938 138.929688 130.007812 143.644531 135.660156 135.929688 C 136.582031 134.667969 138.351562 134.402344 139.609375 135.324219 C 140.863281 136.25 141.132812 138.027344 140.210938 139.289062 C 136.480469 144.371094 131.148438 145.964844 126.230469 145.964844 Z M 126.230469 145.964844 " fill-opacity="1" fill-rule="nonzero"/></g><path fill="#000000" d="M 77.035156 115.972656 L 63.855469 108.765625 C 63.253906 109.519531 62.871094 109.996094 62.871094 109.996094 L 76.515625 116.558594 C 76.515625 116.558594 76.703125 116.351562 77.035156 115.972656 Z M 77.035156 115.972656 " fill-opacity="1" fill-rule="nonzero"/><path fill="#000000" d="M 63.960938 70.308594 C 69.015625 73.832031 74.730469 77.15625 78.085938 79.6875 C 81.558594 82.304688 82.375 85.132812 79.816406 88.554688 C 78.203125 90.714844 71.882812 98.679688 67.4375 104.265625 L 80.851562 111.601562 C 84.804688 107.042969 90.902344 99.921875 96.757812 92.6875 C 106.738281 80.371094 97.265625 72.0625 93.28125 68.921875 C 91.78125 67.742188 86.621094 64.039062 80.757812 59.871094 L 86.515625 55.875 L 61.933594 41.367188 C 60.300781 43.429688 59.402344 44.792969 59.402344 44.792969 C 51.144531 56.132812 58.964844 66.824219 63.960938 70.308594 Z M 63.960938 70.308594 " fill-opacity="1" fill-rule="nonzero"/></svg>