<svg xmlns="http://www.w3.org/2000/svg" xmlns:xlink="http://www.w3.org/1999/xlink" viewBox="0 0 234.67 239.61"><defs><style>.cls-1{fill:none;}.cls-2{clip-path:url(#clip-path);}.cls-3{fill:#40cb5b;}.cls-22,.cls-3{fill-rule:evenodd;}.cls-4{clip-path:url(#clip-path-2);}.cls-5{clip-path:url(#clip-path-3);}.cls-6{clip-path:url(#clip-path-4);}.cls-7{clip-path:url(#clip-path-5);}.cls-8{clip-path:url(#clip-path-6);}.cls-9{clip-path:url(#clip-path-7);}.cls-10{clip-path:url(#clip-path-8);}.cls-11{clip-path:url(#clip-path-9);}.cls-12{clip-path:url(#clip-path-10);}.cls-13{clip-path:url(#clip-path-11);}.cls-14{clip-path:url(#clip-path-12);}.cls-15{clip-path:url(#clip-path-13);}.cls-16{clip-path:url(#clip-path-14);}.cls-17{clip-path:url(#clip-path-15);}.cls-18{clip-path:url(#clip-path-16);}.cls-19{clip-path:url(#clip-path-17);}.cls-20{clip-path:url(#clip-path-18);}.cls-21{clip-path:url(#clip-path-19);}.cls-22{fill:#fff;}</style><clipPath id="clip-path"><polyline class="cls-1" points="234.67 237.49 0 237.49 0 13.76 234.67 13.76"/></clipPath><clipPath id="clip-path-2"><rect class="cls-1" x="141.51" y="1.41" width="18.7" height="18.35"/></clipPath><clipPath id="clip-path-3"><polygon class="cls-1" points="198.32 19.76 206.79 19.76 206.79 27.52 198.32 27.52 198.32 19.76 198.32 19.76"/></clipPath><clipPath id="clip-path-4"><rect class="cls-1" x="123.86" y="15.17" width="8.82" height="5.65"/></clipPath><clipPath id="clip-path-5"><rect class="cls-1" x="219.85" y="161.27" width="6.35" height="6.35"/></clipPath><clipPath id="clip-path-6"><rect class="cls-1" x="172.56" y="20.11" width="6" height="5.65"/></clipPath><clipPath id="clip-path-7"><rect class="cls-1" x="113.28" y="2.82" width="4.94" height="6"/></clipPath><clipPath id="clip-path-8"><rect class="cls-1" x="19.41" y="20.47" width="4.94" height="5.29"/></clipPath><clipPath id="clip-path-9"><rect class="cls-1" x="185.97" y="36.7" width="4.59" height="4.59"/></clipPath><clipPath id="clip-path-10"><rect class="cls-1" x="175.39" width="4.23" height="4.59"/></clipPath><clipPath id="clip-path-11"><rect class="cls-1" x="138.69" width="4.23" height="3.53"/></clipPath><clipPath id="clip-path-12"><rect class="cls-1" x="143.27" y="235.73" width="3.18" height="3.88"/></clipPath><clipPath id="clip-path-13"><rect class="cls-1" x="177.5" y="40.93" width="4.23" height="2.47"/></clipPath><clipPath id="clip-path-14"><rect class="cls-1" x="121.39" y="23.29" width="2.82" height="2.47"/></clipPath><clipPath id="clip-path-15"><rect class="cls-1" x="221.97" y="182.8" width="2.12" height="3.18"/></clipPath><clipPath id="clip-path-16"><rect class="cls-1" x="149.27" y="233.96" width="2.12" height="2.47"/></clipPath><clipPath id="clip-path-17"><rect class="cls-1" x="88.58" y="215.97" width="2.12" height="2.82"/></clipPath><clipPath id="clip-path-18"><rect class="cls-1" x="30.7" y="43.41" width="2.82" height="1.76"/></clipPath><clipPath id="clip-path-19"><rect class="cls-1" x="89.28" y="209.97" width="1.41" height="1.76"/></clipPath></defs><g id="Layer_2" data-name="Layer 2"><g id="Layer_1-2" data-name="Layer 1"><g id="Layer_1-3" data-name="Layer_1"><g id="_2410711162608" data-name=" 2410711162608"><g class="cls-2"><g id="_2410711161168" data-name=" 2410711161168"><path class="cls-3" d="M115.85,236.42a4.42,4.42,0,0,0,.66.5c.64.35.94-.42,1.34-.78a.87.87,0,0,1,.35-.22,3.49,3.49,0,0,0,1-.54,1.36,1.36,0,0,1,1.51.88,2,2,0,0,0,.85,1c.74.46,1.51.2,1.59-.76.13-1.38,1.25-2.15,2-3.21a3.25,3.25,0,0,1,.78-.83l.11-.14a1.24,1.24,0,0,1,1.46-.19,2.87,2.87,0,0,0,2.53-.17,3.89,3.89,0,0,0,2.82-1.43,1.29,1.29,0,0,1,1.27-.28,2.44,2.44,0,0,0,1-.16.76.76,0,0,0,.7-.24,3.3,3.3,0,0,1,1.16-.47,2.93,2.93,0,0,0,.56-.35c.24-.18.85-.43,1,0a2.07,2.07,0,0,1,0,1c.32.71.88.81,1.59.63a1.63,1.63,0,0,0,.91-1.43,1.53,1.53,0,0,1,.81-1.21,1.71,1.71,0,0,0,.5-.63c.64-1.31,2.8-1.53,4-1,.73.36.53.9.18,1.5a1.66,1.66,0,0,0-.27,1.46,4.8,4.8,0,0,0,.92,1.36,6.07,6.07,0,0,0,2.17,1.16c.75.36,1.4-.1,1.92-.61s.86-.23,1.2.16a1.61,1.61,0,0,0,.93,1,2.21,2.21,0,0,1,1,1.08,1.93,1.93,0,0,0,.83.66,2,2,0,0,0,1.62.15c.94-.28,1.2-1.48,1-2.32a4,4,0,0,1,0-1,3.13,3.13,0,0,0-.19-1.36,3.3,3.3,0,0,1,.12-2.47c.17-.35.59-.83,1-.48a1.22,1.22,0,0,0,.93.17,2.11,2.11,0,0,0,1.72-1.43,2.08,2.08,0,0,0,.22-1.88,1.93,1.93,0,0,1,.13-2.21,1.14,1.14,0,0,1,1.63.15,6.69,6.69,0,0,1,.82,1.65,2.41,2.41,0,0,1,.25,1c0,.84,1,1.17,1.61,1.42s.88.78,1.15,1.4a2,2,0,0,1-.09,1.29,3,3,0,0,0,.38,2.4c.16.3.3.61.44.93a2.22,2.22,0,0,0,1.61,1c.23.05.44.14.46.2.18.37-.57.74-.76.92s-.74.69-.68,1.14a2.14,2.14,0,0,0,.58,1.11.69.69,0,0,0,1-.24c.18-.3.92-.37,1.22-.36.8,0,.79.76.79,1.4l.08.15a.41.41,0,0,0,.25.19c.66.14.47-.89.53-1.21s0-.36.06-.54a1.09,1.09,0,0,0-.35-.92c-.08-.23-.16-.46-.26-.68a2,2,0,0,0-.65-.69c-.06-.29.2-.52.38-.71a2.5,2.5,0,0,0,.6-1.81,2.25,2.25,0,0,0-.3-.88c-.24-.57.52-1.47.89-1.79a2.77,2.77,0,0,1,.7-.49,1.09,1.09,0,0,0,.33-1.85,2.11,2.11,0,0,1-.59-.88c-.26-.92.71-1.77,1.13-2.47a2.11,2.11,0,0,1,1.71-1.1,1,1,0,0,1,1,.32,2.16,2.16,0,0,1,.47,1.64c.28,1.09.9,2.61,2.21,2.6a6.49,6.49,0,0,1,1.57.24h.21c.87.06,1.44-1.07,1.42-1.83a1.91,1.91,0,0,0-.39-.87c-.13-.18.1-.43.29-.42.7,0,.59.83.62,1.33.38.71,1.35.22,2,.23a2.7,2.7,0,0,0,1-.17c.25.09.46,0,.72-.13a1.59,1.59,0,0,1,1,.43,1,1,0,0,0,1.05.29,1.72,1.72,0,0,0,.71-1,1.59,1.59,0,0,1,1.17-1.16,2.21,2.21,0,0,1,1.36.16c.79.31,1.16-.33,1.3-1a5.78,5.78,0,0,1,.12-.57c.16-.6.69-.38,1.14-.43.87-.11.15-1.12,0-1.48a2.5,2.5,0,0,0-1.79-1.42,1.1,1.1,0,0,1-.75-1.38c.24-.49,1,.13,1.29.29a1.86,1.86,0,0,0,2.22-.39,3.14,3.14,0,0,1,.55-.34,1.62,1.62,0,0,0,.41-.27,2.62,2.62,0,0,1,1.88-.44,1.64,1.64,0,0,0,.9-1.45,11.17,11.17,0,0,1,.19-1.73,3.28,3.28,0,0,0,0-1.21,6.1,6.1,0,0,1,.44-2.65,1.07,1.07,0,0,1,1.41-.76c.27,0,.84,0,.65-.45a1,1,0,0,0-.27-.37c-.34-.33.06-1,.32-1.25a5.17,5.17,0,0,1,.54-.49c.41-.31.69-.12,1,.2s.41.33,1.18.57a13.82,13.82,0,0,1,1.3.49,2.58,2.58,0,0,1,1.14.92,5.93,5.93,0,0,0,.57.75,2.66,2.66,0,0,1,.57,1.62,2.87,2.87,0,0,0,.8,1.75,8.23,8.23,0,0,0,.62.92c.23.3.49.55.77.17a1.62,1.62,0,0,0,.06-1.57c0-.51,0-1,0-1.52a2,2,0,0,1,.87-1.51c.42-.35.22-.66-.07-1a2.38,2.38,0,0,1-.4-1.6,1.48,1.48,0,0,1,1-.78,1,1,0,0,1,.51-.27,1.37,1.37,0,0,0,.59-.41c.25-.33.44-.3.73,0a6.54,6.54,0,0,0,2.64.95,1.91,1.91,0,0,1,1,1.15,2.23,2.23,0,0,0,2.23,1.15.91.91,0,0,1,.39-.06,1.19,1.19,0,0,0,1.21-.49c.42-.7.06-1.87-.17-2.58a3.55,3.55,0,0,1,0-2.21,2.5,2.5,0,0,1,.82-1,1.09,1.09,0,0,0,.27-1.3,1.42,1.42,0,0,1,0-1.21c.32-.66.12-.95-.51-1.35a1.15,1.15,0,0,1-.63-1.25,2.77,2.77,0,0,1,.6-1.67,2,2,0,0,0,0-2.32c-.25-.5-.94-.57-1.44-.64-.66-.43-.37-1.17-.39-1.87a2.11,2.11,0,0,1,.42-1.5,1.4,1.4,0,0,0,.3-1.19,2.51,2.51,0,0,1-.06-.72,2.31,2.31,0,0,0-.94-1,1.91,1.91,0,0,1-.49-.52,1.23,1.23,0,0,0-.15-.26c-.17-.12-.24-.59-.28-.8a3,3,0,0,1,.24-1.74c.29-.61,1.11-.39,1.63-.57a6,6,0,0,1,.94-.17c.81-.13,1.09-.84,1.42-1.51a3.1,3.1,0,0,1,1-1.05,4.15,4.15,0,0,0,.69-.63c.36-.5.16-1.16.22-1.73a1.27,1.27,0,0,0-.59-.83c-.55-.4-.84.39-.9.8a2,2,0,0,1-.79,1.46,2.24,2.24,0,0,1-2.19.46l-.18-.48c-.18-.48-.71-1.08-1.28-.77a1.66,1.66,0,0,0-.67.81c-.21.44-.7,1-1.13.43-.32-.41-.19-1.13-.16-1.62a.92.92,0,0,0-.35-.73c-.38-.42-.31-.74-.19-1.26a.81.81,0,0,0-.55-.81,3.31,3.31,0,0,1-.64-.42c-.52-.65.62-1,1-1.21.66-.32.57-1.38.65-2a3.39,3.39,0,0,0-.14-1.38c-.08-.38.11-.61.42-.85a1.16,1.16,0,0,0,.5-1.39,4.25,4.25,0,0,0-.52-.93,2,2,0,0,1-.26-1.26c.09-.25,0-.46-.12-.71a2.09,2.09,0,0,0-.14-.84,2.81,2.81,0,0,1,.22-1.1,2.19,2.19,0,0,0-.18-1.53,1.06,1.06,0,0,1-.08-.43,2.52,2.52,0,0,1,.28-1.31c.19-.23.41.07.52.2a1.46,1.46,0,0,1,.28,1c0,.49.24,1.3.92,1.16a2.83,2.83,0,0,0,2-3.15,2,2,0,0,1,.17-1.17,11.33,11.33,0,0,0,.48-2.15c.07-.28.32-.35.58-.31a6.86,6.86,0,0,1,1.09.44,3.67,3.67,0,0,1,.87.52,4.36,4.36,0,0,1,.26.77,4.8,4.8,0,0,0,.21.73c.18.58.92,1.07,1.32.41a1.57,1.57,0,0,0,.22-.81,5.33,5.33,0,0,1,.28-1,1.58,1.58,0,0,0-1.09-2.25c-.73-.18-.66-.75-.24-1.2.93-1,.67-2.43.67-3.69.25-.76.88-.89,1.53-1.23a6,6,0,0,0,1.62-1.35,6.07,6.07,0,0,1,1.78-.94,4.54,4.54,0,0,0,1.58-1.53,2.69,2.69,0,0,0,.66-2,3.28,3.28,0,0,1,.2-1.58,5.45,5.45,0,0,0,.29-1.54,3.3,3.3,0,0,0,.15-2.39,3.44,3.44,0,0,0-2.09-1.79c-.34-.09-.78-.46-.32-.73,1.13-.68-.37-1.72-1-2.14a5.14,5.14,0,0,1-.75-.65,3.69,3.69,0,0,0-.68-.56c-.68-.69-1.4-.11-2.18,0a1.76,1.76,0,0,1-1.76-.95,2.45,2.45,0,0,1,.22-1.83c0-.66-.58-.74-1.11-.58a1.53,1.53,0,0,1-1,0c-.66-.19-.76-1.15-.94-1.73a2.7,2.7,0,0,1,0-1,9.42,9.42,0,0,0,.16-1.3,4,4,0,0,1,.32-1,.79.79,0,0,1,1.13-.44c.5.24.64.84.88,1.3a3.08,3.08,0,0,1,.38,2.05c-.08.44,0,1,.5,1.07a1.75,1.75,0,0,0,.88-.34,1.81,1.81,0,0,1,1-.17l.7-.23c1.3-.39,1.2-1.63.77-2.65-.3-.7-.53-1.42-.77-2.15-.1-.33-.28-.8-.67-.89a3.18,3.18,0,0,1-1.23-.68c-.37-.35-.87,0-1.18.2-.54.41-.88-.23-1.16-.62a2.06,2.06,0,0,0-1.22-.71c-.64-.13-.66-.73-.46-1.25a1.29,1.29,0,0,0-.38-.88,1.41,1.41,0,0,1-.16-1.49,2.56,2.56,0,0,0,.08-.91c.14-.17.5.49.57.63a2.52,2.52,0,0,0,1,1c.54.32.28,1.1-.08,1.5s.12.83.37,1.13a1.09,1.09,0,0,0,1.82,0c.48-.75.06-1.65-.17-2.41,0-.15,0-.3,0-.45a3.48,3.48,0,0,0-.07-.64c-.17-.72.48-.91,1-.77a3,3,0,0,1,2,2,2.43,2.43,0,0,0,1,1.2c.66.38,1.26.09,1.9-.15.44-.17.86-.38.86-.9a1.86,1.86,0,0,0-.65-1.36c-.69-.45-.75-1-.7-1.79a1.22,1.22,0,0,0-.38-.88c-.5-.61-1.09-.54-1.77-.73-.48-.14-.49-.39-.67-.77s.43-.88.64-1.26c.35-.63-.52-.93-1-.83s-.7.59-.73,1.17a4.08,4.08,0,0,1-.73,1.65,2.76,2.76,0,0,0-.7.78c-.21.36-.28.42-.43.39-.4-.08-.82-.66-1.11-1l-.44-.35a1.27,1.27,0,0,1-.53-1.15.43.43,0,0,0-.19-.34c-.28-.24-.45,0-.65.23s-.61.38-.59-.11.49-1.78,1.2-1.07c.31.3.84-.17,1-.4a1.7,1.7,0,0,1,1-.75c.54.26.73.77,1.1,1.2s1.41.15,1-.57a1.16,1.16,0,0,1,0-1.14c.42-.87,0-1.58-.16-2.46s-.48-1.57-1.33-1.69a1.72,1.72,0,0,0-1.24.48c-.34.29,0,.87.06,1.21a1.27,1.27,0,0,1-.25,1.34,3.9,3.9,0,0,1-1.6,1.22c-.82-.39-.57-1.23-.82-1.94a1.46,1.46,0,0,1,.09-1.24c.24-.49.73-.45,1.2-.38.26,0,1,.06.92-.38a6.09,6.09,0,0,0-.88-1.79c-.16-.27-.3-.55-.44-.83A1.94,1.94,0,0,0,221.28,97c-.62.15-1.73-.11-1.69-1,0-.65.61-1,1-1.47a2.57,2.57,0,0,0,.2-1.66c0-.91,1.17-.31,1.65-.11a10.85,10.85,0,0,0,1.13.41,3.15,3.15,0,0,0,2.26-.77,3,3,0,0,0,1.33-1.86,5.9,5.9,0,0,1,.27-1.45,2.46,2.46,0,0,0,0-1.81,4.43,4.43,0,0,0-1.67-2c-.59-.63-1.36-.46-2.09-.21a5.58,5.58,0,0,0-1.4,1,7.47,7.47,0,0,0-2.06,2.82c-.12.25-.36.6-.63.28a3.06,3.06,0,0,1-.37-.63,3.1,3.1,0,0,0-.64-.89,2.93,2.93,0,0,1-.68-2.16c0-.84-.41-1.16-1.13-1.5a6.62,6.62,0,0,1-1.13-1.29,8,8,0,0,0-2.83-1.94c-.29-.14-.64-.39-.64-.76a2.56,2.56,0,0,0-.71-1.74,3.5,3.5,0,0,1-1.51-1.65,6.2,6.2,0,0,0-2.78-3.21,3.89,3.89,0,0,1-.95-.7l-.11-.23a2.55,2.55,0,0,0-.29-.48,3.72,3.72,0,0,1-.38-1.25c-.55-.45-1-.18-1.39.36s-1.12,0-1.5-.45c-.71-.67-1.56-.56-2.44-.81a2.28,2.28,0,0,0-1.33.66c-.68.62-2.33,1-2.71-.14a15.84,15.84,0,0,0-1-1.92,2.24,2.24,0,0,0-.35-.46c-.2-.58-.5-1.14-.75-1.71s-.52-1.41-.77-2.11-.7-1.53-1-2.3a3.81,3.81,0,0,0-2.1-1.82,2,2,0,0,0-1.94.05A18.9,18.9,0,0,1,185,61c-.55.13-.75-.43-.25-.68l.59-.29c1.19-.61,1.4-1.68,1.47-2.89,0-.82-1-.7-1.43-.56A2.17,2.17,0,0,1,183.2,56a7,7,0,0,1-.07-2.7,2.44,2.44,0,0,0-1.82-1.47,1.55,1.55,0,0,1-.9-.67c-.46-.58-1.4-.59-2.06-.83a4.74,4.74,0,0,0-2.76-.19c-.91.21-1.13-.5-1.85-.85a1,1,0,0,0-.66,0c-.85-.12-1-.85-1.34-1.55s-1.64-.91-2.41-1a1.23,1.23,0,0,0-.89.12,1.66,1.66,0,0,1-1.36.35c-.69-.23-.81-.92-1.23-1.41a1.57,1.57,0,0,0-.91-.44c-.64-.13-.92-.76-1.29-1.23a.55.55,0,0,0-.73-.18,4.86,4.86,0,0,0-1.06,1.19,1.22,1.22,0,0,1-1.12.25c-.74-.35.22-.77.44-1s0-.7-.08-1a6.06,6.06,0,0,0-1.73-1.46c-.76-.44-.77-1.06-1-1.86a1.54,1.54,0,0,1-.07-.56,4.12,4.12,0,0,0,0-.86V38.4c.08-1.15-1.33-2-2.1-2.66l-.18-.35-.24-.41a3,3,0,0,1-.16-.31,1.52,1.52,0,0,0-.19-.28c-.49-.51-.24-1.11-.08-1.7l0-.19c-.1-.77-.9-.84-1.42-1.28s-.06-1,.17-1.42a4.76,4.76,0,0,0,.61-2.91c-.48-.91-1.35-.93-2.22-1.28s-.48-1.32-.27-1.91c0-.77-.85-.84-1.42-.59a1.92,1.92,0,0,0-.57,1.33,2.53,2.53,0,0,1-1.5,1.92,1.37,1.37,0,0,0-1,1.47c0,.77-.74.8-1.37.81a2.74,2.74,0,0,0-1.51.59,2.72,2.72,0,0,1-1.22.83c-.72.25-1.15.75-.91,1.53.08.27.15.54.23.8a2.49,2.49,0,0,1-1,1.74c-.53.47-1.1-.21-1.42-.56a2.13,2.13,0,0,1-.49-.88.78.78,0,0,1-.22-.36,2.72,2.72,0,0,0-.63-.8,2.92,2.92,0,0,0-1.8-.17,4.42,4.42,0,0,0-2.27,1.39,15.9,15.9,0,0,0-2.26,1,5.65,5.65,0,0,0-1.45.44l-.25.05-.49.12c-.52.14-.51.71-.55,1.15-.09.62-.91.8-1.35,1.14a1.05,1.05,0,0,1-1.47-.06A3.45,3.45,0,0,0,126,36a5.73,5.73,0,0,1-1.83-.88,2.41,2.41,0,0,0-1.76-.47c-.5,0-1,.51-1.26.85a4.72,4.72,0,0,0-.73,2.08,10.08,10.08,0,0,0-.22,1.12,2.82,2.82,0,0,1-.65,1c-.27.32-.11,1-.12,1.43,0,.6-.48.14-.6-.13a1.38,1.38,0,0,0-.28-.4c0-.14-.07-.29-.1-.43a2.45,2.45,0,0,0-.18-1.5,3.06,3.06,0,0,0-1.6-2.16,13.28,13.28,0,0,1-2-1.47,3.59,3.59,0,0,1-.46-.41,2,2,0,0,0-.6-.33,3,3,0,0,1-1.06-.78,6.9,6.9,0,0,0-2.94-1.76,4.73,4.73,0,0,1-2.16-1.15c-.39-.34-1-.27-1.43-.36s-.45-.67-.55-.95c-.35-.63-1-.84-1.58-1.24a1.45,1.45,0,0,0-.49-.26c-.28,0-.21.51-.16.67s.13.44.2.66c.14.49.25,1.43-.42,1.55s-1.58-.63-1.9-1.21a5.91,5.91,0,0,0-2.65-2.07,4.06,4.06,0,0,1-2-2.1l-.1-.09a2.1,2.1,0,0,0-.27-.24,1.53,1.53,0,0,1-.38-.46,3.52,3.52,0,0,0-.69-.75l-.07-.13a3.19,3.19,0,0,1-.25-1.17.63.63,0,0,0-.69-.59,2,2,0,0,0-1.14.88c-.29.41-1,.17-1.46.1a3.16,3.16,0,0,0-1,.08,3,3,0,0,1-1.92-.82,6.85,6.85,0,0,0-2.35-.56,1.49,1.49,0,0,1-1.67-.4,4.15,4.15,0,0,0-1.53-.93,5.09,5.09,0,0,1-1.25-.74A5.79,5.79,0,0,1,81.12,18c-.23-.66-1-.84-1.55-1a3.66,3.66,0,0,1-.68-.42,8.94,8.94,0,0,0-2.68-1.15,5,5,0,0,0-1-.26,2.9,2.9,0,0,1-.71-.49,2.34,2.34,0,0,0-1.42-.79c-.68,0-.95.72-1.2,1.23A8,8,0,0,1,69.32,18c-.6.43-.23,1,0,1.46.38.76,1.23,1.14,1.89,1.61A1.82,1.82,0,0,1,72,22.15a4.14,4.14,0,0,0,1,1.19c.52.46.44,1.49.45,2.1l.08.18c.26.57.85.37,1.34.28a1,1,0,0,1,1.14.67c.15.81-1,.53-1.44.39a1.79,1.79,0,0,0-1.67.13c-.28.14-.56.28-.84.39-.67.26-1.15-.68-1.48-1.09a4.13,4.13,0,0,0-.56-.62c-.09-.27-.19-.53-.3-.79a1.65,1.65,0,0,0-1.83-1,2,2,0,0,1-1.66-.51,3.27,3.27,0,0,1-.66-1,1.22,1.22,0,0,0-.84-.57c-.79-.08-1.6.55-2.31.8a3.12,3.12,0,0,1-.44.09,5.26,5.26,0,0,1-2.66-.46l-.47,0-1.13.39a2.13,2.13,0,0,0-1.16,1.66,2.78,2.78,0,0,1,.11.63c0,.25-.34,0-.51-.09a1.88,1.88,0,0,0-1.71-.08l-.53.24a2.07,2.07,0,0,1-1,.28,1.15,1.15,0,0,0-.42.05,2.61,2.61,0,0,1-1.58-.2,1.5,1.5,0,0,0-1.25-.34,1,1,0,0,1-.3.05c-.16-.05-.4.06-.56.1a12.49,12.49,0,0,0-2.67.82h-.18a1.48,1.48,0,0,0-1.36.7c-.35.73.48,1.29,1,1.61a5.94,5.94,0,0,1,1,.8A4.65,4.65,0,0,0,48,30a6.53,6.53,0,0,1,.92.53,1.71,1.71,0,0,1,.38.46,3.62,3.62,0,0,0,2.37,1.91,3.17,3.17,0,0,1,1.52,1,4.63,4.63,0,0,0,1.48.34,2.75,2.75,0,0,1,.87.72,6.33,6.33,0,0,1,1.32,1.1,2.36,2.36,0,0,1,.33.58c.42.84,1.23.66,2,.8s1.09.49,1.56,1.13a1.9,1.9,0,0,0,1,.79c.42.21.82.4,1,.85a2.52,2.52,0,0,0,.44.76c.14.53.31,1,.49,1.56l0,.15a4.13,4.13,0,0,1,0,.93c0,.61.59,1,1.13,1.11s.44.58.34,1A9.11,9.11,0,0,1,64.71,47a5.47,5.47,0,0,1-.46.93,3.16,3.16,0,0,0-.42,1.3,5.49,5.49,0,0,1-1.58,2.22,2.13,2.13,0,0,0-.71,1.09,3.62,3.62,0,0,1-1.28,1.56.89.89,0,0,0-.24.75,2.85,2.85,0,0,1-.66,1.72c-.36.39-1.31.53-1.54-.06a1.36,1.36,0,0,1,.8-1.52.89.89,0,0,0,.26-.15,1.15,1.15,0,0,1,.21-.13c.35-.18.85-.5.62-.92-.36-.68-1.12-.06-1.68-.07a8.47,8.47,0,0,1-1-.1,2.87,2.87,0,0,0-1.59.59c-.4.23-.8-.6-1-.83-.83-.6-1.72,0-2.19.71s-1.09.79-1.79,1.05a3,3,0,0,0-1,.84c-.28.35-.57.56-1,.35-.62-.3-.41-.87-.12-1.35s.35-1.42-.49-1.48a1.68,1.68,0,0,0-1.6.76c-.12.15-.37.31-.54.14s0-.31.07-.73a2.41,2.41,0,0,0,.1-.88,1.27,1.27,0,0,1,0-.31c.08-.28-.2-.84-.3-1.12-.16-.46-.78-1.27-1.33-.77-.39.34.12.77.27,1.08.4.86-.66,1-1.25,1.16-.84.23-.82-.45-1.23-.93-.26-.31-.45-.3-.81-.24-.58.09-.82,1-.95,1.45a3.68,3.68,0,0,1-1.29,2,3.89,3.89,0,0,0-.79.83l-.28.23c-.45.35-.44.69-.46,1.24,0,1,.74,1.64,1.21,2.48a1.54,1.54,0,0,1-.43,1.82,13.52,13.52,0,0,0-1.86,2.88,2.6,2.6,0,0,1-.4.33,1.94,1.94,0,0,0-1,1.44c-.36,1.86-2,3.12-3.17,4.54a3.92,3.92,0,0,0-.43,2.25,5.37,5.37,0,0,1-1,3.19,4.43,4.43,0,0,0-.68,3.59A4.45,4.45,0,0,1,30,81.32a3.05,3.05,0,0,0,.17,1.08c-.14.51.74,1,1.05,1.27a11.19,11.19,0,0,0,2.12,1.48l.39.38.11.24a3.18,3.18,0,0,0,.23.4,8.63,8.63,0,0,0,1.24,1.54l.19.31a2,2,0,0,1,.16,1.86,3.57,3.57,0,0,0,.07,2.39,4.25,4.25,0,0,1,0,2.21,5.19,5.19,0,0,0,.06,1.42A1.21,1.21,0,0,1,35.56,97a2,2,0,0,1-2,.5,2.41,2.41,0,0,0-2.53.94.78.78,0,0,1-1.1.19,5.66,5.66,0,0,1-.86-.48,1.6,1.6,0,0,1-.72-1.29,6,6,0,0,0-.48-1.35,12,12,0,0,1-.6-1.75,8.74,8.74,0,0,0-.55-1.39c-.16-.35-.28-.71-.41-1.07a1.49,1.49,0,0,0-.61-.77,2.57,2.57,0,0,1-.59-.55,1.81,1.81,0,0,1-.07-.69c.08-.56-.45-1.07-.81-1.44a2.38,2.38,0,0,1-.43-.8,3.41,3.41,0,0,0-.54-.71l-.18-.51a5.08,5.08,0,0,1-.16-1.17c-.13-1.34-1.54-1.69-2.38-2.53a3,3,0,0,1-.34-.4c-.65-1-1.69-.27-2.43.15a2.49,2.49,0,0,1-2.26.12c-.53-.15-.55-.55-.61-1a2.7,2.7,0,0,0-1.33-2.41,5.87,5.87,0,0,0-2-.34,8,8,0,0,0-.91-.06c-.91,0-1.19-.8-1.77-1.33a1.39,1.39,0,0,0-1.47-.37,6.13,6.13,0,0,0-1,.48,2.55,2.55,0,0,1-1,.07c-.63,0-1.3.65-1.73,1a2.14,2.14,0,0,1-.81.44l-.26.2a3.52,3.52,0,0,1-1.19.43A2.22,2.22,0,0,0,.13,81.49a6.4,6.4,0,0,0,1.06,2.16,4.37,4.37,0,0,1,.45.78,4,4,0,0,1,.7,1,1.5,1.5,0,0,0,.22.37c.57.7,0,1.73-.06,2.52a3,3,0,0,1-.11,1,2.29,2.29,0,0,0,0,1.59,4.91,4.91,0,0,1,.45,2.39,3.5,3.5,0,0,0,2,3,3.08,3.08,0,0,1,.7.48,2.2,2.2,0,0,0,2,.6c.37-.11.62-.62.84-.92l.62.23c.35.45,1.19.09,1.53-.2a3,3,0,0,1,3.24-.1c.5.25.31.76,0,1a6.88,6.88,0,0,0-1.07,1c-.52.63-.11,1.27.24,1.85a1.91,1.91,0,0,0,2.22.84,1.94,1.94,0,0,1,1.48.25,4.12,4.12,0,0,0,1.55.43.83.83,0,0,1,.47.74,3.06,3.06,0,0,0,1.87,1,3.15,3.15,0,0,1,1.21,1,3.19,3.19,0,0,0,.66.61,4.45,4.45,0,0,0,1.2,1.17,5,5,0,0,1,.59.54A4.64,4.64,0,0,0,25.51,108l.72.63.13.21a12.26,12.26,0,0,1,.69,1.29,9.94,9.94,0,0,1,.68,1.44c.22.29.43.58.63.88a5.3,5.3,0,0,1,.13,1.59c0,.14.06.28.1.41.33.79.84.6,1.53.32a.47.47,0,0,1,.59.31,1.22,1.22,0,0,1-.31,1,15.45,15.45,0,0,0-1.22,2.13,3.84,3.84,0,0,1-1.34,1.46,1,1,0,0,0-.83,1.27,2,2,0,0,1-.22,1.44,2.36,2.36,0,0,0-.3,1,3.27,3.27,0,0,1-.22,1.2,2,2,0,0,0,0,1c-.09.37-.17.74-.25,1.11-.29.6-1.2,1-1.78,1.37s-.94,1-.43,1.49a2.1,2.1,0,0,0,.54.82l.05.17a3.24,3.24,0,0,0,.13.31,1.26,1.26,0,0,1,0,.72,4.85,4.85,0,0,0-.29,3.62,3.06,3.06,0,0,1-.23,2.31l-.06.53q0,.63-.06,1.26a11.47,11.47,0,0,1-1.23,3.12,1.8,1.8,0,0,0,.55,2.18,8.59,8.59,0,0,0,1.1.42c.52.48,1.17,0,1.7-.2a4.24,4.24,0,0,0,1.37-.92,1.93,1.93,0,0,1,.74-.38l.1-.1c.27-.26.54-.52.8-.79a2.17,2.17,0,0,1,.8-.48,5.32,5.32,0,0,0,1.59-1.17,1.22,1.22,0,0,1,1.35.14,4.51,4.51,0,0,0,1.44.47c.75.32.92,1,1.17,1.69a5.12,5.12,0,0,0,1,2.1c.51.66.73.89,1,1,.6.29.85.07,1.23-.37s.81-.12,1,.41A1.94,1.94,0,0,1,39,148c-.38.51-.48,1.16.28,1.29l.7.14a1.55,1.55,0,0,0,1,0,7.92,7.92,0,0,1,.72-.35c.51-.21.62.69.86,1,.69.8,2,.63,2.89.84a1.49,1.49,0,0,0,.77-.06c.58-.19.67.09.64.6a2,2,0,0,1-.36.54c-.69.71-.36,2-.07,2.86a1.08,1.08,0,0,0,1.18.81,1.38,1.38,0,0,0,.88-1.75,1.7,1.7,0,0,1,.5-1.89,3.77,3.77,0,0,1,1.35-.53c.83-.24,1.05,1.15,1,1.76,0,.4,0,1,.48,1.09a1.41,1.41,0,0,0,1-.44c.48-.38,1.24-1.08,1.31-1.73s-.32-1-.7-1.44A2.25,2.25,0,0,1,53,148.4a4.08,4.08,0,0,0,.24-1.42c0-.38.1-1.1.65-1.07a1.65,1.65,0,0,1,.88.4c.24.22.78.17,1.09.2.57.07.88,1,1.15,1.41a3.43,3.43,0,0,0,1.66,1.35A8.28,8.28,0,0,0,61,150.51,3.12,3.12,0,0,1,62.4,152a3.9,3.9,0,0,0,.48.65,6.07,6.07,0,0,1,.63.81l.16.18c.25.28.12.62,0,.91-.32.66,0,.93.64,1a4.41,4.41,0,0,1,.72.16,3.44,3.44,0,0,1,1.55,1c.37.62-.24,1.54-.34,2.18-.16.94,1.12,1.44,1.66,2s.19,1.27,0,1.87l.15.54c.19.72-.23,1.65-1,1.55-.3,0-.9.21-.68.63s.75.32,1.08.32a3,3,0,0,1,.89.09c.43.15.54.72.73,1.1a5,5,0,0,1,1,2.06,2.32,2.32,0,0,0,1.07,1,2.67,2.67,0,0,1,.63.43l.18.38a7.12,7.12,0,0,0-.11,1.53,4.14,4.14,0,0,1-.2,1.48c-.36.84,1,1.23,1.55,1.22s.75.78,1,1.24a3.4,3.4,0,0,0,.31.52c.24.31-.13.82-.31,1.09-.62.93.45,1.5.73,2.29a3.51,3.51,0,0,0,.54,1,3.06,3.06,0,0,1,.34.54,3.74,3.74,0,0,0,.45.67,3.79,3.79,0,0,1,.64,1.72,1.8,1.8,0,0,0,.38.83,4,4,0,0,1,.06.69,3.4,3.4,0,0,0,0,.43,2.29,2.29,0,0,1,.07.28c.12.59-.74.91-1.2,1-.24,0-.48.08-.71.12s-.47.08-.71.12a5.72,5.72,0,0,0-.57.11,3.93,3.93,0,0,1-1.28,0,2,2,0,0,0-2,1,3.86,3.86,0,0,1-1.22,1.38l-1.2.47A2.88,2.88,0,0,0,67.1,194a4.17,4.17,0,0,1,.11,1.32c0,1.48-.86,2.86-1.42,4.19l-.09.2a.84.84,0,0,0,1.36.94c.84-.8,1.49.21,2.08.75.37.33,1.06.58,1.44.05.15-.21.59-.2.84-.21,1,0,.82-1.3.93-1.94.17-1.07,1.43-.74,2.21-.67.25,0,.6,0,.67-.28s-.43-.39-.62-.43c-.34-.07-.63-.44-.84-.69-.38-.45-.78-1.33-.34-1.85.67-.81,1.9-.08,2.52.37a6.34,6.34,0,0,0,2.24,1.14,2.38,2.38,0,0,0,2.41-.7,3.66,3.66,0,0,1,2.72-.87,3,3,0,0,0,1.8-.56,1.11,1.11,0,0,1,.95-.24c.34.16.38.93.46,1.26a1.38,1.38,0,0,1,0,.67c-.37,1.12.18,2.68,1.46,2.81,1,.11,1.35-1.24,1.94-1.85a.9.9,0,0,1,1.55.21,1.57,1.57,0,0,1-.28,1.83c-.58.79-1.3.53-2.15.35-.58,0-1,.59-1.1,1.13a2.21,2.21,0,0,0,.31,1c0,.63-.24,1.71-1,1.89a3,3,0,0,1-1.15,0c-1-.14-1.4.35-1.46,1.26.51,1.23,2,1.66,3.22,1.74a8.12,8.12,0,0,0,1.8-1.76c.85-.78,1.93-.1,3-.11a2.87,2.87,0,0,1,1.27.19c.4.19.2.78.15,1.1-.07.57-.12.86-.68,1a2.21,2.21,0,0,0-.65.34,1.16,1.16,0,0,0-.46,1.39,4.81,4.81,0,0,0,.2.53c.4.92-.72,1.5-1.28,2a1.61,1.61,0,0,0-.35.43c-.33.67.83.94,1.18,1.3.49.51-.19,1.32-.29,1.88s0,1.23.69,1.32a3.79,3.79,0,0,0,1.2-.14,3.2,3.2,0,0,1,2.11.79,1.3,1.3,0,0,1,.2,2.06,2.46,2.46,0,0,0-.27.63,1.84,1.84,0,0,1-.77,1.06,2.58,2.58,0,0,0-.85,1.45c0,.35.41.24.58.1.83-.64,2.12-.13,2.86.43s1.39.15,2-.31c.18-.14.84-.45,1-.26s0,.25-.33,1a7.49,7.49,0,0,0-.46,1.12c-.06.38.39,1.06.74.55a1.9,1.9,0,0,0,.24-.52c.33-1,1.3-.76,2.11-.6a1.07,1.07,0,0,1,.28.55c.16.57.33,1.14.5,1.71.32,1.1,1.83,1.36,2.79,1.64.7,0,.78-.76.75-1.33s.18-1.38.76-1.51a4.21,4.21,0,0,1,1.44.23,2.59,2.59,0,0,1,1.14.47c.52.25.89-.21,1.32-.4a3,3,0,0,1,1.78-.19c.62.14,1-.84,1.31-1.22a2.93,2.93,0,0,1,1.31-.64,2.09,2.09,0,0,1,2.3.37c.29.37.11.9,0,1.28a8.21,8.21,0,0,1-1.21,2,2,2,0,0,0-.51,1.42c.11,1.13,1.45.87,2.19,1.23s.15,1.21,0,1.67a5.66,5.66,0,0,0-.57,1.09,2.52,2.52,0,0,1-.82,1.16,2.16,2.16,0,0,1-.8,0,1.28,1.28,0,0,0-1.55,1.23,1.75,1.75,0,0,0,.73,1.8Z"/></g></g><path class="cls-1" d="M234.67,237.49H0V13.76H234.67"/><g class="cls-4"><path class="cls-3" d="M145.18,18a4.49,4.49,0,0,0,1.89,1.09c.58.28,1.73.79,2.38.36a5.6,5.6,0,0,0,.49-.36c.14-.23.39-.26.64-.35l.07-.07a2.45,2.45,0,0,1,.95-.39l.88-.32,1.17-.51a13.17,13.17,0,0,0,1.2-.57,1.52,1.52,0,0,1,.67-.09,2.39,2.39,0,0,0,2.1-1.65,1.29,1.29,0,0,1,.73-.8,1.86,1.86,0,0,0,.57-.39c.78-.87.71-2,1-3l0-.18a1.89,1.89,0,0,0-1.08-1.28,3.77,3.77,0,0,1-.89-.7,2.81,2.81,0,0,1,0-1.72c.26-1-1-1.13-1.61-1.72a.89.89,0,0,1-.16-.22A4.83,4.83,0,0,0,154,3.43a1.84,1.84,0,0,0-1.2-.12.81.81,0,0,1-.31,0c-.14,0-.35.08-.49.12a1.37,1.37,0,0,1-1.63-.76,2.69,2.69,0,0,0-.75-1c-.74-.61-1.47.48-2.06.75a1.33,1.33,0,0,1-.92.12c-.29-.07-.73-.16-1,.12s-.09,1,0,1.34a3.71,3.71,0,0,1-.07.74,4.35,4.35,0,0,0-.07.75,1.68,1.68,0,0,1-1,1.59,3.29,3.29,0,0,0-1.32,1.39,10.07,10.07,0,0,1-.95,1.3c-.33.35-.62.87-.32,1.31a5.87,5.87,0,0,0,.65,1A2.65,2.65,0,0,1,143,13c.16.22.29.46.43.69a4.37,4.37,0,0,1,.7,1.74c.47,1.42.51,1.56.57,1.73a2.68,2.68,0,0,0,.51.86Z"/></g><path class="cls-1" d="M141.51,1.41h18.7V19.76h-18.7Z"/><g class="cls-5"><path class="cls-3" d="M198.82,26.26a1.27,1.27,0,0,0,1.43.65,1.34,1.34,0,0,1,1.08.2c.94.61,1.92-.18,2.86-.45.64-.18,1.12-.91,1.53-1.4a3.19,3.19,0,0,0,.81-2.24,7.25,7.25,0,0,1,.05-1c.15-1.14-1.24-1.27-2-1.71a1.15,1.15,0,0,0-1.2-.09,4.3,4.3,0,0,0-1.78.42,3.25,3.25,0,0,0-1.41.8l-.14.3a1.9,1.9,0,0,1-.66,1.22,2.81,2.81,0,0,0-1.1,2.12,3,3,0,0,0,.48,1.22Z"/></g><path class="cls-1" d="M198.32,19.76h8.47v7.76h-8.47V19.76Z"/><g class="cls-6"><path class="cls-3" d="M124.41,19.91l.23.19.22.11a1,1,0,0,1,.44.12,2.12,2.12,0,0,0,1.75-.2,2.37,2.37,0,0,1,1.77.19,3.35,3.35,0,0,0,1.59.3c.38-.05.59-.49.77-.78a3.46,3.46,0,0,1,.49-.64,4,4,0,0,0,.57-.67,1.16,1.16,0,0,0,.37-1.17c-.08-.34-.1-.7-.15-1.05,0-1.1-1.49-.71-2.17-.87a3.69,3.69,0,0,0-.58-.09,3.29,3.29,0,0,0-2.18.78,7.92,7.92,0,0,1-.63.54,6.41,6.41,0,0,0-1,1l-.71.32c-.75.37-1.63,1.26-.79,2Z"/></g><path class="cls-1" d="M123.86,15.17h8.83v5.65h-8.83Z"/><g class="cls-7"><path class="cls-3" d="M221,166.42c.41.47.78.44,1.3.68a1.79,1.79,0,0,0,.6.14,2.55,2.55,0,0,1,.77.23c.61.3.88.11,1.19-.47.19-.37.4-.74.61-1.11a2.12,2.12,0,0,0,.4-1.51.9.9,0,0,1,0-.43,5.21,5.21,0,0,1-.28-.52,9.72,9.72,0,0,1-1.48-1.78c-.54-.7-1.66-.2-2.33,0a1.36,1.36,0,0,0-1,1.16,3.15,3.15,0,0,1-.44,1.29,1.31,1.31,0,0,0,.14,1.78,6.63,6.63,0,0,1,.52.54Z"/></g><path class="cls-1" d="M219.85,161.27h6.35v6.35h-6.35Z"/><g class="cls-8"><path class="cls-3" d="M173.16,24.64c.63.77,1.61.73,2.47,1a1.77,1.77,0,0,0,.73.1,1,1,0,0,1,.3-.05c.26.07.75-.28.93-.43a1.31,1.31,0,0,0,.44-.94c-.29-.71.19-1.25.29-1.93s-.7-1-1.08-1.47a1.68,1.68,0,0,0-1.19-.73,2.77,2.77,0,0,0-2.64,1.24c-.6.95-1,2.25-.25,3.2Z"/></g><path class="cls-1" d="M172.56,20.11h6v5.65h-6Z"/><g class="cls-9"><path class="cls-3" d="M114.19,8.21c.69.81,2.06.46,3,.51s.7-1.34.7-1.9c0-.33,0-.65,0-1a2.63,2.63,0,0,0-.49-1.31,2.23,2.23,0,0,1,0-.68c0-.27,0-.67-.31-.82a.85.85,0,0,0-.76.05,6,6,0,0,1-1.69.65,1.6,1.6,0,0,0-.83.77c-.56,1.15-.16,2.1.21,3.21a1.11,1.11,0,0,0,.24.5Z"/></g><path class="cls-1" d="M113.28,2.82h4.94v6h-4.94Z"/><g class="cls-10"><path class="cls-3" d="M20,25c.38.76,1.34.53,2,.65.94.18,1.64-.94,2.06-1.57.65-1.33-.82-2.55-1.66-3.32-.69-.25-1.11.39-1.59.8A2.82,2.82,0,0,0,20,25Z"/></g><path class="cls-1" d="M19.41,20.47h4.94v5.29H19.41Z"/><g class="cls-11"><path class="cls-3" d="M186.72,40.61a1.41,1.41,0,0,0,1.55.49,3.64,3.64,0,0,0,.75-.47,3.06,3.06,0,0,1,.73-.45,4.5,4.5,0,0,0,.57-.66,1,1,0,0,0,0-1.13,2.25,2.25,0,0,1-.12-1.26c-.36-.67-1.4-.14-2-.14a2.47,2.47,0,0,0-1.94,1.15,2.24,2.24,0,0,0,.45,2.47Z"/></g><path class="cls-1" d="M186,36.7h4.59v4.59H186Z"/><g class="cls-12"><path class="cls-3" d="M176.28,3.84l.43.4.25.15a1.15,1.15,0,0,0,1.37-.32,3.56,3.56,0,0,0,1.23-2.34,1.4,1.4,0,0,0-.89-.64,1.49,1.49,0,0,1-.75-.5c-.45-.55-1.17-.76-1.57-.06a8.39,8.39,0,0,0-.69,2.16c0,.12,0,.25.05.37a2.42,2.42,0,0,0,.57.78Z"/></g><path class="cls-1" d="M175.39,0h4.23V4.59h-4.23Z"/><g class="cls-13"><path class="cls-3" d="M139.2,3.19c.36.42.9.25,1.4.26a2.13,2.13,0,0,0,2-1.87c.11-.93-1.25-1.3-2-1.34-1,0-2.19.6-1.91,1.74a.7.7,0,0,1,0,.33c-.06.23.3.73.43.88Z"/></g><path class="cls-1" d="M138.69,0h4.23V3.53h-4.23Z"/><g class="cls-14"><path class="cls-3" d="M143.82,238.76c.13.35.37.79.79.81,1.14.06,1-1.68,1.45-2.4a1.89,1.89,0,0,0,.27-.65c0-.52-.69-.51-1.05-.55a1.61,1.61,0,0,0-1.62,2,.68.68,0,0,1,0,.4l.15.41Z"/></g><path class="cls-1" d="M143.27,235.73h3.18v3.88h-3.18Z"/><g class="cls-15"><path class="cls-3" d="M177.81,42.36c.27.52,1.28.74,1.82.77a2.4,2.4,0,0,1,1.19-.11.56.56,0,0,0,.51-.94,3.24,3.24,0,0,0-2.86-1,1.08,1.08,0,0,0-.66,1.32Z"/></g><path class="cls-1" d="M177.5,40.93h4.24v2.48H177.5Z"/><g class="cls-16"><path class="cls-3" d="M122,25.11a1.16,1.16,0,0,0,2-.3c.48-1-1.17-1.67-1.92-1.27S121.65,24.66,122,25.11Z"/></g><path class="cls-1" d="M121.39,23.29h2.83v2.47h-2.83Z"/><g class="cls-17"><path class="cls-3" d="M222.39,185.35c.05.4.71.53,1,.47.66-.59.37-1.4.07-2.07-.12-.25-.82-1.11-1.11-.52A4.23,4.23,0,0,0,222.39,185.35Z"/></g><path class="cls-1" d="M222,182.8h2.11V186H222Z"/><g class="cls-18"><path class="cls-3" d="M149.61,235.63c.22.54,1.12.91,1.53.35s-.06-1.52-.43-1.87c-.2-.21-.39-.14-.63-.08-.61.13-.65,1.17-.47,1.6Z"/></g><path class="cls-1" d="M149.27,234h2.12v2.48h-2.12Z"/><g class="cls-19"><path class="cls-3" d="M88.87,217.82c.21.45,1,.88,1.46.51s.26-.74.22-1.15-.43-1-.83-.87A1.15,1.15,0,0,0,88.87,217.82Z"/></g><path class="cls-1" d="M88.58,216h2.11v2.82H88.58Z"/><g class="cls-20"><path class="cls-3" d="M31.06,44.3c.2.51.94.58,1.4.61s1.23-.31.87-1-1.14-.43-1.75-.25c-.29.09-.66.28-.52.63Z"/></g><path class="cls-1" d="M30.7,43.41h2.82v1.76H30.7Z"/><g class="cls-21"><path class="cls-3" d="M89.48,211.12a.45.45,0,0,0,.62.34c.3-.17.64-.76.29-1.05s-.91.29-.91.71Z"/></g><path class="cls-1" d="M89.28,210h1.41v1.76H89.28Z"/></g><path class="cls-22" d="M128.47,65.21c.92,1.47,1.51.48,1.87,2.63.21,1.19-.29,3,.13,4,.81,2,5.65,1,4.44,4.92-1.36.41-5.56.82-7.3,1.06-5.47.78-8.51,1.66-14.81,2.41l-25.36-.16c-2.66-.22-13.35-2.82-14.82-1.71-.12,2.59,3.11,1.76,4.92,3-.11,1.86-4.26,5.23-.5,6.31,1.85-.79.72-1.37,2.28-2.1,1.79,1,.58,2,2.72,2.41l.78-2.09c5.71-1.08,13.82,3.26,19.91,3.71C113,90.4,107.55,89,117.26,92c3.24,1,1.33,1.09,2.74,3.21,2-.2,3.26-3,5.16-2.85,0,.12-.5,9.42-.19,12.21a109.29,109.29,0,0,1,.33,12.69c0,2.44.27,3.94.39,6.13s-.81,3.4-.35,5.29c1.33,5.49-1.3,1.43.18,11.32l2.77,16.75c.35,3.55.09,2.09,1.28,5.22.54,1.42,1.14,6,2.77,10.24,2.93,7.62-1.35,5.68,2.56,10.49-.2,1.52-.7,3.48-1.77,4.4-2.36,2-1.37,1.26-1.15,3.54-2.95,1.85-3.5,4.86-7,5.1-1.5.1-3.66.26-4.68,1.48-1.36,1.61-.3,3.07,1.48,3.58,6.65,1.9,11.91.62,16.18.65,3.23,0,3,.22,5.68-.82a30.53,30.53,0,0,0,0-6c-.45-3.53.94-2-1.1-4.68,2.44-1.92,1.6-4.39,1.59-7.67,0-1.42.31-7.92.87-8.69,1,.67,1.4,6.9,1.39,7.94,0,1.38-.43,1.36-.35,3,.13,2.59,1.47,2.21.78,5-.9,3.63-.66-1-1.18,5.75-.37,4.9.46,6-3.32,9.31-2.33,2-5.7,3.67-6.64,6.84,3.34,5.56,13.67.92,17.95-1.65,3.8-2.29,2.26-2.47,2.5-5.27.19-2.22.58-.13.06-2.82a5.16,5.16,0,0,1,.24-3c1.24-2.87,1.49-19,1.49-22.91,0-4.35.57-11.07-2.26-14.61-2.1-2.64-.42-2.67.15-5.87a37.53,37.53,0,0,0,.07-8.14c-.36-2.85,4.68-25.52,5.54-27.59a36,36,0,0,0,2.87-18c-.37-3.57,1.22.58-.27-10.78l-1.24-7.18c-1.32-5-3.65-6.62-8.15-8.69-3.18-1.47-4.29-1-6.65-1.78-3.1-1.07.58-4,2.13-12.38a9.33,9.33,0,0,0-6.19-10.4c-2.58-.75-9.5.13-12.16,3.56-.74,1,.13,1.28,0,2.58-.2,1.56-.95,1.29-1.14,3-.16,1.45.43,1.6-.46,3.08-.72,1.2-1.15,1-1.56,2.62Z"/></g></g></g></svg>