<svg width="532" height="325" viewBox="0 0 532 325" fill="none" xmlns="http://www.w3.org/2000/svg">
<g filter="url(#filter0_d_229_172)">
<path d="M512 305L47.5634 305L107.5 160.5L47.5634 20L512 20L512 305Z" fill="white"/>
</g>
<path d="M43 75L80.2391 162H5.76091L43 75Z" fill="#00FF19"/>
<path d="M43 249L5.76096 162H80.2391L43 249Z" fill="#00FF19"/>
<path d="M26.4943 176.051V171.705L45.6705 141.364H48.8239V148.097H46.6932L32.2045 171.023V171.364H58.0284V176.051H26.4943ZM47.0341 185L47.0341 174.73V172.706L47.0341 141.364H52.0625L52.0625 185H47.0341Z" fill="white"/>
<path fill-rule="evenodd" clip-rule="evenodd" d="M277.28 131.717L274.226 131.198C274.253 128.69 278.689 110.462 279.597 107.07C280.143 106.781 286.291 104.17 286.555 104.105L277.28 131.717ZM258.063 98.7338L260.195 98.6497L260.271 100.999L258.512 100.972L256.577 100.987L255.98 98.9543L258.063 98.7338ZM283.962 92.8569L287.066 93.9798L286.369 96.0999L283.013 95.0311C281.543 95.1777 281.893 95.4552 281.153 97.1286C280.772 97.9893 280.337 98.7693 279.864 99.5448C280.195 96.9521 281.442 88.1559 282.514 86.6608C283.101 88.6692 283.187 90.0014 282.92 92.1479L283.963 92.8569H283.962ZM212.967 67.5135C216.213 66.5 227.937 62.8363 230.497 62.7664C233.64 68.6562 235.246 69.3702 242.124 69.1176L250.013 97.1828C248.148 96.6588 245.465 94.0633 240.292 93.4903C228.894 92.2286 219.779 96.929 214.473 107.23C213.832 106.348 206.642 81.2261 206.494 79.1128C208.809 77.6559 210.241 77.5618 211.814 74.8907C213.779 71.5546 212.702 70.7142 212.967 67.5135ZM270.607 81.3073L270.545 94.0616L269.585 94.2827L270.26 94.598L272.152 95.145L272.076 97.3412L270.061 97.0739C270.79 99.7388 269.717 104.078 270.202 107.147L273.292 105.136C272.711 108.896 272.024 112.58 271.294 116.21L268.964 127.301C268.857 124.324 268.339 109.723 268.9 108.046C267.674 107.617 268.18 103.762 268.168 102.505C268.16 101.519 268.176 100.51 268.133 99.529C268.049 97.5939 267.541 97.3226 268.985 96.7321L268.167 96.1698L268.084 94.5827L268.7 94.3464C268.052 93.0469 267.862 88.958 267.792 87.2806C267.735 85.9022 267.753 84.5638 267.717 83.1944C267.676 81.7026 267.174 80.3423 268.336 79.9289C267.005 77.5967 267.6 66.9473 267.533 63.5103C267.437 58.6469 266.907 51.9753 267.279 47.3325L272.865 48.3071L274.499 48.5631C274.997 55.3069 275.619 56.8697 282.092 59.6113L276.514 88.3347C273.874 84.6174 273.762 84.4403 270.608 81.3073H270.607ZM247.607 52.893L252.436 52.8101C253.82 55.3086 252.571 56.123 255.614 59.2278C258.439 62.1104 259.476 60.9604 262.221 62.2249L262.737 91.2681C260.526 88.914 257.869 86.4978 254.666 85.4465C255.646 86.7865 257.817 96.7389 257.843 98.5381C254.753 98.8499 256.171 98.1495 255.112 95.7085L251.802 84.2457L243.207 53.4181C241.617 53.8117 239.882 54.2827 238.338 54.7468C236.389 55.3317 235.485 56.0497 233.777 55.4219L234.19 53.0035C236.434 52.457 244.746 52.8642 247.607 52.8935L247.607 52.893ZM286.434 78.8054L284.044 77.2414L289.887 46.425L293.438 47.4797L295.384 48.0871C295.179 51.4909 294.585 52.6747 296.432 55.9228C297.969 58.6272 299.772 58.7123 301.347 60.19L292.207 87.7769C291.111 86.6219 290.455 84.4273 289.472 82.9226C288.498 81.4325 287.038 80.344 286.433 78.8054H286.434ZM256.556 45.2829C258.181 45.2372 263.766 46.1492 265.175 46.9304L256.131 47.0398L256.556 45.2829ZM315.788 49.1756C317.416 49.6268 323.445 53.1417 324.371 54.2832C321.96 59.9136 323.388 63.2841 327.757 67.037L313.017 92.1372C312.67 91.6025 310.706 81.6931 304.722 78.1658H304.276C304.178 80.6999 302.002 82.8814 301.885 85.3743L301.997 85.7522C305.764 89.5062 303.382 91.4068 303.306 95.0627L306.604 96.916C306.427 98.1139 306.271 98.2211 305.495 99.1122C304.145 98.3863 303.196 97.5482 301.775 97.2758C300.87 99.0564 298.68 101.919 296.997 102.65L295.415 101.824L295.467 100.4C294.017 100.468 294.987 100.242 294.463 100.966C295.817 104.047 293.908 103.808 293.259 107.61L292.045 107.848L292.785 108.111C294.852 108.001 296.592 108.386 298.87 108.128C300.902 107.899 302.254 107.31 304.123 106.888L288.742 132.856C287.285 131.463 287.268 130.731 285.112 130.846L284.309 131.458C283.881 130.872 284.14 131.098 283.693 130.892L283.003 130.709C283.882 126.925 285.606 122.898 286.781 119.123C287.397 117.144 288.206 115.267 288.804 113.31L290.219 108.81C291.016 106.977 290.412 107.823 291.452 107.73C291.313 105.634 294.792 95.9865 295.816 93.5923L296.212 91.1858L297.213 91.3409C296.553 89.9591 297.153 88.7684 298.104 87.6754C297.468 86.9851 297.703 87.8006 297.773 86.645C297.78 86.5322 297.974 85.8796 298.023 85.7691C298.647 84.3557 298.13 84.6242 299.473 84.6304L298.874 83.9164L301.321 76.383L302.072 76.3238C301.29 74.8433 302.594 72.514 303.156 70.8451C303.651 69.3764 304.291 66.1498 305.497 65.4228C305.443 63.6372 306.05 61.8781 307.034 60.4703C306.431 59.0095 310.803 50.1728 310.956 47.7436C309.668 47.1616 307.935 47.0635 307.7 45.9326C307.657 45.7313 307.61 45.6732 307.572 45.5412C309.568 44.1538 310.085 45.0974 312.12 46.4662C313.637 47.4865 314.791 47.6043 315.788 49.1734V49.1756ZM250.017 161.175L258.459 158.734L262.138 157.57L256.891 147.199C255.324 148.732 256.019 151.518 255.961 153.554L238.494 158.469C235.621 152.384 233.542 151.747 226.889 151.87L218.904 123.757C223.986 126.326 225.479 127.688 231.64 127.783C238.07 127.882 239.663 126.321 244.99 124.401C243.796 120.223 241.133 118.607 243.859 113.346C244.013 111.683 243.937 110.921 243.374 109.369L235.531 111.493C234.93 115.484 235.121 118.807 230.696 120.096C225.84 121.511 224.758 117.715 222.722 115.174L219.544 115.91L218.967 113.641L221.887 112.738L221.552 105.955L224.296 106.07L224.489 111.781C226.305 111.746 230.394 110.389 232.232 109.866C233.683 106.304 231.957 102.277 237.064 100.868C241.499 99.6446 243.356 103.02 245.131 106.059L249.356 105.078L249.945 107.28L246.15 108.515L246.339 110.284C249.543 109.624 250.277 107.957 254.39 109.45C256.585 110.246 259.292 112.418 259.58 114.835C261.101 114.395 260.201 115.073 260.328 113.72C260.336 113.643 260.014 112.355 259.984 112.129L263.047 108.283L263.474 121.417C263.522 122.784 268.812 132.406 269.897 134.443C271.092 136.688 272.114 138.865 273.215 141.132C274.286 143.338 275.918 145.603 276.846 147.466C278.099 147.285 278.265 144.822 278.827 143.751C281.418 144.082 283.643 146.785 286.226 147.492C287.761 145.717 288.618 142.245 290.561 140.997C290.782 139.063 294.898 133.099 296.165 131C297.825 128.251 299.904 123.035 302.193 121.036C303.213 120.425 306.444 114.666 307.082 113.336L310.409 107.379C310.948 106.392 311.263 106.415 311.801 105.429C312.009 105.047 312.63 103.645 312.764 103.422C313.34 102.471 313.533 102.676 314.148 101.464L331.71 71.4948C332.353 70.1739 332.319 70.6167 333.071 69.5135C333.772 68.4853 334.484 66.3427 335.185 65.3151L337.574 61.3919C338.998 59.5104 339.159 59.1663 339.689 56.8229C338.708 55.2984 334.264 52.7057 332.452 51.8225L319.574 44.2773C318.267 43.6107 318.424 43.31 317.119 42.6479C315.895 42.0269 315.649 42.0365 314.538 41.1437L304.234 35.1089C300.736 33.3825 299.077 30.8017 297.179 34.7356C296.472 36.202 296.609 35.5697 295.824 36.722C294.577 38.5521 295.17 38.8099 293.185 40.7675C288.644 40.1917 269.71 32.3149 265.802 32.3228C264.432 34.4017 263.874 38.6136 262.832 40.1206C261.51 40.0924 259.565 39.5482 258.093 39.2893C254.084 38.5826 247.036 36.8607 243.151 36.7789C242.322 40.2216 241.752 43.7336 240.923 47.1757C237.216 47.1757 234.234 47.5474 230.527 47.5474C227.95 47.5474 221.785 46.9845 219.758 47.9191C218.55 50.5873 220.155 56.3458 219.121 59.1646C216.447 61.4415 199.085 64.116 197.189 66.2502C197.188 69.2766 199.814 75.7953 200.603 78.9565C203.574 90.8609 208.435 105.535 211.291 117.284C212.221 121.108 213.628 126.361 214.931 129.983L221.012 152.495C221.328 154.136 221.683 154.102 222.135 155.457C222.818 157.505 223.089 159.858 223.843 161.919C224.69 164.234 224.396 166.588 226.45 167.842C228.084 167.846 249.423 161.716 250.017 161.176L250.017 161.175Z" fill="#69A34C"/>
<path fill-rule="evenodd" clip-rule="evenodd" d="M321.133 217.122L258.006 217.126C256.942 219.162 257.634 246.745 257.634 251.41C257.634 256.683 256.999 282.764 257.861 285.717C259.641 286.237 319.497 286.237 321.276 285.717C322.139 282.764 321.504 256.683 321.504 251.41C321.504 246.723 322.205 219.187 321.132 217.121L321.133 217.122Z" fill="#2B2936"/>
<path fill-rule="evenodd" clip-rule="evenodd" d="M250.264 110.154C255.12 108.841 256.456 113.498 258.245 116.779C259.507 119.095 260.124 120.205 257.435 121.63C250.533 125.291 249.136 126.682 247.406 123.501C244.758 118.629 241.017 112.652 250.264 110.154ZM246.341 110.284C246.092 110.678 244.183 112.98 243.86 113.346C241.133 118.607 243.796 120.223 244.991 124.402L256.892 147.2L262.139 157.571L258.459 158.735C259.54 159.737 258.825 158.729 259.222 160.079L259.396 166.562L255.778 165.634L256.156 166.687L258.738 167.171C258.748 169.448 258.496 173.875 258.822 175.957C259.059 177.465 259.35 177.927 259.506 179.729C259.645 181.336 260.061 182.09 260.525 183.538C261.285 185.913 261.98 188.256 263.017 190.328C263.699 191.689 265.705 195.162 266.919 195.486L270.379 198.982L270.382 204.506L310.569 204.634L310.623 200.909C311.136 196.594 310.695 145.265 310.737 135.925C310.745 133.983 310.765 132.919 310.203 131.26C309.382 128.832 309.548 129.451 308.316 127.578C307.7 126.64 308.256 127.146 307.218 126.077C303.377 122.128 302.41 124.51 302.196 121.037C299.907 123.035 297.827 128.251 296.168 131.001C294.901 133.099 290.785 139.063 290.564 140.998C289.899 144.859 290.169 147.175 286.156 149.202C283.357 150.616 278.865 150.084 276.848 147.466C275.921 145.603 274.288 143.338 273.217 141.132C272.116 138.865 271.094 136.688 269.899 134.443C268.815 132.406 263.524 122.784 263.476 121.417C262.508 120.56 260.15 116.354 259.583 114.835C259.295 112.418 256.588 110.247 254.393 109.45C250.28 107.957 249.546 109.624 246.342 110.284H246.341Z" fill="#FAD6A4"/>
<path fill-rule="evenodd" clip-rule="evenodd" d="M224.96 77.5797C229.345 76.0445 231.349 82.6727 227.297 84.0703C222.931 85.5761 220.38 79.1826 224.96 77.5797ZM212.967 67.514C212.702 70.7147 213.779 71.5551 211.814 74.8912C210.241 77.5623 208.809 77.6564 206.494 79.1133C206.642 81.226 213.832 106.348 214.473 107.23C219.779 96.93 228.894 92.2291 240.292 93.4907C245.465 94.0638 248.148 96.6593 250.013 97.1833L242.124 69.118C235.247 69.3707 233.64 68.6561 230.497 62.7668C227.937 62.8368 216.213 66.5005 212.967 67.514Z" fill="#AEE484"/>
<path fill-rule="evenodd" clip-rule="evenodd" d="M242.418 135.898C247.92 133.761 250.547 142.063 245.513 143.876C240.176 145.798 236.807 138.078 242.418 135.898ZM256.891 147.2L244.99 124.402C239.664 126.321 238.07 127.883 231.64 127.784C225.479 127.688 223.986 126.327 218.904 123.758L226.889 151.87C233.542 151.747 235.621 152.384 238.494 158.47L255.961 153.554C256.02 151.519 255.324 148.732 256.891 147.199V147.2Z" fill="#AEE484"/>
<path fill-rule="evenodd" clip-rule="evenodd" d="M258.006 217.126L321.133 217.122L317.805 216.042C317.79 212.401 318.259 208.108 317.419 204.622C315.763 204.587 315.226 204.251 311.106 204.251C311.106 200.713 311.353 201.79 310.622 200.908L310.568 204.633L270.381 204.506L270.378 198.982L266.918 195.486C268.021 198.716 269.648 198.36 269.888 200.166C270.825 207.214 264.032 202.68 262.09 204.622C261.231 206.488 261.719 213.612 261.719 216.134L258.006 217.126Z" fill="#F3F3F3"/>
<path fill-rule="evenodd" clip-rule="evenodd" d="M310.952 61.499C311.227 64.879 312.122 64.8711 308.738 66.9167C307.629 69.792 304.881 75.401 304.721 78.1674C310.706 81.6947 312.67 91.6041 313.017 92.1388L327.757 67.0386C323.387 63.2857 321.961 59.9152 324.371 54.2848C323.444 53.1433 317.416 49.6279 315.787 49.1772C315.049 49.6612 311.117 60.006 310.952 61.4995V61.499Z" fill="#AEE484"/>
<path fill-rule="evenodd" clip-rule="evenodd" d="M254.728 85.1836L254.666 85.447C257.869 86.4977 260.526 88.9144 262.736 91.2686L262.221 62.2254C259.476 60.9609 258.438 62.1115 255.613 59.2283C252.57 56.1229 253.819 55.3085 252.436 52.8105L247.606 52.8935C247.062 56.7179 254.212 78.8905 254.728 85.1836H254.728Z" fill="#AEE484"/>
<path fill-rule="evenodd" clip-rule="evenodd" d="M286.433 78.8059C287.038 80.3451 288.498 81.4336 289.472 82.9231C290.455 84.4273 291.111 86.6224 292.207 87.7775L301.347 60.1905C299.771 58.7128 297.969 58.6277 296.432 55.9233C294.585 52.6752 295.179 51.4914 295.384 48.0877L293.438 47.4802L286.434 78.8059H286.433Z" fill="#AEE484"/>
<path fill-rule="evenodd" clip-rule="evenodd" d="M270.607 81.308C273.761 84.441 273.873 84.6181 276.513 88.3354L282.091 59.612C275.618 56.8704 274.996 55.3081 274.498 48.5638L272.864 48.3078L271.652 48.2485L270.608 81.308H270.607Z" fill="#AEE484"/>
<path fill-rule="evenodd" clip-rule="evenodd" d="M232.371 112.499C232.106 115.545 231.291 117.424 227.874 117.026C226.659 116.374 225.971 115.639 225.628 114.286L232.371 112.499ZM235.615 108.823C235.707 101.935 241.596 102.874 242.375 106.989L235.615 108.823ZM243.859 113.347C244.183 112.98 246.092 110.678 246.34 110.284L246.152 108.515L249.946 107.28L249.357 105.078L245.132 106.059C243.357 103.019 241.5 99.6447 237.065 100.868C231.958 102.277 233.685 106.304 232.233 109.866C230.395 110.389 226.306 111.746 224.49 111.781L224.297 106.07L221.553 105.955L221.888 112.739L218.968 113.641L219.545 115.91L222.723 115.174C224.76 117.714 225.841 121.511 230.697 120.096C235.123 118.807 234.932 115.484 235.532 111.493L243.375 109.369C243.938 110.92 244.015 111.683 243.861 113.346L243.859 113.347Z" fill="#AEE484"/>
<path fill-rule="evenodd" clip-rule="evenodd" d="M292.784 108.114C291.141 113.283 285.873 125.244 284.722 129.255C284.088 131.463 284.255 130.153 285.112 130.85C287.268 130.734 287.285 131.466 288.741 132.86L304.122 106.891C302.254 107.313 300.901 107.901 298.869 108.132C296.591 108.389 294.852 108.004 292.785 108.114L292.784 108.114Z" fill="#AEE484"/>
<path fill-rule="evenodd" clip-rule="evenodd" d="M250.264 110.154C241.017 112.653 244.758 118.629 247.406 123.501C249.136 126.682 250.533 125.291 257.436 121.63C260.124 120.205 259.507 119.095 258.245 116.779C256.456 113.498 255.12 108.841 250.264 110.154Z" fill="#FBEBCA"/>
<path fill-rule="evenodd" clip-rule="evenodd" d="M251.801 84.2463L254.728 85.1836C254.212 78.8911 247.062 56.7186 247.607 52.8935C244.746 52.8642 236.434 52.457 234.189 53.0035L233.777 55.4219C235.484 56.0497 236.389 55.3317 238.337 54.7468C239.882 54.2832 241.616 53.8117 243.206 53.418L251.801 84.2457L251.801 84.2463Z" fill="#91BD70"/>
<path fill-rule="evenodd" clip-rule="evenodd" d="M286.555 104.105C286.291 104.17 280.143 106.781 279.597 107.07C278.689 110.462 274.254 128.689 274.226 131.198L277.28 131.717L286.555 104.105Z" fill="#AEE484"/>
<path fill-rule="evenodd" clip-rule="evenodd" d="M268.334 79.9288L270.607 81.3078L271.651 48.2484L272.863 48.3076L267.277 47.333C266.905 51.9753 267.435 58.6474 267.531 63.5108C267.598 66.9472 267.003 77.5972 268.334 79.9294L268.334 79.9288Z" fill="#91BD70"/>
<path fill-rule="evenodd" clip-rule="evenodd" d="M286.433 78.8059L293.437 47.4802L289.886 46.4255L284.044 77.2419L286.433 78.8059Z" fill="#91BD70"/>
<path fill-rule="evenodd" clip-rule="evenodd" d="M307.033 60.4736C309.302 60.3151 309.177 60.6693 310.952 61.4984C311.117 60.0055 315.049 49.6601 315.787 49.1761C314.791 47.6077 313.636 47.4892 312.12 46.4689C310.085 45.1001 309.568 44.1565 307.572 45.544C307.608 45.676 307.657 45.7341 307.699 45.9354C307.934 47.0662 309.668 47.1644 310.955 47.7464C310.803 50.175 306.431 59.0123 307.033 60.4731V60.4736Z" fill="#91BD70"/>
<path fill-rule="evenodd" clip-rule="evenodd" d="M300.456 88.3844C300.949 90.2907 302.092 90.8091 300.672 93.2489L298.727 92.4559L298.165 94.7751L299.509 95.8112C298.667 97.2979 296.808 99.7344 295.467 100.404L295.414 101.828L296.996 102.653C298.679 101.923 300.87 99.0598 301.774 97.2793C303.196 97.5517 304.144 98.3898 305.495 99.1156C306.271 98.2245 306.427 98.1174 306.604 96.9194L303.306 95.0661C303.381 91.4103 305.764 89.509 301.996 85.7556C300.743 86.5509 301.026 86.8622 300.456 88.3855V88.3844Z" fill="#AEE484"/>
<path fill-rule="evenodd" clip-rule="evenodd" d="M242.418 135.899C236.807 138.078 240.176 145.798 245.513 143.876C250.547 142.063 247.921 133.762 242.418 135.899Z" fill="#69A34C"/>
<path fill-rule="evenodd" clip-rule="evenodd" d="M276.847 147.466C278.863 150.084 283.355 150.616 286.154 149.202C290.167 147.174 289.897 144.859 290.563 140.998C288.619 142.246 287.762 145.717 286.227 147.492C283.645 146.786 281.42 144.082 278.829 143.751C278.266 144.821 278.1 147.284 276.847 147.466V147.466Z" fill="#F6C58D"/>
<path fill-rule="evenodd" clip-rule="evenodd" d="M270.202 107.148L268.899 108.047C268.339 109.724 268.857 124.324 268.963 127.302L271.293 116.211C272.024 112.581 272.71 108.897 273.291 105.137L270.202 107.148H270.202Z" fill="#AEE484"/>
<path fill-rule="evenodd" clip-rule="evenodd" d="M250.017 161.176C251.564 161.32 251.658 162.465 252.246 163.594C253.31 165.64 253.366 164.643 254.76 165.908L255.778 165.634L259.396 166.562L259.222 160.079C258.824 158.729 259.54 159.737 258.459 158.735L250.018 161.176H250.017Z" fill="#F6C58D"/>
<path fill-rule="evenodd" clip-rule="evenodd" d="M285.111 130.849C284.254 130.152 284.088 131.462 284.722 129.255C285.873 125.244 291.141 113.282 292.784 108.113L292.043 107.85L291.45 107.733C290.41 107.825 291.013 106.979 290.216 108.813L288.802 113.313C288.204 115.27 287.395 117.147 286.779 119.126C285.604 122.901 283.88 126.928 283 130.712L283.691 130.895C284.138 131.101 283.879 130.874 284.307 131.46L285.11 130.849H285.111Z" fill="#91BD70"/>
<path fill-rule="evenodd" clip-rule="evenodd" d="M302.071 76.3277C303.388 76.762 303.727 76.8968 304.276 78.1675H304.722C304.881 75.4005 307.629 69.7921 308.739 66.9168C306.993 66.8136 306.558 66.8469 305.497 65.4268C304.292 66.1538 303.651 69.3804 303.156 70.8491C302.594 72.5179 301.29 74.8472 302.072 76.3277H302.071Z" fill="#91BD70"/>
<path fill-rule="evenodd" clip-rule="evenodd" d="M224.96 77.5799C220.381 79.1834 222.932 85.5769 227.297 84.0704C231.349 82.6728 229.345 76.0442 224.96 77.5799Z" fill="#69A34C"/>
<path fill-rule="evenodd" clip-rule="evenodd" d="M291.45 107.734L292.044 107.851L293.257 107.613C293.907 103.811 295.816 104.05 294.462 100.968C294.986 100.246 294.015 100.471 295.466 100.403C296.807 99.7338 298.666 97.2979 299.509 95.8106L298.165 94.7745L295.815 93.5952C294.79 95.9888 291.312 105.637 291.45 107.733V107.734Z" fill="#5A8B42"/>
<path fill-rule="evenodd" clip-rule="evenodd" d="M268.699 94.3465L269.585 94.2833L270.545 94.0622L270.607 81.3079L268.334 79.929C267.172 80.3424 267.674 81.7027 267.715 83.1945C267.752 84.5639 267.733 85.9023 267.791 87.2807C267.86 88.958 268.051 93.047 268.699 94.3465Z" fill="#5A8B42"/>
<path fill-rule="evenodd" clip-rule="evenodd" d="M254.665 85.4471L254.728 85.1837L251.8 84.2463L255.11 95.7091C256.169 98.1501 254.751 98.8506 257.842 98.5387C257.815 96.7395 255.644 86.7872 254.665 85.4471H254.665Z" fill="#5A8B42"/>
<path fill-rule="evenodd" clip-rule="evenodd" d="M305.496 65.4266C306.557 66.8462 306.991 66.8135 308.738 66.9167C312.122 64.8711 311.227 64.879 310.952 61.4989C309.177 60.6698 309.301 60.3157 307.033 60.4741C306.049 61.8824 305.442 63.6416 305.496 65.4266H305.496Z" fill="#5A8B42"/>
<path fill-rule="evenodd" clip-rule="evenodd" d="M299.472 84.6337L301.885 85.3759C302.001 82.883 304.177 80.7015 304.275 78.1674C303.726 76.8967 303.387 76.7619 302.07 76.3276L301.32 76.3869L298.873 83.9202L299.472 84.6342V84.6337Z" fill="#5A8B42"/>
<path fill-rule="evenodd" clip-rule="evenodd" d="M259.582 114.835C260.149 116.353 262.506 120.56 263.475 121.417L263.048 108.283L259.985 112.129C260.015 112.355 260.337 113.643 260.329 113.72C260.202 115.073 261.102 114.395 259.582 114.835Z" fill="#AEE484"/>
<path fill-rule="evenodd" clip-rule="evenodd" d="M268.899 108.047L270.202 107.147C269.717 104.078 270.79 99.7393 270.061 97.0744L268.983 96.7327C267.541 97.3226 268.048 97.5945 268.132 99.5295C268.175 100.511 268.159 101.52 268.167 102.506C268.179 103.763 267.673 107.618 268.899 108.047H268.899Z" fill="#5A8B42"/>
<path fill-rule="evenodd" clip-rule="evenodd" d="M235.615 108.823L242.375 106.989C241.596 102.874 235.707 101.935 235.615 108.823Z" fill="#69A34C"/>
<path fill-rule="evenodd" clip-rule="evenodd" d="M225.628 114.286C225.972 115.639 226.66 116.373 227.874 117.026C231.291 117.424 232.106 115.545 232.371 112.499L225.628 114.286Z" fill="#69A34C"/>
<path fill-rule="evenodd" clip-rule="evenodd" d="M283.013 95.0318L282.905 92.8869L283.963 92.857L282.92 92.148C283.188 90.0015 283.101 88.6699 282.514 86.6609C281.442 88.1561 280.195 96.9522 279.864 99.5449C280.337 98.7694 280.772 97.99 281.153 97.1287C281.894 95.4553 281.543 95.1784 283.013 95.0312V95.0318Z" fill="#91BD70"/>
<path fill-rule="evenodd" clip-rule="evenodd" d="M297.212 91.3441L298.727 92.4558L300.671 93.2488C302.092 90.8089 300.949 90.2906 300.455 88.3843L298.103 87.6787C297.152 88.7717 296.552 89.9623 297.212 91.3441Z" fill="#5A8B42"/>
<path fill-rule="evenodd" clip-rule="evenodd" d="M298.103 87.6788L300.455 88.3844C301.025 86.8604 300.743 86.5491 301.995 85.7544L301.884 85.3766L299.471 84.6343C298.129 84.6281 298.646 84.3597 298.022 85.773C297.972 85.883 297.778 86.5361 297.772 86.6489C297.702 87.804 297.466 86.989 298.103 87.6794L298.103 87.6788Z" fill="#91BD70"/>
<path fill-rule="evenodd" clip-rule="evenodd" d="M256.131 47.041L265.175 46.9316C263.766 46.1504 258.181 45.2384 256.556 45.2841L256.131 47.041Z" fill="#AEE484"/>
<path fill-rule="evenodd" clip-rule="evenodd" d="M283.013 95.0317L286.369 96.1005L287.066 93.9799L283.962 92.8569L282.905 92.8868L283.013 95.0317Z" fill="#AEE484"/>
<path fill-rule="evenodd" clip-rule="evenodd" d="M295.815 93.5958L298.165 94.7751L298.727 92.456L297.212 91.3443L296.211 91.1892L295.815 93.5958Z" fill="#91BD70"/>
<path fill-rule="evenodd" clip-rule="evenodd" d="M268.983 96.7321L270.061 97.0744L270.26 94.5985L269.586 94.2832L268.699 94.3464L268.083 94.5827L268.166 96.1698L268.983 96.7321Z" fill="#91BD70"/>
<path fill-rule="evenodd" clip-rule="evenodd" d="M270.061 97.0746L272.076 97.3414L272.152 95.1457L270.26 94.5986L270.061 97.0746Z" fill="#AEE484"/>
<path fill-rule="evenodd" clip-rule="evenodd" d="M258.512 100.972L260.272 100.999L260.195 98.6497L258.064 98.7337L258.512 100.972Z" fill="#AEE484"/>
<path fill-rule="evenodd" clip-rule="evenodd" d="M258.512 100.972L258.064 98.7339L255.981 98.955L256.577 100.987L258.512 100.972Z" fill="#91BD70"/>
<defs>
<filter id="filter0_d_229_172" x="27.5634" y="0" width="504.437" height="325" filterUnits="userSpaceOnUse" color-interpolation-filters="sRGB">
<feFlood flood-opacity="0" result="BackgroundImageFix"/>
<feColorMatrix in="SourceAlpha" type="matrix" values="0 0 0 0 0 0 0 0 0 0 0 0 0 0 0 0 0 0 127 0" result="hardAlpha"/>
<feOffset/>
<feGaussianBlur stdDeviation="10"/>
<feComposite in2="hardAlpha" operator="out"/>
<feColorMatrix type="matrix" values="0 0 0 0 0 0 0 0 0 0 0 0 0 0 0 0 0 0 0.25 0"/>
<feBlend mode="normal" in2="BackgroundImageFix" result="effect1_dropShadow_229_172"/>
<feBlend mode="normal" in="SourceGraphic" in2="effect1_dropShadow_229_172" result="shape"/>
</filter>
</defs>
</svg>
