<?xml version="1.0" encoding="UTF-8"?>
<!DOCTYPE svg PUBLIC "-//W3C//DTD SVG 1.1//EN" "http://www.w3.org/Graphics/SVG/1.1/DTD/svg11.dtd">
<!-- Creator: CorelDRAW 2021 (64-Bit) -->
<svg xmlns="http://www.w3.org/2000/svg" xml:space="preserve" width="6.4in" height="3.6in" version="1.1" style="shape-rendering:geometricPrecision; text-rendering:geometricPrecision; image-rendering:optimizeQuality; fill-rule:evenodd; clip-rule:evenodd"
viewBox="0 0 6400 3600"
 xmlns:xlink="http://www.w3.org/1999/xlink"
 xmlns:xodm="http://www.corel.com/coreldraw/odm/2003">
 <defs>
  <style type="text/css">
   <![CDATA[
    .fil1 {fill:none}
    .fil0 {fill:#40CB5B}
    .fil2 {fill:white}
   ]]>
  </style>
    <clipPath id="id0">
     <path d="M1258.14 391.57l3259.32 0 0 3107.39 -3259.32 0 0 -3107.39zm0 0z"/>
    </clipPath>
    <clipPath id="id1">
     <path d="M3223.54 220.03l259.76 0 0 254.87 -259.76 0 0 -254.87zm0 0z"/>
    </clipPath>
    <clipPath id="id2">
     <path d="M3757.77 63.19l122.53 0 0 122.53 -122.53 0 0 -122.53zm0 0z"/>
    </clipPath>
    <clipPath id="id3">
     <path d="M4012.64 474.89l117.63 0 0 107.83 -117.63 0 0 -107.83zm0 0z"/>
    </clipPath>
    <clipPath id="id4">
     <path d="M2978.48 411.18l122.53 0 0 78.42 -122.53 0 0 -78.42zm0 0z"/>
    </clipPath>
    <clipPath id="id5">
     <path d="M4311.61 2440.29l88.22 0 0 88.22 -88.22 0 0 -88.22zm0 0z"/>
    </clipPath>
    <clipPath id="id6">
     <path d="M3654.85 479.8l83.32 0 0 78.42 -83.32 0 0 -78.42zm0 0z"/>
    </clipPath>
    <clipPath id="id7">
     <path d="M2831.44 239.63l68.61 0 0 83.32 -68.61 0 0 -83.32zm0 0z"/>
    </clipPath>
    <clipPath id="id8">
     <path d="M1527.71 484.7l68.62 0 0 73.52 -68.62 0 0 -73.52zm0 0z"/>
    </clipPath>
    <clipPath id="id9">
     <path d="M3841.09 710.15l63.72 0 0 63.72 -63.72 0 0 -63.72zm0 0z"/>
    </clipPath>
    <clipPath id="id10">
     <path d="M3032.39 77.89l58.81 0 0 68.61 -58.81 0 0 -68.61zm0 0z"/>
    </clipPath>
    <clipPath id="id11">
     <path d="M3694.06 200.43l58.81 0 0 63.72 -58.81 0 0 -63.72zm0 0z"/>
    </clipPath>
    <clipPath id="id12">
     <path d="M4968.38 1381.62l63.72 0 0 53.91 -63.72 0 0 -53.91zm0 0z"/>
    </clipPath>
    <clipPath id="id13">
     <path d="M3184.33 200.43l58.81 0 0 49.01 -58.81 0 0 -49.01zm0 0z"/>
    </clipPath>
    <clipPath id="id14">
     <path d="M4640 1072.84l49.01 0 0 53.92 -49.01 0 0 -53.92zm0 0z"/>
    </clipPath>
    <clipPath id="id15">
     <path d="M3248.04 3474.45l44.11 0 0 53.92 -44.11 0 0 -53.92zm0 0z"/>
    </clipPath>
    <clipPath id="id16">
     <path d="M3723.46 768.97l58.81 0 0 34.31 -58.81 0 0 -34.31zm0 0z"/>
    </clipPath>
    <clipPath id="id17">
     <path d="M4600.78 1219.88l39.21 0 0 39.21 -39.21 0 0 -39.21zm0 0z"/>
    </clipPath>
    <clipPath id="id18">
     <path d="M2944.17 523.91l39.21 0 0 34.31 -39.21 0 0 -34.31zm0 0z"/>
    </clipPath>
    <clipPath id="id19">
     <path d="M4341.02 2739.26l29.41 0 0 44.11 -29.41 0 0 -44.11zm0 0z"/>
    </clipPath>
    <clipPath id="id20">
     <path d="M3331.37 3449.94l29.41 0 0 34.31 -29.41 0 0 -34.31zm0 0z"/>
    </clipPath>
    <clipPath id="id21">
     <path d="M2488.35 3199.98l29.41 0 0 39.21 -29.41 0 0 -39.21zm0 0z"/>
    </clipPath>
    <clipPath id="id22">
     <path d="M1684.55 803.28l39.21 0 0 24.51 -39.21 0 0 -24.51zm0 0z"/>
    </clipPath>
    <clipPath id="id23">
     <path d="M4198.89 3234.29l24.5 0 0 29.41 -24.5 0 0 -29.41zm0 0z"/>
    </clipPath>
    <clipPath id="id24">
     <path d="M4414.54 2690.25l14.7 0 0 19.61 -14.7 0 0 -19.61zm0 0z"/>
    </clipPath>
    <clipPath id="id25">
     <path d="M2498.15 3116.66l19.61 0 0 24.5 -19.61 0 0 -24.5zm0 0z"/>
    </clipPath>
 </defs>
 <g id="Layer_x0020_1">
  <metadata id="CorelCorpID_0Corel-Layer"/>
  <g id="_2410711162608">
   <g>
   </g>
   <g style="clip-path:url(#id0)">
    <g id="_2410711161168">
     <path class="fil0" d="M2867.2 3483.98c2.66,2.51 6.8,5.65 9.19,6.97 8.9,4.94 12.96,-5.74 18.59,-10.83 1.61,-1.46 2.76,-2.33 4.8,-3.02 5.24,-1.84 9.96,-4.12 14.34,-7.51 9.04,-2.24 17.37,4.06 20.98,12.22 2.68,6.07 6.2,9.65 11.8,13.17 10.3,6.47 20.96,2.76 22.13,-10.55 1.69,-19.17 17.35,-29.77 27.26,-44.49 3.06,-4.58 6.53,-8.33 10.84,-11.66l1.61 -1.82c5.24,-5.99 13.38,-5.67 20.18,-2.74 14.01,6.07 21.33,2.68 35.19,-2.36 14.8,1.25 29.58,-9.76 39.21,-19.85 5.25,-5.5 10.89,-4.65 17.61,-3.85 5.28,0.27 8.81,-0.54 13.84,-2.28 3.27,0.92 7.44,-0.69 9.82,-3.25 3.35,-3.6 11.41,-4.9 16.02,-6.61 2.78,-1.4 5.4,-2.91 7.87,-4.82 3.31,-2.55 11.75,-6.01 14.3,0.06 1.74,4.17 0.86,9.63 0.31,14.09 4.48,9.86 12.29,11.28 22.07,8.73 7.68,-2.01 12.31,-12.77 12.71,-19.78 0.48,-8.13 4.96,-12.54 11.28,-16.87 3.04,-2.45 5.23,-5.15 6.97,-8.75 8.79,-18.17 38.89,-21.19 55.46,-13.19 10.22,4.96 7.45,12.46 2.55,20.87 -4.09,7.02 -6.33,12.91 -3.75,20.28 2.6,7.46 7.91,12.75 12.71,18.88 8.48,9.36 19.37,10.81 30.23,16.06 10.38,5.02 19.36,-1.28 26.65,-8.48 5.5,-5.42 11.85,-3.14 16.67,2.26 2.07,6.7 6.36,10.74 12.91,13.92 7.33,3.54 10.49,8.22 14.24,14.92 2.24,4.04 7.49,7.3 11.64,9.3 7.87,3.79 14.26,4.39 22.42,1.99 13.02,-3.81 16.7,-20.6 14.3,-32.2 -0.84,-4.61 0.27,-9.02 0.54,-13.65 0.42,-7.12 -0.23,-12.12 -2.66,-18.91 -3.83,-10.76 -3.29,-23.78 1.74,-34.18 2.38,-4.92 8.14,-11.56 13.9,-6.78 3.22,2.68 8.98,3.22 12.93,2.41 13.04,-2.67 18.15,-7.95 23.91,-19.86 4.21,-8.73 7.14,-17.04 3.02,-26.09 -4.75,-10.37 -6.38,-21.44 1.74,-30.73 5.94,-6.74 17.31,-3.85 22.69,2.13 5.44,6.05 7.91,15.45 11.33,22.9 2.03,4.46 3.52,8.69 3.58,13.65 0.15,11.6 13.13,16.14 22.32,19.6 9.48,3.58 12.2,10.95 15.97,19.55 2.45,5.63 0.29,12.2 -1.24,17.9 -3.52,13.06 -0.67,21.98 5.26,33.31 2.2,4.21 4.17,8.54 6.15,12.87 3.94,8.63 13.54,12.43 22.33,14.49 3.16,0.75 6.05,1.97 6.41,2.74 2.52,5.17 -7.93,10.38 -10.61,12.77 -4.14,3.69 -10.28,9.69 -9.5,15.87 0.78,6.28 4.23,10.63 8.08,15.43 4.61,4.11 11.43,1.69 14.51,-3.39 2.49,-4.12 12.77,-5.06 16.92,-4.88 11.17,0.48 10.95,10.47 10.95,19.37l1.13 2.11c0.61,1.15 2.15,2.31 3.41,2.59 9.17,1.95 6.64,-12.31 7.41,-16.81 0.42,-2.47 0.63,-4.92 0.84,-7.41 0.48,-5.52 -1.19,-9.04 -4.83,-12.87 -1.13,-3.2 -2.26,-6.36 -3.64,-9.46 -1.8,-4.12 -5.63,-6.81 -9.04,-9.52 -0.84,-4.04 2.74,-7.3 5.32,-9.92 6.43,-6.63 8.46,-15.93 8.27,-25.1 -0.1,-4.71 -2.22,-7.83 -4.1,-12.2 -3.39,-7.94 7.2,-20.43 12.31,-24.93 3.04,-2.68 6.09,-5.09 9.8,-6.81 10.91,-5.11 13.19,-17.17 4.56,-25.67 -3.68,-3.62 -6.76,-7.18 -8.16,-12.16 -3.66,-12.85 9.8,-24.55 15.61,-34.35 6.31,-10.69 12.79,-13.09 23.83,-15.26 5.57,-1.15 10.38,0.17 14.13,4.42 5.19,5.9 7.43,15.11 6.55,22.74 3.81,15.22 12.52,36.38 30.67,36.13 7.39,-0.09 14.61,1.76 21.77,3.39l2.91 0.19c12.14,0.82 19.97,-14.93 19.7,-25.44 -0.1,-3.72 -3.12,-9.25 -5.3,-12.14 -1.86,-2.43 1.3,-5.9 3.89,-5.8 9.84,0.4 8.25,11.56 8.73,18.49 5.27,9.82 18.72,2.97 27.63,3.2 4.8,0.11 9.11,-0.9 13.59,-2.45 3.52,1.32 6.42,-0.48 9.92,-1.7 5.57,0.56 9.34,1.99 13.81,5.9 4.11,3.6 9.06,6.47 14.55,4 4.63,-2.11 8.91,-9.71 9.92,-14.52 1.65,-7.81 8.69,-14.55 16.24,-16.08 7.07,-1.46 12.04,-0.46 18.82,2.16 11.09,4.29 16.12,-4.63 18.04,-14.11 0.54,-2.66 1.11,-5.3 1.78,-7.94 2.14,-8.35 9.54,-5.23 15.85,-6.01 11.97,-1.47 2.09,-15.53 -0.19,-20.54 -4.59,-10.07 -14.17,-17.77 -24.93,-19.74 -7.31,-1.32 -13.79,-12.04 -10.34,-19.18 3.26,-6.72 14.26,1.8 17.94,4.02 11.12,6.66 21.4,1.93 30.82,-5.32 2.41,-1.82 4.82,-3.48 7.58,-4.79 2.24,-1.05 3.89,-2.07 5.7,-3.73 7.37,-6.68 16.75,-5.99 26.13,-6.13 8.73,-4.67 11.3,-10.65 12.52,-20.16 0.17,-8.04 1.22,-16.02 2.57,-23.97 0.94,-5.57 1.49,-11.28 0.19,-16.81 -3.02,-12.71 3.6,-24.56 6.15,-36.8 2.03,-9.76 10.61,-12.37 19.53,-10.61 3.75,0.75 11.62,-0.17 9.07,-6.24 -0.9,-2.18 -2.12,-3.41 -3.81,-5.07 -4.75,-4.65 0.88,-13.36 4.52,-17.44 1.7,-1.89 5.06,-4.94 7.43,-6.76 5.69,-4.33 9.57,-1.65 14.34,2.78 4.08,3.81 5.65,4.56 16.33,7.91 6.49,2.03 14.67,5.07 18.13,6.76 6.3,3.02 12.18,6.83 15.78,12.81 2.26,3.77 5.17,7.06 8,10.38 4.82,6.37 8.04,14.45 7.87,22.54 -0.21,10.26 5.61,16.35 11.09,24.33 2.64,4.43 5.48,8.69 8.63,12.77 3.18,4.08 6.76,7.56 10.74,2.3 5.38,-7.09 2.87,-14.36 0.84,-21.83 0.06,-7.05 -0.02,-14.06 -0.11,-21.1 0.42,-9.27 5.32,-15.22 12.14,-20.93 5.8,-4.88 3.1,-9.11 -0.99,-14.41 -5.06,-6.55 -5.65,-14.28 -5.54,-22.25 3.18,-6.59 7.66,-8.54 14.2,-10.82 2.11,-2.24 4,-2.81 7.05,-3.81 3.14,-1.03 6.18,-3.14 8.21,-5.7 3.52,-4.46 6.07,-4.1 10.09,-0.46 9.9,8.96 24.45,9.3 36.66,13.09 7.54,2.33 11.28,9.46 14.42,16.08 4.77,10.01 19.99,18.72 30.98,15.87 2.97,-0.76 3.85,-0.88 5.46,-0.71 6.39,0.71 13.28,-1.01 16.83,-6.89 5.88,-9.7 0.8,-25.96 -2.43,-35.76 -3.5,-10.63 -2.72,-20.2 0.25,-30.71 1.61,-5.76 7.14,-9.8 11.39,-13.67 5.7,-4.59 6.09,-11.24 3.64,-18.03 -2.11,-5.88 -2.72,-11.05 0.04,-16.77 4.44,-9.19 1.69,-13.27 -7.12,-18.8 -7.78,-4.88 -8.64,-8.48 -8.65,-17.31 0,-8.92 3.14,-15.97 8.23,-23.17 8.08,-11.41 5.46,-20.56 -0.46,-32.26 -3.54,-7.03 -13.15,-8 -20.03,-8.91 -9.13,-6.01 -5.13,-16.2 -5.46,-26 -0.29,-8.33 0.86,-14.15 5.84,-20.83 3.73,-5.04 5.59,-10.46 4.15,-16.5 -0.82,-3.46 -0.92,-6.47 -0.75,-10 -2.81,-6.68 -7.22,-9.95 -13.09,-14.24 -2.91,-2.1 -5.97,-5.32 -6.81,-7.12 -1.02,-2.14 -1.74,-3.43 -2.13,-3.69 -2.37,-1.69 -3.31,-8.21 -3.89,-11.05 -1.55,-7.47 0.15,-17.54 3.37,-24.2 4.1,-8.46 15.47,-5.44 22.71,-7.96 4.4,-1.53 8.44,-1.53 12.94,-2.26 11.31,-1.84 15.26,-11.66 19.8,-21.04 3.06,-6.34 8.61,-10.28 14.19,-14.57 4,-3.08 8.29,-6.99 9.54,-8.73 4.98,-6.89 2.2,-16.14 3.06,-24.05 -0.75,-5.04 -4.06,-8.44 -8.19,-11.47 -7.62,-5.55 -11.74,5.38 -12.52,11.03 -1.26,9 -3.91,14.85 -11.01,20.33 -7.93,9.04 -19.41,8.02 -30.4,6.41l-2.47 -6.69c-2.43,-6.62 -9.8,-14.97 -17.82,-10.66 -4.54,2.43 -7.12,6.76 -9.25,11.18 -2.96,6.15 -9.74,13.76 -15.7,6.05 -4.44,-5.76 -2.66,-15.81 -2.26,-22.5 0.29,-4.5 -1.78,-6.8 -4.88,-10.22 -5.27,-5.84 -4.29,-10.24 -2.64,-17.5 -0.48,-6.19 -1.76,-8.08 -7.64,-11.24 -3.89,-2.09 -7.83,-4.73 -8.77,-5.88 -7.28,-8.9 8.5,-13.92 14.02,-16.69 9.07,-4.56 7.91,-19.2 9,-27.97 1.21,-6.99 -0.52,-12.44 -1.93,-19.19 -1.09,-5.26 1.44,-8.48 5.74,-11.81 6.07,-4.73 10.45,-11.62 7.01,-19.24 -2.03,-4.46 -4.21,-9 -7.22,-12.89 -3.87,-5.02 -3.68,-11.43 -3.64,-17.5 1.3,-3.52 -0.48,-6.39 -1.7,-9.92 0.98,-3.39 -1.19,-8.25 -1.9,-11.7 -0.98,-4.81 2.01,-10.61 3.05,-15.3 1.76,-8 0.82,-13.82 -2.43,-21.25 -0.94,-2.15 -1.17,-3.56 -1.13,-5.88 0.09,-5.23 0.52,-14.19 3.89,-18.25 2.6,-3.16 5.67,0.92 7.12,2.83 3.01,3.98 4.23,8.44 3.96,13.44 -0.35,6.76 3.31,18.11 12.77,16.16 19.39,-4.02 29.27,-25.5 27.41,-43.86 -0.67,-6.68 -0.27,-10.17 2.28,-16.26 4.12,-9.84 4.56,-19.54 6.76,-29.75 0.86,-3.93 4.31,-4.94 7.93,-4.35 2.16,0.36 8.98,3.1 15.14,6.09 6.22,3 11.62,6.22 12.12,7.22 1.7,3.43 2.68,7.09 3.6,10.78 1.04,4.21 1.07,4.33 2.91,10.09 2.59,8.08 12.81,14.89 18.38,5.72 2.2,-3.64 2.91,-7.22 3.06,-11.33 0.85,-4.94 2.03,-9.67 3.83,-14.38 5.42,-14.03 -0.19,-27.36 -15.14,-31.21 -10.07,-2.56 -9.13,-10.49 -3.33,-16.75 12.93,-13.86 9.4,-33.68 9.38,-51.17 3.39,-10.67 12.22,-12.46 21.18,-17.14 8.9,-4.65 15.76,-11.39 22.53,-18.8 6.49,-6.95 16.48,-8.71 24.78,-12.98 9.61,-4.84 15.64,-12.77 21.84,-21.27 6,-8.21 10.61,-16.94 9.27,-27.24 -0.99,-7.74 0.08,-14.57 2.7,-21.96 2.49,-7.02 3.58,-14.03 4.12,-21.4 4.23,-10 6.11,-22.9 2.03,-33.2 -4.44,-11.26 -17.46,-21.52 -29.06,-24.77 -4.67,-1.3 -10.78,-6.51 -4.48,-10.24 15.72,-9.34 -5.13,-23.87 -13.07,-29.73 -3.81,-2.81 -7.33,-5.42 -10.51,-8.92 -2.78,-3.08 -6.01,-5.48 -9.4,-7.78 -9.48,-9.67 -19.53,-1.55 -30.36,0.67 -9.52,1.93 -20.12,-4.83 -24.33,-13.27 -3.96,-7.95 0.25,-17.71 2.96,-25.41 -0.21,-9.19 -8.06,-10.17 -15.41,-8.04 -4.65,1.36 -8.61,1.49 -13.4,0.07 -9.23,-2.7 -10.55,-16.06 -13.09,-24.01 -0.98,-4.82 -0.59,-9.38 0.32,-14.22 1.15,-5.99 1.8,-11.95 2.15,-18 1.07,-5.15 2.24,-9.52 4.54,-14.26 3.23,-6.7 8.84,-9.4 15.6,-6.13 6.91,3.33 8.94,11.72 12.27,18.15 4.86,9.4 7.04,18.06 5.21,28.39 -1.09,6.17 -0.69,14.22 7,14.83 4.44,0.37 8.29,-2.62 12.2,-4.65 4.61,-2.59 9.07,-2.53 14.26,-2.34 3.22,-1.13 6.47,-2.18 9.74,-3.16 18.09,-5.42 16.77,-22.76 10.76,-36.83 -4.15,-9.71 -7.41,-19.8 -10.67,-29.83 -1.47,-4.61 -3.91,-11.22 -9.4,-12.37 -5.5,-1.15 -12.75,-5.72 -16.98,-9.56 -5.2,-4.77 -12.12,-0.61 -16.5,2.78 -7.44,5.74 -12.17,-3.16 -16.04,-8.59 -4.25,-5.28 -10.36,-8.43 -17.02,-9.8 -8.79,-1.82 -9.15,-10.13 -6.37,-17.37 -0.46,-4.86 -1.49,-8.56 -5.17,-12.19 -5.86,-5.82 -4.31,-13.63 -2.35,-20.7 1.2,-4.31 1.55,-8.33 1.11,-12.71 2.07,-2.36 6.99,6.83 7.93,8.83 2.78,5.93 8.73,10.55 14.19,13.82 7.52,4.5 3.98,15.33 -1.07,20.87 -5.48,6 1.65,11.47 5.07,15.7 6.78,8.41 19.37,9.57 25.39,0.02 6.59,-10.45 0.79,-23.01 -2.47,-33.49 -0.04,-2.09 -0.06,-4.17 -0.09,-6.24 -0.08,-3.02 -0.25,-5.95 -0.96,-8.92 -2.37,-10.03 6.65,-12.71 14.3,-10.65 14.67,3.93 21.67,14.78 27.15,27.57 3.1,6.8 6.76,12.67 13.52,16.62 9.13,5.34 17.5,1.36 26.42,-2.05 6.07,-2.32 11.96,-5.23 11.87,-12.5 -0.08,-6.32 -3.56,-15.16 -9,-18.8 -9.5,-6.34 -10.34,-13.81 -9.63,-24.95 0.31,-4.86 -2.28,-8.46 -5.36,-12.21 -6.89,-8.44 -15.05,-7.53 -24.6,-10.19 -6.57,-1.84 -6.78,-5.28 -9.32,-10.67 -3.2,-6.72 5.99,-12.12 8.9,-17.4 4.89,-8.85 -7.18,-12.94 -13.92,-11.57 -8.65,1.78 -9.72,8.12 -10.22,16.2 -1.53,8.96 -5.17,15.49 -10.13,22.92 -3.91,3.1 -7.06,6.47 -9.65,10.84 -2.97,4.98 -3.98,5.91 -5.99,5.5 -5.65,-1.19 -11.45,-9.27 -15.51,-13.21l-6.03 -4.9c-5.99,-4.88 -7.3,-8.75 -7.41,-16.02 -0.42,-2.34 -0.69,-3.12 -2.58,-4.69 -4,-3.29 -6.34,0.37 -9.09,3.2 -3.28,3.33 -8.43,5.25 -8.16,-1.47 0.35,-8.08 6.74,-24.79 16.62,-14.95 4.29,4.27 11.64,-2.28 13.96,-5.48 3.28,-4.52 7.58,-9.46 13.29,-10.47 7.5,3.62 10.13,10.74 15.33,16.75 6,4.96 19.57,2.01 14.51,-8.04 -2.81,-5.57 -3.08,-9.94 -0.23,-15.83 5.82,-12.04 0.17,-21.84 -2.22,-34.1 -2.03,-10.3 -6.63,-21.79 -18.48,-23.43 -5.95,-0.84 -12.85,2.76 -17.29,6.57 -4.73,4.08 -0.61,12.18 0.84,16.87 2.33,7.5 1.57,12.54 -3.46,18.57 -5.28,6.32 -14.13,14.74 -22.19,17 -11.39,-5.51 -7.95,-17.11 -11.37,-26.95 -2.2,-6.3 -1.74,-11.2 1.17,-17.21 3.33,-6.87 10.2,-6.36 16.73,-5.34 3.6,0.56 13.54,0.92 12.77,-5.21 -1.07,-8.65 -8.22,-17.27 -12.22,-24.91 -2.18,-3.77 -4.21,-7.6 -6.11,-11.53 -4.41,-9.06 -12.85,-14.87 -22.74,-15.43 -8.69,2.05 -24.01,-1.48 -23.53,-13.33 0.38,-9.06 8.43,-13.54 13.33,-20.46 4.73,-6.69 3.27,-15.47 2.83,-23.07 0.54,-12.58 16.2,-4.23 22.84,-1.5 5.22,2.15 10.32,4.18 15.74,5.74 9.17,2.7 23.91,-4.67 31.34,-10.76 8.14,-6.66 17.52,-14.72 18.49,-25.73 0.65,-6.99 1.5,-13.63 3.83,-20.24 3.31,-9.38 3.1,-15.87 0.11,-25.06 -3.54,-10.89 -13.78,-21.94 -23.2,-28.35 -8.27,-8.73 -18.84,-6.41 -29.04,-2.87 -8.25,2.89 -12.62,8.22 -19.49,13.15 -12.71,9.11 -21.98,25.56 -28.57,39.13 -1.69,3.5 -5.02,8.42 -8.71,3.91 -2.2,-2.66 -3.67,-5.69 -5.17,-8.79 -2.36,-4.83 -4.94,-8.41 -8.89,-12.25 -8.06,-7.87 -9.34,-19.32 -9.5,-30 -0.15,-11.74 -5.65,-16.16 -15.58,-20.96 -6.45,-5.38 -10.88,-11.03 -15.78,-17.9 -10.26,-13 -24.83,-19.4 -39.28,-26.92 -4.06,-1.97 -8.87,-5.36 -8.94,-10.55 -0.09,-7.26 -3.83,-20.16 -9.86,-24.09 -9.59,-6.22 -16.58,-12.5 -20.97,-23.01 -8.13,-19.55 -19.91,-34.17 -38.63,-44.61 -4.86,-2.72 -9.38,-5.57 -13.17,-9.63l-1.53 -3.28c-1.13,-2.39 -2.45,-4.5 -4.02,-6.62 -3.37,-4.56 -3.75,-11.83 -5.3,-17.29 -7.64,-6.32 -14.34,-2.51 -19.24,4.88 -6.28,9.46 -15.59,-0.57 -20.87,-6.22 -9.78,-9.34 -21.69,-7.77 -33.89,-11.2 -7.6,1.24 -12.75,3.67 -18.46,9.15 -9.36,8.54 -32.28,13.52 -37.68,-1.97 -3.24,-9.26 -9.11,-17.94 -13.67,-26.63 -1.4,-2.47 -2.87,-4.33 -4.84,-6.37 -2.85,-8.16 -6.95,-15.91 -10.49,-23.78 -4.25,-9.48 -7.24,-19.55 -10.65,-29.33 -5.04,-10.53 -9.72,-21.18 -14.09,-31.99 -5.15,-12.77 -17.37,-19.49 -29.16,-25.18 -10.7,-5.19 -16.77,-3.77 -26.86,0.65 -13.9,6.13 -28.8,9.84 -43.5,13.48 -7.62,1.87 -10.44,-5.92 -3.52,-9.42 2.74,-1.36 5.46,-2.76 8.19,-4.11 16.6,-8.35 19.49,-23.28 20.52,-40.13 0.69,-11.33 -13.34,-9.61 -19.97,-7.7 -10.47,3.04 -22.63,-0.06 -30.11,-8.16 -4.67,-10.68 -1.11,-25.86 -1,-37.56 -4.23,-10.87 -13.84,-18 -25.2,-20.37 -5.7,-1.19 -9.13,-5 -12.56,-9.32 -6.41,-8.08 -19.47,-8.19 -28.56,-11.55 -13.11,-4.8 -24.83,-5.59 -38.33,-2.6 -12.61,2.8 -15.7,-6.95 -25.77,-11.81 -2.87,-1.38 -6.28,-0.11 -9.13,0.65 -11.76,-1.72 -13.75,-11.85 -18.63,-21.48 -5.36,-10.61 -22.74,-12.69 -33.46,-13.92 -4.12,-0.46 -8.96,-0.94 -12.29,1.65 -4.81,3.71 -13.19,6.78 -18.92,4.88 -9.67,-3.18 -11.26,-12.77 -17.11,-19.57 -3.28,-3.79 -7.85,-5.11 -12.66,-6.11 -8.82,-1.84 -12.79,-10.65 -17.94,-17.17 -2.66,-3.39 -6.32,-4.41 -10.05,-2.4 -5.9,3.16 -10.51,11.39 -14.78,16.5 -4.43,2.7 -10.36,5.98 -15.55,3.47 -10.22,-4.94 3.12,-10.7 6.11,-14.32 3.77,-4.57 0.76,-9.74 -1.13,-14.32 -6.81,-8.6 -14.63,-14.74 -24.03,-20.22 -10.55,-6.15 -10.67,-14.76 -13.9,-25.87 -0.8,-2.78 -1.24,-6.26 -0.94,-7.75 0.77,-3.91 0.21,-8.1 -0.02,-12.04l0.19 -2.95c1.07,-16.02 -18.53,-27.93 -29.18,-36.93 -0.84,-1.67 -1.69,-3.31 -2.51,-4.98 -1.11,-1.91 -2.22,-3.81 -3.31,-5.7 -0.8,-1.38 -1.53,-2.78 -2.26,-4.21 -0.63,-1.26 -1.84,-3.02 -2.66,-3.89 -6.83,-7.14 -3.35,-15.39 -1.04,-23.68l-0.32 -2.57c-1.34,-10.74 -12.46,-11.76 -19.65,-17.75 -6.41,-5.32 -0.9,-14.26 2.34,-19.81 7.64,-13.08 9.44,-25.43 8.48,-40.42 -6.78,-12.63 -18.82,-12.85 -30.83,-17.73 -11.14,-4.52 -6.66,-18.38 -3.77,-26.61 -0.23,-10.69 -11.89,-11.64 -19.74,-8.08 -4.83,5.27 -7.91,11.17 -7.93,18.36 0,10.38 -11.09,22.88 -20.79,26.77 -9.9,3.96 -13.75,9.46 -13.77,20.37 0,10.65 -10.36,11.14 -19.11,11.26 -7.89,0.79 -14.74,3.2 -20.89,8.23 -5.04,5.32 -9.8,9.07 -16.93,11.51 -9.97,3.41 -15.96,10.41 -12.65,21.21 1.13,3.71 2.11,7.45 3.12,11.18 -0.42,10.49 -6.83,17.48 -14.28,24.14 -7.3,6.53 -15.22,-2.99 -19.76,-7.75 -3.5,-3.96 -5.06,-7.24 -6.81,-12.26 -1.63,-1.17 -2.2,-3.22 -2.97,-5.02 -1.91,-4.44 -5.4,-7.73 -8.77,-11.05 -7.04,-3.83 -17.35,-4 -25.06,-2.39 -11.94,2.51 -23.45,10.28 -31.47,19.24 -10.97,3.81 -21.14,9.11 -31.42,14.43 -6.89,0.48 -13.67,3.89 -20.14,6.11l-3.5 0.78c-1.91,0.42 -4.96,1.17 -6.72,1.65 -7.2,1.95 -7.12,9.88 -7.66,15.97 -1.32,8.54 -12.66,11.07 -18.78,15.87 -7.15,5.61 -13.52,4.56 -20.45,-0.92 -5.28,-4.17 -11.35,-7.1 -17.92,-8.65 -9.23,-2.19 -17.5,-7.08 -25.29,-12.23 -7.98,-5.27 -15.28,-7.89 -24.49,-6.65 -6.99,-0.25 -13.25,7.1 -17.56,11.83 -7.01,7.76 -7.39,19.17 -10.07,28.87 -1.44,5.2 -2.3,10.26 -3.04,15.58 -1.88,5.55 -5.36,8.88 -9.09,13.38 -3.7,4.48 -1.47,14.36 -1.7,19.91 -0.36,8.29 -6.57,1.83 -8.27,-1.8 -1.03,-2.2 -2.18,-3.91 -3.91,-5.56 -0.46,-2.03 -0.94,-4.04 -1.4,-6.05 2.74,-6.78 -0.76,-13.94 -2.45,-20.79 -3.26,-13.25 -9.69,-23.67 -22.21,-30.04 -10.47,-5.32 -19.07,-13.32 -28.3,-20.44 -2.61,-2.01 -5.46,-4.57 -6.36,-5.69 -0.9,-1.11 -4.63,-3.14 -8.31,-4.54 -6.34,-2.37 -9.98,-6.41 -14.74,-10.78 -10.93,-10.01 -26.04,-21.59 -40.78,-24.56 -11.35,-2.3 -21.35,-8.31 -30.04,-15.95 -5.4,-4.73 -13.11,-3.66 -19.8,-4.94 -5.13,-1 -6.24,-9.27 -7.64,-13.29 -4.88,-8.75 -14.3,-11.55 -21.98,-17.18 -2.68,-1.97 -5.78,-3.56 -6.85,-3.56 -3.89,0.06 -2.87,7.12 -2.19,9.3 0.94,3.05 1.84,6.09 2.74,9.13 2.05,6.89 3.52,19.87 -5.86,21.56 -9.69,1.74 -21.88,-8.71 -26.38,-16.81 -7.54,-13.61 -23.13,-22.02 -36.69,-28.72 -11.74,-5.78 -23.85,-16.73 -28.18,-29.16l-1.3 -1.34c-1.17,-1.22 -2.43,-2.22 -3.77,-3.26 -2.37,-1.85 -3.71,-3.87 -5.34,-6.43 -2.72,-4.23 -5.8,-7.05 -9.57,-10.34l-0.96 -1.89c-2.66,-5.23 -2.85,-10.61 -3.39,-16.27 -0.44,-4.48 -4.82,-9.13 -9.63,-8.16 -7.1,1.47 -11.58,6.47 -15.8,12.21 -4.12,5.65 -14.57,2.34 -20.37,1.36 -4.71,-0.79 -8.88,0.59 -13.46,1.22 -9.3,1.28 -19.91,-6.36 -26.61,-11.43 -10.65,-5.15 -21.08,-6.53 -32.63,-7.85 -8.33,3.22 -16.92,1.2 -23.22,-5.52 -5.59,-5.95 -13.71,-9.95 -21.23,-12.87 -6.38,-2.45 -11.89,-6.33 -17.39,-10.32 -4.08,-6.03 -5.07,-12.88 -7.46,-19.76 -3.2,-9.17 -13.16,-11.64 -21.56,-13.8 -3.52,-1.7 -6.41,-3.45 -9.5,-5.9 -11.13,-8.79 -24.35,-11.33 -37.14,-16.01 -4.67,-1.72 -9.15,-2.68 -14.06,-3.54 -3.91,-1.9 -6.62,-3.87 -9.86,-6.85 -5.26,-4.9 -12.12,-10.8 -19.72,-10.93 -9.42,-0.13 -13.21,10.05 -16.64,17.13 -7.66,15.81 -21.29,28.89 -35.5,39.23 -8.23,5.99 -3.14,13.52 0.29,20.29 5.32,10.59 17.12,15.89 26.35,22.38 6.35,4.46 7.7,8.58 10.09,15.39 3.39,6.74 8.58,11.52 14.21,16.56 7.2,6.4 6.13,20.7 6.24,29.22l1.09 2.43c3.58,7.85 11.85,5.2 18.65,3.83 6.13,-1.24 14.67,2.99 15.81,9.36 2.07,11.31 -14.05,7.3 -19.99,5.36 -9.76,-3.16 -14.8,-2.57 -23.26,1.8 -3.83,1.97 -7.7,3.93 -11.7,5.5 -9.23,3.62 -15.97,-9.4 -20.43,-15.18 -2.39,-3.1 -4.9,-6 -7.81,-8.6 -1.3,-3.71 -2.66,-7.37 -4.14,-10.99 -4.31,-10.59 -14.65,-14.99 -25.48,-13.59 -8.54,1.11 -16.41,-1.19 -23.03,-7.14 -3.98,-3.58 -6.68,-8.56 -9.13,-13.38 -1.87,-3.72 -7.62,-7.52 -11.79,-7.93 -10.95,-1.07 -22.19,7.66 -32.03,11.07 -1.97,0.67 -4.04,0.92 -6.07,1.22 -12.86,2.66 -24.75,-2.47 -36.91,-6.38 -2.22,-0.13 -4.44,-0.25 -6.64,-0.38l-15.64 5.44c-9.71,4.79 -14.22,12.75 -16.18,23.09 0.76,2.81 1.55,5.76 1.59,8.69 0.04,3.46 -4.71,-0.19 -7.04,-1.21 -8.48,-3.6 -15.51,-5.15 -23.78,-1.2 -2.47,1.19 -4.92,2.31 -7.39,3.44 -4.48,2.05 -9.52,4.35 -14.57,3.89 -1.8,-0.15 -3.08,-0.02 -5.82,0.63 -7.6,1.8 -14.84,0.07 -22.02,-2.72 -4.71,-3.91 -11.13,-6.2 -17.31,-4.73 -2.3,0.54 -3.76,0.75 -4.21,0.61 -2.11,-0.59 -5.55,0.88 -7.66,1.38 -12.94,1.88 -25.04,6.87 -37.2,11.5l-2.43 -0.19c-6.99,-0.57 -15.74,3.35 -18.84,9.76 -4.9,10.13 6.66,17.9 13.59,22.32 4.56,2.93 10.76,7.94 13.78,11.16 6.41,6.8 12.16,10.49 20.45,14.5 4.92,2.39 10.68,5.74 12.79,7.46 2.11,1.72 4.46,4.59 5.25,6.35 5.97,13.69 19.09,22.4 32.93,26.52 9.19,2.74 14.95,7.18 21.12,14.02 6.57,3.18 13.36,3.69 20.58,4.74 4.98,2.41 8.43,5.9 12.08,10 6.74,4.37 13.04,9.15 18.38,15.2 2.15,2.45 3.05,5.23 4.48,8.1 5.9,11.7 17.17,9.23 28.53,11.07 11.22,1.78 15.13,6.83 21.69,15.74 4.61,6.26 6.01,7.39 13.54,11.03 5.84,2.83 11.47,5.56 13.63,11.8 1.42,4.12 3.48,7.1 6.11,10.49 1.99,7.33 4.35,14.45 6.83,21.63l0.34 2.13c0.69,4.21 0.42,8.67 0.15,12.94 -0.56,8.5 8.18,13.34 15.57,15.41 6.45,1.82 6.22,8.04 4.75,13.59 -1.57,6.01 -3.87,11.46 -6.34,17.17 -2.56,5.99 -5.48,11.79 -6.43,12.86 -3.79,4.21 -4.41,12.58 -5.74,17.98 -5.32,11.33 -11.62,23.37 -22.04,30.84 -5.28,3.77 -7.54,9.25 -9.76,15.2 -3.79,10.2 -10.13,14.97 -17.85,21.63 -3.18,2.76 -3.27,6.57 -3.37,10.42 -0.19,8.31 -3.56,17.71 -9.15,23.85 -4.98,5.48 -18.22,7.41 -21.31,-0.8 -3.1,-8.25 3.79,-17.67 10.99,-21.04 2.13,-0.99 3.41,-1.74 3.68,-2.11 0.23,-0.32 1.57,-1.17 2.95,-1.85 4.88,-2.45 11.74,-6.91 8.61,-12.73 -5.09,-9.5 -15.55,-0.78 -23.32,-0.92 -4.69,-0.09 -9.32,-0.88 -13.98,-1.49 -9.28,0.19 -14.36,3.68 -22.04,8.19 -5.5,3.24 -11.14,-8.29 -13.61,-11.44 -11.47,-8.41 -23.87,-0.69 -30.44,9.76 -5.8,9.22 -15.09,11.08 -24.79,14.66 -5.44,2.7 -9.69,6.89 -13.42,11.59 -3.89,4.88 -7.87,7.89 -14.07,4.88 -8.61,-4.16 -5.8,-12.1 -1.76,-18.74 4.63,-7.56 4.86,-19.74 -6.81,-20.52 -10.09,-0.67 -16.01,2.74 -22.21,10.61 -1.63,2.07 -5.13,4.23 -7.49,1.87 -0.94,-0.92 -0.61,-4.29 0.94,-10.13 1.3,-4.81 1.98,-10.32 1.5,-12.25 -0.54,-2.3 -0.75,-3.75 -0.63,-4.21 1.13,-3.93 -2.76,-11.72 -4.14,-15.64 -2.18,-6.32 -10.82,-17.61 -18.55,-10.74 -5.42,4.83 1.72,10.72 3.77,15.11 5.55,11.89 -9.07,13.86 -17.37,16.1 -11.6,3.16 -11.28,-6.34 -17,-12.98 -3.7,-4.31 -6.32,-4.17 -11.22,-3.37 -8.08,1.32 -11.45,14.65 -13.19,20.24 -3.46,11.17 -8.56,20.47 -17.96,27.7 -4.35,3.37 -7.83,7.14 -10.93,11.6l-4 3.14c-6.2,4.9 -6.05,9.65 -6.3,17.23 -0.48,14.47 10.17,22.74 16.79,34.5 4.79,8.52 0.61,19.03 -5.95,25.27 -11.43,10.87 -17.67,26.63 -25.94,39.9 -1.67,1.78 -3.41,3.31 -5.48,4.63 -8.02,5.01 -11.87,10.59 -13.69,20.04 -4.96,25.79 -28.05,43.33 -43.94,63.08 -6.57,8.48 -5.65,20.91 -5.97,31.17 1.07,14.17 -5.25,32.99 -13.65,44.36 -9.33,12.59 -14.46,34.23 -9.46,49.85 2.3,7.1 3.54,12.58 3.43,20.01 -0.1,5.28 0.76,10.03 2.47,14.97 -1.99,7.08 10.17,13.63 14.51,17.61 9.04,8.29 18.74,14.57 29.41,20.66 1.85,1.76 3.69,3.5 5.53,5.26l1.53 3.27c0.92,1.94 1.91,3.79 3.18,5.52 4.27,8.16 11.03,14.53 17.12,21.41l2.76 4.36c5.63,8.98 5.28,15.91 2.2,25.79 -3.58,11.35 -3.06,22.04 0.9,33.22 3.93,11.16 2.11,19.39 0.65,30.75 -0.88,6.74 -0.19,12.96 0.71,19.64 0.77,5.67 1.04,11.47 -3.58,15.66 -7.93,7.18 -17.43,10.19 -27.51,7.07 -14.4,-4.46 -25.33,2.83 -35.04,13.04 -5.07,5.34 -8.73,5.59 -15.36,2.65 -3.37,-1.48 -8.73,-4.54 -11.94,-6.76 -7.5,-5.21 -8.44,-9.59 -10.01,-17.84 -1.24,-6.47 -3.91,-12.83 -6.57,-18.84 -3.45,-7.81 -6.28,-15.96 -8.44,-24.24 -1.78,-6.81 -4.67,-12.87 -7.6,-19.26 -2.22,-4.86 -3.87,-9.9 -5.63,-14.95 -1.65,-4.65 -4.54,-7.78 -8.56,-10.7 -3.06,-2.26 -5.88,-4.59 -8.18,-7.62 -0.78,-3.41 -1.41,-6.05 -0.94,-9.52 1.09,-7.83 -6.26,-14.95 -11.31,-20.1 -3.27,-3.31 -3.93,-6.87 -5.91,-11.07 -1.78,-3.68 -4.88,-6.76 -7.53,-9.84l-2.45 -7.05c-1.86,-5.34 -1.7,-10.7 -2.26,-16.26 -1.84,-18.72 -21.41,-23.53 -33.12,-35.19 -1.53,-1.51 -3.64,-4.02 -4.69,-5.55 -9.06,-13.36 -23.43,-3.79 -33.78,2.05 -9.09,7.01 -20.75,4.75 -31.34,1.72 -7.3,-2.09 -7.64,-7.66 -8.52,-13.98 -0.44,-13.48 -5.99,-27.59 -18.36,-33.58 -9.04,-4.37 -18.67,-3.54 -28.37,-4.69 -4.02,-0.48 -9.71,-0.84 -12.62,-0.82 -12.65,0.06 -16.5,-11.18 -24.6,-18.5 -6.13,-5.55 -12.71,-7.81 -20.47,-5.11 -4.9,1.7 -9.28,4.17 -13.82,6.68 -5,1.61 -9.09,1.28 -14.32,0.92 -8.71,-0.59 -18.13,9.02 -24.03,14.47 -3.29,3.06 -7.12,4.67 -11.28,6.13 -1.23,0.88 -2.39,1.8 -3.54,2.8 -3.87,3.41 -11.58,4.21 -16.56,5.93 -10.72,5.36 -21.18,19.72 -17.43,32.28 3.2,10.81 7.87,21.06 14.76,29.98 2.59,3.43 4.52,6.99 6.32,10.85 3.87,4.25 7.26,8.64 9.71,13.86 1.07,2.3 1.95,3.81 3,5.07 7.89,9.72 0.42,24.1 -0.8,35.04 0.23,4.73 -0.27,9.13 -1.59,13.75 -2.05,7.12 -3.56,15.12 -0.33,22.06 4.84,10.35 6.93,21.82 6.13,33.18 -1.15,16.64 13.84,34.52 27.7,41.22 3.18,1.53 7.58,4.54 9.76,6.66 6.41,6.26 18.11,11.13 27.15,8.35 5.23,-1.59 8.67,-8.67 11.66,-12.88 2.91,1.09 5.82,2.18 8.71,3.26 4.78,6.2 16.5,1.28 21.17,-2.81 12.37,-10.87 31.11,-8.08 44.99,-1.36 7.04,3.41 4.41,10.59 -0.25,14.17 -5.42,4.19 -10.42,8.88 -14.82,14.15 -7.28,8.73 -1.51,17.67 3.26,25.75 6.54,11.7 18.63,13.96 30.86,11.62 7.5,-1.43 13.74,-0.67 20.52,3.48 6.41,3.94 14.24,4.71 21.54,5.99 4.08,1.61 6.41,6.01 6.59,10.3 5.92,8.93 16.2,11.41 25.96,14.42 6.6,3.2 12.31,7.37 16.85,13.27 2.7,3.52 5.51,5.84 9.06,8.48 4.46,6.61 10.2,11.62 16.68,16.31 3.04,2.2 5.59,4.77 8.25,7.45 5.11,7.04 12.37,11.26 19.64,15.85 3.35,2.93 6.7,5.84 10.07,8.77l1.85 2.85c3.7,5.63 6.49,11.96 9.52,18 3.94,6.28 6.65,13.13 9.46,19.97 3.08,3.98 5.93,8.08 8.77,12.24 2.13,7.46 1.86,14.24 1.72,22.04 0.48,1.91 0.96,3.85 1.44,5.76 4.58,10.93 11.64,8.33 21.2,4.44 3.08,-1.24 7.48,0.96 8.29,4.19 1.34,5.38 -1.45,9.5 -4.4,13.88 -6.36,9.38 -12,19.43 -16.94,29.64 -4.09,8.46 -10.85,15.15 -18.61,20.22 -8.59,2.41 -13.71,8.4 -11.5,17.71 1.82,7.69 0.23,13.11 -3.08,19.97 -2.15,4.42 -4.06,9.38 -4.16,14.28 -0.11,5.45 -0.84,11.68 -3.02,16.69 -1.74,4.02 -0.56,9.23 -0.13,13.44 -1.26,5.15 -2.37,10.3 -3.44,15.49 -4.02,8.33 -16.73,14.28 -24.76,19.03 -6.89,4.11 -13.09,13.52 -6.01,20.7 1.38,4.73 4.27,7.64 7.48,11.41l0.81 2.35c0.72,2.07 0.92,2.57 1.78,4.33 1.38,2.91 0.11,6.97 -0.38,9.98 -7.35,15.22 -9.92,34.23 -4.12,50.2 4.37,12.02 1,20.54 -3.16,32.09 -0.27,2.45 -0.56,4.92 -0.82,7.39 -0.41,5.82 -0.67,11.64 -0.92,17.48 -2.47,15.39 -10.22,29.48 -16.96,43.41 -5.32,11.01 -1.34,22.72 7.64,30.21 4.96,2.39 9.98,4.13 15.18,5.89 7.28,6.67 16.26,0.52 23.67,-2.83 7.39,-3.18 13.27,-7.09 19.03,-12.77 2.85,-2.8 6.59,-4.02 10.24,-5.3l1.36 -1.3c3.75,-3.62 7.5,-7.26 11.16,-10.99 3.24,-3.27 6.83,-4.98 11.06,-6.74 8.12,-3.35 15.91,-9.97 22.19,-16.16 6.19,-3.48 12.85,-2.26 18.72,1.89 5.47,3.87 13.55,4.86 19.97,6.55 10.36,4.44 12.79,13.52 16.25,23.46 2.78,11.31 6.65,19.7 13.98,29.16 7.14,9.21 10.22,12.31 14.04,14.15 8.41,4.06 11.91,1.02 17.19,-5.07 6.09,-7.03 11.24,-1.69 13.46,5.63 2.37,7.83 -2.95,15.89 -7.48,22 -5.19,6.99 -6.65,16.1 3.96,17.86 3.29,0.54 6.47,1.21 9.7,1.99 4.5,1.09 10.19,2.2 14.44,-0.04 3.29,-1.74 6.64,-3.43 10.07,-4.86 6.99,-2.95 8.54,9.56 11.94,13.52 9.57,11.11 27.42,8.75 40.06,11.68 2.93,0.69 7.04,0.36 10.66,-0.84 8.18,-2.72 9.4,1.13 8.9,8.27 -1.32,2.74 -2.76,5.28 -4.92,7.48 -9.57,9.84 -4.96,28.24 -0.98,39.69 2.41,6.91 8.57,12.94 16.44,11.28 10.39,-2.18 15.11,-14.97 12.18,-24.33 -2.93,-9.34 -1.24,-19.64 6.89,-26.13 5.38,-4.31 12.31,-5.53 18.76,-7.43 11.54,-3.37 14.55,15.93 13.36,24.47 -0.76,5.53 -0.71,14.28 6.63,15.14 5.23,0.63 10.01,-2.97 13.92,-6.11 6.61,-5.28 17.21,-15.01 18.25,-24.01 1.07,-9.32 -4.46,-13.4 -9.8,-20.06 -8.12,-10.13 -9.32,-19.45 -5.8,-31.55 1.9,-6.45 3.68,-12.89 3.3,-19.62 -0.27,-5.34 1.47,-15.32 9.04,-14.88 4.19,0.25 9.07,2.74 12.2,5.55 3.31,2.99 10.8,2.3 15.11,2.8 7.98,0.92 12.27,13.08 15.98,19.47 4.92,9.8 13.73,13.5 23.13,18.84 9.63,7.24 20.16,13.31 31.61,17.17 9.06,3.06 15.09,12.79 19.8,20.7 2.01,3.37 4,6.2 6.66,9.07 3.26,3.5 6.01,7.33 8.75,11.24l2.2 2.47c3.43,3.85 1.67,8.61 -0.31,12.71 -4.39,9.06 0,12.89 8.9,14.26 3.44,0.52 6.64,1.11 9.96,2.16 6.47,2.07 17.88,8.08 21.52,14.06 5.26,8.67 -3.22,21.37 -4.73,30.31 -2.2,12.98 15.58,20.01 23.11,27.65 6.7,6.81 2.64,17.65 0.5,25.96 0.71,2.51 1.42,5.02 2.09,7.54 2.7,10.01 -3.1,22.86 -14.34,21.44 -4.19,-0.52 -12.56,2.94 -9.44,8.77 2.6,4.86 10.41,4.46 14.93,4.4 4.65,-0.04 10.2,0.54 12.37,1.3 5.99,2.09 7.54,10.03 10.19,15.26 7.91,7.87 9.97,18.34 13.55,28.6 3.49,6.93 7.95,10.72 14.86,14.59 4.39,2.43 8.33,5.15 8.75,6.01 0.84,1.72 1.67,3.47 2.49,5.21 -1.32,7.12 -1.59,14.11 -1.52,21.35 0.06,6.55 -0.19,14.28 -2.8,20.45 -4.96,11.7 13.5,17.15 21.54,17.04 8.2,1.11 10.44,10.83 14.07,17.21 1.24,2.49 2.56,4.92 4.27,7.16 3.39,4.39 -1.78,11.45 -4.31,15.22 -8.63,12.85 6.32,20.79 10.13,31.74 1.82,5.21 4.18,9.69 7.53,14.04 1.84,2.43 3.5,4.82 4.78,7.58 1.63,3.45 3.81,6.19 6.17,9.19 5.59,7.16 7.3,15.33 8.96,23.99 0.9,4.69 2.3,7.74 5.19,11.49 0.59,3.18 0.86,6.32 0.86,9.57 0.02,2.7 0.17,5.42 0.34,6.01 0.4,1.24 0.65,2.53 0.9,3.81 1.72,8.21 -10.28,12.65 -16.62,14.07 -3.33,0.48 -6.63,1.07 -9.92,1.7 -3.28,0.44 -6.51,1.02 -9.76,1.65 -2.7,0.4 -5.34,0.88 -7.98,1.53 -5.8,1.44 -11.93,0.77 -17.83,0.42 -11.75,-0.7 -21.9,3.85 -27.4,14.32 -4.36,8.31 -9.63,13.61 -16.94,19.18 -5.61,2.13 -11.18,4.25 -16.77,6.43 -14.97,5.9 -25.02,29.79 -19.68,45.11 2.05,5.87 1.42,12.08 1.51,18.28 0.27,20.52 -11.91,39.69 -19.64,58.22l-1.34 2.78c-5.57,11.52 9.94,21.61 18.97,13.02 11.68,-11.11 20.64,2.97 28.89,10.39 5.07,4.59 14.61,8.04 19.91,0.73 2.09,-2.91 8.31,-2.81 11.78,-2.95 13.27,-0.42 11.37,-17.98 12.83,-26.99 2.37,-14.82 19.91,-10.15 30.73,-9.21 3.44,0.28 8.31,0.34 9.23,-3.93 0.77,-3.7 -5.86,-5.44 -8.61,-6.01 -4.65,-0.98 -8.64,-6.13 -11.57,-9.57 -5.3,-6.28 -10.83,-18.46 -4.78,-25.67 9.36,-11.22 26.42,-1.09 35,5.19 8.9,6.51 20.14,13.4 31.09,15.8 13.4,2.93 23.72,0.19 33.46,-9.73 8.81,-10.07 25.04,-11.89 37.85,-12.06 8.73,-0.12 17.92,-2.41 24.94,-7.83 2.99,-2.3 9.57,-5.04 13.23,-3.28 4.67,2.26 5.26,12.91 6.33,17.5 0.63,3.12 1.19,6.15 0.17,9.3 -5.04,15.55 2.6,37.2 20.35,39.02 14.32,1.46 18.67,-17.19 26.9,-25.65 6.89,-7.07 16.22,-6.74 21.54,2.81 5.24,9.4 1.97,17.5 -3.91,25.5 -8.08,11.01 -18.06,7.35 -29.91,4.88 -8.04,-0.71 -14.57,8.14 -15.15,15.7 -0.38,5.24 2.11,9.88 4.29,14.45 -0.36,8.75 -3.41,23.67 -13.61,26.19 -5.36,1.34 -10.72,0.25 -16.08,-0.48 -13.25,-1.86 -19.32,4.96 -20.26,17.5 7.16,17.09 27.74,23.13 44.76,24.24 10.22,-5.46 17.11,-16.23 25.04,-24.5 11.81,-10.78 26.77,-1.4 40.88,-1.48 5.89,-0.02 12.37,0.06 17.75,2.66 5.49,2.66 2.68,10.85 2.09,15.24 -1.07,7.94 -1.72,11.95 -9.52,14.55 -3.02,1 -7.1,3.14 -9.07,4.75 -6.78,5.53 -8.98,11.83 -6.34,19.39 0.84,2.47 1.72,4.88 2.76,7.26 5.61,12.81 -9.92,20.83 -17.82,27.93 -1.89,1.7 -4.08,4.41 -4.84,5.99 -4.52,9.35 11.6,13.13 16.39,18.07 6.8,7.01 -2.54,18.28 -3.96,26.17 -1.46,8 -0.12,17 9.52,18.24 5.46,0.71 11.24,-0.84 16.67,-1.95 10.15,-2.07 21.18,5.7 29.29,11.05 10.7,7.05 10.86,18.78 2.8,28.51 -0.97,1.19 -2.64,5.17 -3.69,8.84 -1.88,6.67 -5.3,10.7 -10.78,14.72 -5,3.68 -11.39,13.84 -11.74,20.14 -0.29,4.82 5.63,3.28 8.02,1.42 11.54,-8.91 29.5,-1.88 39.74,5.88 9.34,7.04 19.32,2.14 27.61,-4.23 2.57,-1.97 11.7,-6.28 14.36,-3.64 1.11,1.13 0.32,3.48 -4.56,13.59 -3.25,6.72 -6.15,13.72 -6.41,15.54 -0.8,5.23 5.36,14.67 10.32,7.72 1.61,-2.26 2.34,-4.67 3.24,-7.29 4.63,-13.59 18.11,-10.51 29.3,-8.37 2.37,2.37 2.89,4.41 3.87,7.74 2.26,7.91 4.65,15.8 7.05,23.68 4.38,15.22 25.31,18.96 38.69,22.74 9.69,-0.23 10.8,-10.53 10.47,-18.49 -0.29,-7.14 2.43,-19.07 10.57,-20.85 5.82,-1.26 14.24,2.05 19.89,3.1 6.24,0.06 10.49,3.93 15.87,6.53 7.3,3.52 12.44,-2.91 18.28,-5.53 7.16,-3.26 17.23,-4.43 24.74,-2.68 8.67,2.01 13.74,-11.68 18.3,-16.87 4.48,-5.13 12,-6.83 18.11,-8.9 9.8,-3.3 24.68,-4.39 31.99,5.11 4.04,5.22 1.53,12.46 -0.76,17.84 -4.25,10.04 -9.8,19.93 -16.79,28.32 -4.48,5.4 -7.72,12.5 -7.05,19.64 1.5,15.7 20.07,12.16 30.41,17.13 8.88,4.31 2.03,16.83 -0.75,23.19 -3.06,4.86 -5.94,9.72 -7.91,15.17 -2.22,6.13 -6.03,12.17 -11.3,16.08 -4.04,0.7 -7.02,0.46 -11.16,-0.23 -12.22,-2.09 -19.55,5.06 -21.58,16.98 -2.03,11.89 2.3,17.56 10.26,25.06z"/>
    </g>
   </g>
   <path class="fil1" d="M1258.14 391.57l3259.32 0 0 3107.39 -3259.32 0 0 -3107.39zm0 0z"/>
   <g>
   </g>
   <g style="clip-path:url(#id1)">
    <g>
     <path class="fil0" d="M3274.46 450.06c7.01,8.73 16.91,10.59 26.31,15.14 8.12,3.91 24.08,10.89 33.02,4.98 2.39,-1.59 4.63,-3.29 6.91,-5.03 1.95,-3.22 5.32,-3.6 8.84,-4.83l0.9 -1.02c2.87,-3.1 9.27,-4.02 13.19,-5.45l12.27 -4.44c5.38,-2.37 10.78,-4.71 16.22,-6.97 5.78,-2.39 11.24,-5.13 16.77,-8.02 2.91,-1.32 6.07,-1.17 9.25,-1.21 13.25,-0.17 24.91,-10.57 29.14,-22.93 1.67,-4.9 5.24,-9.23 10.15,-11.13 3.12,-1.59 5.52,-2.81 7.87,-5.42 10.91,-12.04 9.9,-27.22 13.52,-41.83l-0.33 -2.49c-1.05,-8.52 -8.02,-13.42 -14.97,-17.67 -4.58,-2.81 -8.77,-5.82 -12.35,-9.8 -3.02,-7.72 -2.15,-15.99 -0.19,-23.91 3.58,-14.55 -13.72,-15.72 -22.36,-23.82 -0.78,-0.74 -1.85,-2.12 -2.35,-3.08 -5.34,-10.09 -18.69,-18.13 -28.74,-23 -4.98,-2.41 -11.37,-3.08 -16.64,-1.7 -2.62,0.67 -3.71,0.86 -4.23,0.71 -1.95,-0.56 -4.92,1.07 -6.83,1.63 -9.06,2.7 -18.91,-2.01 -22.69,-10.53 -2.39,-5.42 -5.74,-9.96 -10.32,-13.75 -10.36,-8.57 -20.52,6.7 -28.66,10.4 -4.23,1.91 -8.04,2.76 -12.77,1.67 -4.11,-0.94 -10.15,-2.18 -13.34,1.7 -3.75,4.57 -1.32,13.27 -0.59,18.59 0.04,3.46 -0.21,6.81 -0.92,10.22 -0.54,2.61 -0.98,7.28 -0.96,10.42 0.06,10.55 -5.57,17.52 -14.61,22.09 -8.77,4.13 -13.07,11.18 -18.3,19.34 -4.39,6.89 -10.36,14.99 -13.27,18.05 -4.59,4.81 -8.61,12.02 -4.44,18.25 2.45,4.9 5.74,9.06 9.04,13.4 2.91,3.8 4.29,7.26 5.86,11.74 2.22,2.98 4.04,6.26 5.94,9.5 5.93,6.15 7.08,16.24 9.69,24.18 6.53,19.72 7.18,21.71 7.98,24.01 1.57,4.5 4.04,8.31 7.01,12.02z"/>
    </g>
   </g>
   <path class="fil1" d="M3223.54 220.03l259.76 0 0 254.87 -259.76 0 0 -254.87zm0 0z"/>
   <g>
   </g>
   <g style="clip-path:url(#id2)">
    <g>
     <path class="fil0" d="M3794.51 175.9c2.41,4.75 9.9,8.61 15.11,7.83 4,-3.64 6.95,-7.08 10,-11.62 6.76,-10.15 12.88,-12.85 24.48,-12.61 7.07,0.15 13.46,-1.15 17.21,-7.58 3.79,-6.51 4.96,-14.2 5.52,-21.59 0.42,-5.65 0.92,-6.99 4.11,-10.82 7.28,-8.75 3.91,-22.48 4.15,-33.08l-0.74 -2.97 -0.73 -2.97c-0.92,-1.38 -1.7,-2.76 -2.43,-4.23 -4.02,-8.04 -13.71,-13.7 -22.5,-11.62 -7.33,1.72 -14.99,0.4 -22.27,-1.04 -12.06,-2.35 -22.54,9.07 -28.7,17.52 -8.57,11.74 -19.2,23.76 -30.69,32.68 -6.95,5.38 -12.14,13.13 -6.2,22.07 3.91,5.86 9.29,8.06 15.7,10.2 12.31,4.09 12.94,19.87 17.98,29.83z"/>
    </g>
   </g>
   <path class="fil1" d="M3757.77 63.19l122.53 0 0 122.53 -122.53 0 0 -122.53zm0 0z"/>
   <g>
   </g>
   <g style="clip-path:url(#id3)">
    <g>
     <path class="fil0" d="M4019.51 565.19c3.69,7.39 12.06,10.78 19.87,8.94 5.29,-1.24 10.38,-0.25 15.05,2.8 13.07,8.44 26.69,-2.54 39.7,-6.22 8.94,-2.51 15.49,-12.62 21.27,-19.41 7.98,-9.42 11.41,-19.15 11.26,-31.09 -0.06,-4.96 -0.08,-9.63 0.59,-14.57 2.19,-15.72 -17.13,-17.59 -27.05,-23.68 -6.7,-4.1 -9.56,-3.3 -16.66,-1.25 -8.86,-0.74 -16.39,2.91 -24.64,5.88 -7.37,2.64 -14.32,5.21 -19.58,11.03l-2.05 4.21c-1.7,7.24 -2.98,11.96 -9.07,16.87 -8.59,6.93 -15.64,18.15 -15.39,29.45 0.13,6.17 3.96,11.6 6.7,17.06z"/>
    </g>
   </g>
   <path class="fil1" d="M4012.64 474.89l117.63 0 0 107.83 -117.63 0 0 -107.83zm0 0z"/>
   <g>
   </g>
   <g style="clip-path:url(#id4)">
    <g>
     <path class="fil0" d="M2986.09 476.98l3.22 2.68 3.05 1.47c2.35,0.11 3.81,0.56 6.01,1.61 8.35,4.04 16.46,0.27 24.33,-2.68 8.9,-3.33 16.24,-0.48 24.58,2.64 6.89,2.58 14.59,5.06 22.07,4.13 5.36,-0.67 8.27,-6.83 10.69,-10.87 1.84,-3.04 4.94,-7.04 6.89,-8.88 3.02,-2.81 5.49,-5.99 7.91,-9.31 4.71,-4.54 6.68,-9.82 5.15,-16.21 -1.11,-4.75 -1.4,-9.8 -2.07,-14.65 0.52,-15.28 -20.78,-9.86 -30.14,-11.98 -2.74,-0.61 -5.36,-1.15 -8.15,-1.34 -10.03,-0.71 -23.17,4.38 -30.19,10.87 -3.29,3.06 -7.26,6.41 -8.81,7.44 -5.19,3.52 -9.4,8.83 -13.75,13.35 -3.29,1.47 -6.58,2.99 -9.88,4.46 -10.36,5.21 -22.59,17.56 -10.91,27.26z"/>
    </g>
   </g>
   <path class="fil1" d="M2978.48 411.18l122.53 0 0 78.42 -122.53 0 0 -78.42zm0 0z"/>
   <g>
   </g>
   <g style="clip-path:url(#id5)">
    <g>
     <path class="fil0" d="M4327.75 2511.84c5.72,6.56 10.83,6.11 18.09,9.4 2.41,1.09 6.14,1.97 8.27,1.99 2.17,0 6.93,1.45 10.63,3.24 8.54,4.13 12.24,1.51 16.54,-6.61 2.76,-5.19 5.63,-10.28 8.58,-15.35 3.6,-6.24 7.29,-13.61 5.53,-21.04 -0.5,-2.17 -0.73,-3.87 -0.17,-5.99 -1.51,-2.3 -2.7,-4.73 -3.94,-7.18 -8.59,-7.12 -13.88,-16.04 -20.56,-24.7 -7.48,-9.7 -23.03,-2.74 -32.28,-0.02 -7.85,2.3 -12.29,7.81 -13.73,16.06 -1.06,6.17 -2.49,12.71 -6.19,17.92 -5.95,8.4 -5,17.74 2.05,24.71 2.49,2.45 4.9,4.92 7.18,7.57z"/>
    </g>
   </g>
   <path class="fil1" d="M4311.61 2440.29l88.22 0 0 88.22 -88.22 0 0 -88.22zm0 0z"/>
   <g>
   </g>
   <g style="clip-path:url(#id6)">
    <g>
     <path class="fil0" d="M3663.12 542.59c8.79,10.74 22.34,10.19 34.29,14.09 3.79,1.25 8.2,1.82 10.2,1.36 2.28,-0.56 3.76,-0.77 4.21,-0.63 3.52,1 10.38,-3.91 12.81,-5.99 4.31,-3.69 5.28,-7.47 6.2,-13.07 -4.11,-9.8 2.57,-17.33 4,-26.79 1.45,-9.61 -9.77,-14.32 -15.01,-20.43 -4.75,-5.48 -9.19,-9.71 -16.56,-10.13 -14.96,-0.86 -28.55,4.33 -36.67,17.27 -8.29,13.19 -14.21,31.23 -3.48,44.32z"/>
    </g>
   </g>
   <path class="fil1" d="M3654.85 479.8l83.32 0 0 78.42 -83.32 0 0 -78.42zm0 0z"/>
   <g>
   </g>
   <g style="clip-path:url(#id7)">
    <g>
     <path class="fil0" d="M2844.07 314.47c9.69,11.22 28.72,6.37 41.45,7.12 12.41,0.71 9.74,-18.63 9.65,-26.42 -0.06,-4.56 -0.07,-9.07 0.04,-13.61 0.21,-7.22 -3.56,-12.12 -6.76,-18.25 -1,-2.87 -0.69,-6.43 -0.71,-9.4 0,-3.72 -0.19,-9.36 -4.29,-11.33 -2.8,-1.36 -8.02,-1.42 -10.55,0.59 -6.01,4.83 -16.33,6.47 -23.57,9.04 -5.09,2.56 -8.98,5.38 -11.52,10.66 -7.74,15.97 -2.17,29.28 2.95,44.71 0.8,2.8 1.4,4.65 3.31,6.89z"/>
    </g>
   </g>
   <path class="fil1" d="M2831.44 239.63l68.61 0 0 83.32 -68.61 0 0 -83.32zm0 0z"/>
   <g>
   </g>
   <g style="clip-path:url(#id8)">
    <g>
     <path class="fil0" d="M1535.33 547.13c5.32,10.49 18.7,7.39 27.8,9.06 13.1,2.41 22.82,-13.13 28.68,-21.94 8.9,-18.4 -11.41,-35.34 -23.13,-46.01 -9.54,-3.46 -15.39,5.4 -22.06,11.03 -14,11.81 -19.76,31.21 -11.3,47.87z"/>
    </g>
   </g>
   <path class="fil1" d="M1527.71 484.7l68.62 0 0 73.52 -68.62 0 0 -73.52zm0 0z"/>
   <g>
   </g>
   <g style="clip-path:url(#id9)">
    <g>
     <path class="fil0" d="M3851.49 764.43c4.84,5.63 14.45,10.59 21.57,6.81 3.68,-1.93 7.14,-3.79 10.36,-6.51 3.24,-2.76 6.37,-4.4 10.2,-6.19 2.89,-2.95 5.49,-5.78 7.83,-9.21 3.56,-5.22 2.93,-10.36 0.21,-15.76 -2.58,-5.82 -2.49,-11.13 -1.76,-17.44 -5.02,-9.36 -19.39,-2.01 -27.78,-1.91 -11.2,1.11 -20.98,6.26 -26.9,16 -6.53,10.76 -1.36,25.37 6.26,34.19z"/>
    </g>
   </g>
   <path class="fil1" d="M3841.09 710.15l63.72 0 0 63.72 -63.72 0 0 -63.72zm0 0z"/>
   <g>
   </g>
   <g style="clip-path:url(#id10)">
    <g>
     <path class="fil0" d="M3051.27 138.31c7.44,8.92 19.43,10.15 27.85,2.89 10.03,-8.66 7.74,-18.3 6.19,-29.56 1,-6.72 -3.98,-18.59 -8.21,-23.51 -6.28,-7.28 -16.89,-7.78 -23.34,-0.73 -6.45,7.04 -16.04,17.61 -17.27,27.43 -1.15,9.02 9.46,17.14 14.78,23.47z"/>
    </g>
   </g>
   <path class="fil1" d="M3032.39 77.89l58.81 0 0 68.61 -58.81 0 0 -68.61zm0 0z"/>
   <g>
   </g>
   <g style="clip-path:url(#id11)">
    <g>
     <path class="fil0" d="M3706.54 253.72l5.86 5.57 3.48 2.09c7.07,4.18 13.77,0.19 19.13,-4.48 9.21,-8.04 16.16,-20.18 16.96,-32.47 -2.47,-5.06 -7.1,-6.97 -12.25,-8.87 -5.44,-2.01 -7.41,-3.33 -10.44,-6.99 -6.24,-7.6 -16.25,-10.51 -21.81,-0.76 -5.22,9.21 -7.1,19.72 -9.59,29.94 0.21,1.74 0.44,3.46 0.65,5.2 1.78,4.29 4.63,7.52 8,10.76z"/>
    </g>
   </g>
   <path class="fil1" d="M3694.06 200.43l58.81 0 0 63.72 -58.81 0 0 -63.72zm0 0z"/>
   <g>
   </g>
   <g style="clip-path:url(#id12)">
    <g>
     <path class="fil0" d="M4976.67 1429.93c5.15,10.17 16.48,2.53 24.98,3.18 5.15,0.38 10.32,-1.21 14.24,-4.58 7.58,-6.51 18.55,-19.74 9.46,-28.56 -6.53,-6.36 -15.7,-15.01 -25.25,-15.53 -11.11,-0.57 -14.76,7.24 -20.33,16.41 -3.94,6.51 -7.31,12.96 -7.51,14.34 -0.69,5.4 2.03,10.05 4.41,14.74z"/>
    </g>
   </g>
   <path class="fil1" d="M4968.38 1381.62l63.72 0 0 53.91 -63.72 0 0 -53.91zm0 0z"/>
   <g>
   </g>
   <g style="clip-path:url(#id13)">
    <g>
     <path class="fil0" d="M3191.53 244.74c4.98,5.8 12.5,3.41 19.35,3.54 13.79,0.31 26.19,-12.08 27.91,-25.89 1.61,-12.87 -17.31,-18.11 -27.2,-18.65 -13.4,-0.69 -30.33,8.29 -26.56,24.14 0.65,2.74 0.77,3.77 0.5,4.65 -0.9,3.16 4.17,10.09 5.99,12.19z"/>
    </g>
   </g>
   <path class="fil1" d="M3184.33 200.43l58.81 0 0 49.01 -58.81 0 0 -49.01zm0 0z"/>
   <g>
   </g>
   <g style="clip-path:url(#id14)">
    <g>
     <path class="fil0" d="M4649.3 1116.96c4.61,9.09 16.39,5.32 24.7,5.88 10.05,0.69 15.94,-9.71 13.8,-18.76 -0.54,-2.28 -0.77,-3.75 -0.63,-4.21 2.39,-8.39 -7.68,-17.35 -13.74,-20.28 -6.8,-3.29 -17.39,-2.78 -23.05,2.11 -10.59,9.11 -6.43,24.68 -1.07,35.27z"/>
    </g>
   </g>
   <path class="fil1" d="M4640 1072.84l49.01 0 0 53.92 -49.01 0 0 -53.92zm0 0z"/>
   <g>
   </g>
   <g style="clip-path:url(#id15)">
    <g>
     <path class="fil0" d="M3255.67 3516.55c1.76,4.85 5.15,10.97 10.97,11.28 15.8,0.83 14.13,-23.41 20.12,-33.41 2.03,-3.39 3.75,-7.43 3.81,-8.96 0.3,-7.24 -9.65,-7.1 -14.69,-7.7 -14.15,-1.67 -25.75,13.65 -22.46,27.49 0.46,2.01 0.78,3.62 0.15,5.55l2.09 5.74z"/>
    </g>
   </g>
   <path class="fil1" d="M3248.04 3474.45l44.11 0 0 53.92 -44.11 0 0 -53.92zm0 0z"/>
   <g>
   </g>
   <g style="clip-path:url(#id16)">
    <g>
     <path class="fil0" d="M3727.71 788.8c3.83,7.12 17.83,10.2 25.29,10.61 5.3,-2.07 10.89,-2.15 16.58,-1.46 7.77,0.96 12.5,-7.08 6.99,-13.11 -9.44,-10.34 -25.44,-17.17 -39.63,-14.45 -6.59,1.26 -12.47,12.37 -9.23,18.42z"/>
    </g>
   </g>
   <path class="fil1" d="M3723.46 768.97l58.81 0 0 34.31 -58.81 0 0 -34.31zm0 0z"/>
   <g>
   </g>
   <g style="clip-path:url(#id17)">
    <g>
     <path class="fil0" d="M4602.07 1250.86c4.19,9.23 14.76,3.5 21.13,1.19 5.57,-2.01 11.03,-4.79 12.16,-6.17 5.65,-6.85 0.69,-19.47 -6.2,-23.65 -6.62,-4 -12.79,-1.78 -18.24,2.93 -5.3,4.56 -12.04,18.65 -8.84,25.69z"/>
    </g>
   </g>
   <path class="fil1" d="M4600.78 1219.88l39.21 0 0 39.21 -39.21 0 0 -39.21zm0 0z"/>
   <g>
   </g>
   <g style="clip-path:url(#id18)">
    <g>
     <path class="fil0" d="M2952.88 549.18c8.62,10.51 22.31,7.77 28.05,-4.1 6.66,-13.8 -16.33,-23.32 -26.71,-17.76 -8.25,4.4 -6.43,15.66 -1.34,21.86z"/>
    </g>
   </g>
   <path class="fil1" d="M2944.17 523.91l39.21 0 0 34.31 -39.21 0 0 -34.31zm0 0z"/>
   <g>
   </g>
   <g style="clip-path:url(#id19)">
    <g>
     <path class="fil0" d="M4346.94 2774.69c0.71,5.57 9.8,7.46 14.2,6.55 9.21,-8.19 5.24,-19.36 1.02,-28.68 -1.65,-3.58 -11.45,-15.41 -15.39,-7.3 -3.87,8 -0.94,20.89 0.17,29.43z"/>
    </g>
   </g>
   <path class="fil1" d="M4341.02 2739.26l29.41 0 0 44.11 -29.41 0 0 -44.11zm0 0z"/>
   <g>
   </g>
   <g style="clip-path:url(#id20)">
    <g>
     <path class="fil0" d="M3336.04 3473.11c3.14,7.51 15.6,12.62 21.27,4.86 4.82,-6.59 -0.84,-21.1 -5.92,-26.06 -2.89,-2.85 -5.42,-1.89 -8.86,-1.11 -8.39,1.89 -9,16.23 -6.49,22.3z"/>
    </g>
   </g>
   <path class="fil1" d="M3331.37 3449.94l29.41 0 0 34.31 -29.41 0 0 -34.31zm0 0z"/>
   <g>
   </g>
   <g style="clip-path:url(#id21)">
    <g>
     <path class="fil0" d="M2492.49 3225.71c2.81,6.19 14.43,12.23 20.22,7.1 4.69,-4.17 3.64,-10.32 3.1,-16.02 -1.55,-3.71 -6.05,-13.15 -11.56,-12.02 -8.71,1.8 -15.81,12.02 -11.76,20.94z"/>
    </g>
   </g>
   <path class="fil1" d="M2488.35 3199.98l29.41 0 0 39.21 -29.41 0 0 -39.21zm0 0z"/>
   <g>
   </g>
   <g style="clip-path:url(#id22)">
    <g>
     <path class="fil0" d="M1689.51 815.74c2.78,7.12 13.02,8.06 19.53,8.46 8.29,0.54 17.06,-4.31 11.98,-13.8 -5.44,-10.11 -15.81,-5.95 -24.3,-3.43 -3.98,1.17 -9.13,3.87 -7.22,8.77z"/>
    </g>
   </g>
   <path class="fil1" d="M1684.55 803.28l39.21 0 0 24.51 -39.21 0 0 -24.51zm0 0z"/>
   <g>
   </g>
   <g style="clip-path:url(#id23)">
    <g>
     <path class="fil0" d="M4202.87 3256.57c3,7.26 7.76,8.25 12.44,3.14 4.21,-4.61 5.69,-13.56 2.87,-19.32 -2.33,-4.75 -6.03,-3.85 -10.26,-2.87 -7.91,1.8 -7.37,13.5 -5.06,19.05z"/>
    </g>
   </g>
   <path class="fil1" d="M4198.89 3234.29l24.5 0 0 29.41 -24.5 0 0 -29.41zm0 0z"/>
   <g>
   </g>
   <g style="clip-path:url(#id24)">
    <g>
     <path class="fil0" d="M4415.28 2701.43c3.7,9.78 14.8,7.64 13.5,-2.89 -1.36,-10.82 -17.52,-7.81 -13.5,2.89z"/>
    </g>
   </g>
   <path class="fil1" d="M4414.54 2690.25l14.7 0 0 19.61 -14.7 0 0 -19.61zm0 0z"/>
   <g>
   </g>
   <g style="clip-path:url(#id25)">
    <g>
     <path class="fil0" d="M2500.93 3132.67c0.06,3.71 5.3,6.53 8.56,4.73 4.21,-2.35 8.89,-10.61 4.08,-14.59 -6.17,-5.13 -12.71,4.02 -12.64,9.86z"/>
    </g>
   </g>
   <path class="fil1" d="M2498.15 3116.66l19.61 0 0 24.5 -19.61 0 0 -24.5zm0 0z"/>
  </g>
  <path class="fil2" d="M3042.43 1106.17c12.77,20.44 20.92,6.58 26.03,36.47 2.82,16.49 -4.02,40.96 1.83,55.61 11.17,27.95 78.39,14.5 61.58,68.25 -18.92,5.8 -77.24,11.41 -101.37,14.83 -76.04,10.75 -118.22,23.05 -205.69,33.42l-352.18 -2.3c-36.96,-2.96 -185.42,-39.15 -205.92,-23.71 -1.69,35.96 43.26,24.49 68.37,42.39 -1.46,25.81 -59.16,72.63 -6.92,87.63 25.61,-10.99 9.97,-19.02 31.61,-29.13 24.83,13.44 8.07,27.12 37.75,33.49l10.95 -29.09c79.2,-14.92 191.87,45.24 276.53,51.48 142.61,10.52 66.86,-8.81 201.72,32.26 44.97,13.7 18.49,15.14 38.09,44.57 27.41,-2.72 45.3,-41.05 71.7,-39.53 0.28,1.65 -7.04,130.77 -2.68,169.57 6.61,58.83 4.66,116.19 4.53,176.21 -0.08,33.91 3.87,54.78 5.53,85.21 1.76,32.3 -11.35,47.22 -4.95,73.5 18.56,76.2 -18.06,19.73 2.48,157.17l38.55 232.56c4.78,49.31 1.16,29.16 17.78,72.59 7.54,19.72 15.85,83.3 38.49,142.24 40.67,105.85 -18.79,78.91 35.54,145.7 -2.87,21.08 -9.74,48.35 -24.68,61 -32.75,27.76 -18.93,17.62 -15.89,49.25 -40.94,25.63 -48.63,67.5 -97.82,70.85 -20.81,1.42 -50.82,3.6 -65.02,20.54 -18.79,22.41 -4.14,42.68 20.61,49.75 92.39,26.37 165.44,8.5 224.68,8.99 44.96,0.38 41.62,3.04 78.93,-11.43 2.06,-26.61 2.7,-56.41 -0.71,-82.89 -6.31,-49.05 13.03,-28.43 -15.24,-65.04 33.84,-26.62 22.24,-60.98 22.05,-106.44 -0.08,-19.81 4.33,-110.05 12.12,-120.76 14.29,9.27 19.37,95.91 19.33,110.27 -0.06,19.15 -5.96,18.92 -4.85,42.28 1.69,35.99 20.33,30.63 10.81,68.86 -12.53,50.39 -9.22,-13.79 -16.42,79.9 -5.22,68.04 6.42,82.8 -46.15,129.2 -32.33,28.54 -79.12,51.01 -92.13,95.07 46.27,77.24 189.81,12.79 249.29,-22.98 52.71,-31.7 31.27,-34.24 34.65,-73.13 2.69,-30.88 8.06,-1.83 0.9,-39.2 -2.65,-13.83 -2.29,-28.72 3.27,-41.53 17.3,-39.85 20.67,-263.3 20.67,-318.22 0,-60.33 7.89,-153.67 -31.28,-202.8 -29.23,-36.68 -5.89,-37.14 2,-81.63 4.81,-27.07 4.3,-85.54 0.92,-112.96 -4.89,-39.68 65.04,-354.5 76.98,-383.24 33.88,-81.48 48.83,-161.5 39.84,-249.48 -5.06,-49.52 17.06,8.05 -3.71,-149.7l-17.19 -99.75c-18.33,-69.06 -50.66,-91.88 -113.16,-120.73 -44.21,-20.4 -59.58,-13.31 -92.38,-24.63 -43.02,-14.86 8.07,-54.82 29.51,-171.96 11.09,-60.63 -26.91,-127.31 -85.87,-144.45 -35.91,-10.44 -132.04,1.75 -168.97,49.4 -10.22,13.19 1.86,17.78 -0.54,35.94 -2.84,21.58 -13.21,17.82 -15.82,41.09 -2.26,20.13 5.96,22.13 -6.38,42.67 -10.07,16.72 -15.96,13.54 -21.72,36.47z"/>
 </g>
</svg>
