<?xml version="1.0" encoding="UTF-8"?>
<!DOCTYPE svg PUBLIC "-//W3C//DTD SVG 1.1//EN" "http://www.w3.org/Graphics/SVG/1.1/DTD/svg11.dtd">
<!-- Creator: CorelDRAW 2021 (64-Bit) -->
<svg xmlns="http://www.w3.org/2000/svg" xml:space="preserve" width="5in" height="5in" version="1.1" style="shape-rendering:geometricPrecision; text-rendering:geometricPrecision; image-rendering:optimizeQuality; fill-rule:evenodd; clip-rule:evenodd"
viewBox="0 0 5000 5000"
 xmlns:xlink="http://www.w3.org/1999/xlink"
 xmlns:xodm="http://www.corel.com/coreldraw/odm/2003">
 <defs>
  <style type="text/css">
   <![CDATA[
    .fil1 {fill:#2B2936}
    .fil8 {fill:#5A8B42}
    .fil0 {fill:#69A34C}
    .fil6 {fill:#91BD70}
    .fil3 {fill:#AEE484}
    .fil4 {fill:#F3F3F3}
    .fil7 {fill:#F6C58D}
    .fil2 {fill:#FAD6A4}
    .fil5 {fill:#FBEBCA}
   ]]>
  </style>
 </defs>
 <g id="Layer_x0020_1">
  <metadata id="CorelCorpID_0Corel-Layer"/>
  <g id="_2394781122336">
   <path class="fil0" d="M2451.77 1980.8l-54.15 -9.21c0.49,-44.46 79.13,-367.66 95.24,-427.8 9.68,-5.11 118.69,-51.41 123.37,-52.57l-164.46 489.58zm-340.72 -584.81l37.79 -1.49 1.36 41.66 -31.2 -0.49 -34.31 0.27 -10.57 -36.04 36.93 -3.91zm459.2 -104.2l55.04 19.91 -12.37 37.59 -59.5 -18.95c-26.06,2.6 -19.85,7.52 -32.97,37.19 -6.76,15.26 -14.48,29.09 -22.87,42.84 5.88,-45.97 27.98,-201.93 46.99,-228.44 10.42,35.61 11.94,59.23 7.21,97.29l18.48 12.57zm-1258.77 -449.35c57.54,-17.97 265.41,-82.93 310.8,-84.17 55.73,104.43 84.21,117.09 206.16,112.61l139.87 497.61c-33.07,-9.29 -80.63,-55.31 -172.36,-65.47 -202.09,-22.37 -363.69,60.97 -457.78,243.61 -11.37,-15.64 -138.85,-461.06 -141.47,-498.53 41.04,-25.83 66.43,-27.5 94.33,-74.86 34.84,-59.15 15.74,-74.05 20.45,-130.8zm1021.97 244.57l-1.09 226.14 -17.02 3.92 11.97 5.59 33.54 9.7 -1.35 38.94 -35.73 -4.74c12.93,47.25 -6.1,124.18 2.51,178.6l54.78 -35.65c-10.3,66.67 -22.47,131.98 -35.43,196.34l-41.31 196.65c-1.89,-52.79 -11.08,-311.66 -1.13,-341.4 -21.73,-7.6 -12.77,-75.95 -12.97,-98.24 -0.15,-17.48 0.13,-35.37 -0.62,-52.77 -1.49,-34.31 -10.5,-39.12 15.09,-49.59l-14.49 -9.97 -1.48 -28.14 10.93 -4.19c-11.49,-23.04 -14.86,-95.54 -16.1,-125.28 -1.02,-24.44 -0.69,-48.17 -1.34,-72.45 -0.72,-26.45 -9.62,-50.57 10.98,-57.9 -23.6,-41.35 -13.04,-230.17 -14.24,-291.11 -1.69,-86.23 -11.1,-204.52 -4.5,-286.84l99.04 17.28 28.98 4.54c8.83,119.57 19.86,147.28 134.62,195.89l-98.9 509.28c-46.81,-65.91 -48.79,-69.05 -104.72,-124.6zm-407.8 -503.8l85.63 -1.47c24.53,44.3 2.39,58.74 56.34,113.79 50.09,51.11 68.48,30.72 117.15,53.14l9.14 514.95c-39.19,-41.74 -86.3,-84.58 -143.09,-103.22 17.37,23.76 55.86,200.22 56.33,232.12 -54.8,5.53 -29.65,-6.89 -48.43,-50.17l-58.69 -203.24 -152.39 -546.59c-28.19,6.98 -58.95,15.33 -86.33,23.56 -34.55,10.37 -50.59,23.1 -80.86,11.97l7.31 -42.88c39.8,-9.69 187.17,-2.47 237.9,-1.95zm688.42 459.44l-42.36 -27.73 103.59 -546.39 62.96 18.7 34.5 10.77c-3.63,60.35 -14.16,81.34 18.58,138.93 27.26,47.95 59.22,49.46 87.15,75.66l-162.05 489.13c-19.44,-20.48 -31.06,-59.39 -48.5,-86.07 -17.26,-26.42 -43.15,-45.72 -53.88,-73zm-529.74 -594.37c28.81,-0.81 127.84,15.36 152.81,29.21l-160.35 1.94 7.54 -31.15zm1050.2 69.02c28.87,8 135.77,70.32 152.19,90.56 -42.74,99.83 -17.43,159.59 60.04,226.13l-261.35 445.04c-6.16,-9.48 -40.97,-185.18 -147.08,-247.72l-7.91 0c-1.74,44.93 -40.32,83.61 -42.38,127.81l1.97 6.7c66.8,66.56 24.56,100.26 23.22,165.08l58.48 32.86c-3.14,21.24 -5.91,23.14 -19.67,38.94 -23.94,-12.87 -40.76,-27.73 -65.96,-32.56 -16.04,31.57 -54.88,82.33 -84.72,95.28l-28.05 -14.63 0.93 -25.25c-25.72,1.2 -8.52,-2.8 -17.81,10.02 24.01,54.63 -9.84,50.4 -21.35,117.81l-21.52 4.22 13.13 4.66c36.65,-1.95 67.49,4.88 107.88,0.31 36.04,-4.07 60.01,-14.51 93.14,-21.99l-272.71 460.43c-25.83,-24.7 -26.13,-37.68 -64.36,-35.64l-14.24 10.84c-7.58,-10.39 -2.99,-6.37 -10.92,-10.03l-12.24 -3.24c15.59,-67.09 46.16,-138.5 66.99,-205.43 10.92,-35.09 25.27,-68.37 35.87,-103.06l25.08 -79.79c14.13,-32.51 3.43,-17.51 21.87,-19.15 -2.46,-37.16 59.22,-208.22 77.38,-250.67l7.02 -42.67 17.74 2.75c-11.69,-24.5 -1.06,-45.61 15.81,-64.99 -11.29,-12.24 -7.11,2.22 -5.87,-18.27 0.11,-2 3.56,-13.57 4.43,-15.53 11.06,-25.06 1.9,-20.3 25.7,-20.19l-10.61 -12.66 43.39 -133.57 13.3 -1.05c-13.85,-26.25 9.26,-67.55 19.22,-97.14 8.78,-26.04 20.13,-83.25 41.51,-96.14 -0.95,-31.66 9.81,-62.85 27.25,-87.81 -10.68,-25.9 66.84,-182.58 69.54,-225.65 -22.83,-10.32 -53.56,-12.06 -57.73,-32.11 -0.75,-3.57 -1.6,-4.6 -2.26,-6.94 35.39,-24.6 44.56,-7.87 80.64,16.4 26.89,18.09 47.35,20.18 65.02,48zm-1166.14 1985.81l149.67 -43.29 65.24 -20.63 -93.03 -183.89c-27.79,27.18 -15.46,76.58 -16.49,112.68l-309.7 87.15c-50.95,-107.9 -87.81,-119.19 -205.76,-117.01l-141.58 -498.45c90.11,45.55 116.57,69.69 225.81,71.38 114.01,1.76 142.26,-25.93 236.71,-59.96 -21.18,-74.09 -68.39,-102.73 -20.05,-196.02 2.73,-29.48 1.38,-43 -8.61,-70.51l-139.06 37.66c-10.65,70.76 -7.26,129.67 -85.72,152.53 -86.11,25.09 -105.28,-42.22 -141.39,-87.26l-56.35 13.05 -10.22 -40.24 51.76 -16 -5.93 -120.28 48.65 2.04 3.42 101.26c32.2,-0.62 104.7,-24.68 137.29,-33.95 25.73,-63.15 -4.88,-134.56 85.67,-159.54 78.63,-21.69 111.57,38.15 143.04,92.04l74.91 -17.4 10.44 39.05 -67.28 21.9 3.35 31.36c56.8,-11.7 69.81,-41.25 142.75,-14.78 38.91,14.11 86.9,52.61 92.02,95.48 26.96,-7.8 11,4.21 13.26,-19.78 0.13,-1.36 -5.57,-24.2 -6.1,-28.21l54.31 -68.19 7.56 232.88c0.85,24.24 94.65,194.83 113.88,230.96 21.19,39.79 39.31,78.39 58.83,118.6 18.99,39.11 47.93,79.26 64.38,112.29 22.23,-3.21 25.16,-46.88 35.14,-65.87 45.94,5.87 85.39,53.81 131.18,66.33 27.21,-31.47 42.41,-93.02 76.87,-115.15 3.91,-34.3 76.89,-140.04 99.35,-177.25 29.43,-48.75 66.3,-141.23 106.88,-176.67 18.08,-10.83 75.37,-112.94 86.69,-136.53l58.99 -105.61c9.56,-17.5 15.13,-17.09 24.68,-34.58 3.69,-6.77 14.7,-31.64 17.08,-35.58 10.2,-16.87 13.63,-13.24 24.53,-34.73l311.38 -531.36c11.41,-23.42 10.81,-15.57 24.14,-35.13 12.43,-18.23 25.05,-56.22 37.47,-74.44l42.37 -69.56c25.24,-33.36 28.1,-39.46 37.5,-81.01 -17.39,-27.03 -96.19,-73 -128.32,-88.66l-228.34 -133.78c-23.17,-11.82 -20.38,-17.15 -43.53,-28.89 -21.7,-11.01 -26.05,-10.84 -45.76,-26.67l-182.69 -107c-62.02,-30.61 -91.44,-76.37 -125.08,-6.62 -12.54,26 -10.11,14.79 -24.04,35.22 -22.11,32.45 -11.59,37.02 -46.78,71.73 -80.52,-10.21 -416.23,-149.87 -485.51,-149.73 -24.29,36.86 -34.19,111.54 -52.67,138.26 -23.44,-0.5 -57.93,-10.15 -84.02,-14.74 -71.08,-12.53 -196.04,-43.06 -264.93,-44.51 -14.7,61.04 -24.8,123.31 -39.5,184.34 -65.74,0 -118.6,6.59 -184.34,6.59 -45.68,0 -155,-9.98 -190.93,6.59 -21.42,47.31 7.03,149.41 -11.3,199.39 -47.41,40.37 -355.24,87.79 -388.86,125.63 -0.02,53.66 46.54,169.24 60.53,225.29 52.68,211.07 138.87,471.25 189.51,679.56 16.48,67.8 41.43,160.94 64.54,225.17l107.81 399.15c5.61,29.09 11.9,28.49 19.91,52.52 12.11,36.31 16.92,78.02 30.29,114.56 15.02,41.06 9.8,82.79 46.22,105.03 28.98,0.06 407.33,-108.62 417.85,-118.19z"/>
   <path class="fil1" d="M3229.3 3495.07l-1119.27 0.07c-18.86,36.11 -6.59,525.16 -6.59,607.87 0,93.49 -11.26,555.93 4.03,608.28 31.55,9.22 1092.83,9.22 1124.38,0 15.29,-52.35 4.03,-514.79 4.03,-608.28 0,-83.09 12.43,-571.33 -6.59,-607.95z"/>
   <path class="fil2" d="M1972.76 1598.47c86.11,-23.28 109.8,59.3 141.51,117.47 22.37,41.06 33.31,60.74 -14.35,86.01 -122.38,64.91 -147.16,89.57 -177.82,33.17 -46.95,-86.38 -113.29,-192.35 50.66,-236.65zm-69.55 2.31c-4.41,6.98 -38.26,47.8 -43.99,54.3 -48.35,93.28 -1.13,121.93 20.05,196.02l211.01 404.22 93.03 183.89 -65.24 20.63c19.16,17.76 6.48,-0.1 13.52,23.83l3.09 114.95 -64.14 -16.45 6.7 18.67 45.77 8.58c0.19,40.37 -4.28,118.87 1.5,155.77 4.19,26.75 9.35,34.93 12.12,66.88 2.46,28.5 9.84,41.86 18.06,67.54 13.48,42.12 25.81,83.66 44.2,120.4 12.08,24.13 47.66,85.7 69.17,91.45l61.35 61.99 0.06 97.94 712.54 2.26 0.95 -66.04c9.09,-76.51 1.28,-986.6 2.02,-1152.2 0.15,-34.43 0.49,-53.3 -9.46,-82.71 -14.56,-43.06 -11.62,-32.08 -33.46,-65.29 -10.93,-16.62 -1.06,-7.66 -19.48,-26.61 -68.09,-70.02 -85.24,-27.79 -89.04,-89.37 -40.58,35.44 -77.46,127.92 -106.88,176.67 -22.46,37.21 -95.44,142.95 -99.35,177.25 -11.8,68.46 -7.01,109.52 -78.16,145.46 -49.63,25.08 -129.28,15.65 -165.03,-30.78 -16.44,-33.03 -45.39,-73.18 -64.38,-112.29 -19.52,-40.2 -37.65,-78.81 -58.83,-118.6 -19.23,-36.13 -113.04,-206.72 -113.88,-230.96 -17.17,-15.19 -58.98,-89.78 -69.03,-116.7 -5.11,-42.86 -53.1,-81.36 -92.02,-95.48 -72.93,-26.47 -85.95,3.08 -142.75,14.78z"/>
   <path class="fil3" d="M1524.11 1020.92c77.76,-27.22 113.28,90.3 41.44,115.08 -77.41,26.7 -122.64,-86.66 -41.44,-115.08zm-212.63 -178.47c-4.71,56.75 14.39,71.65 -20.45,130.8 -27.89,47.36 -53.29,49.03 -94.33,74.86 2.63,37.46 130.1,482.89 141.47,498.53 94.09,-182.63 255.69,-265.98 457.78,-243.61 91.73,10.16 139.29,56.18 172.36,65.47l-139.87 -497.61c-121.94,4.48 -150.43,-8.19 -206.16,-112.61 -45.39,1.24 -253.26,66.2 -310.8,84.17z"/>
   <path class="fil3" d="M1833.66 2054.94c97.55,-37.89 144.12,109.3 54.87,141.44 -94.63,34.08 -154.37,-102.8 -54.87,-141.44zm256.61 200.38l-211.01 -404.22c-94.44,34.03 -122.7,61.73 -236.71,59.96 -109.24,-1.69 -135.7,-25.83 -225.81,-71.38l141.58 498.45c117.95,-2.18 154.81,9.11 205.76,117.01l309.7 -87.15c1.04,-36.09 -11.3,-85.5 16.49,-112.68z"/>
   <path class="fil4" d="M2110.03 3495.15l1119.27 -0.07 -59 -19.15c-0.26,-64.56 8.05,-140.67 -6.84,-202.48 -29.37,-0.62 -38.88,-6.59 -111.93,-6.59 0,-62.72 4.38,-43.63 -8.59,-59.26l-0.95 66.04 -712.54 -2.26 -0.06 -97.94 -61.35 -61.99c19.57,57.28 48.41,50.96 52.67,82.99 16.62,124.96 -103.83,44.57 -138.26,79.01 -15.24,33.07 -6.58,159.39 -6.58,204.1l-65.84 17.6z"/>
   <path class="fil3" d="M3048.8 735.8c4.87,59.93 20.74,59.79 -39.26,96.06 -19.67,50.98 -68.39,150.43 -71.22,199.48 106.11,62.54 140.93,238.24 147.08,247.72l261.35 -445.04c-77.47,-66.54 -102.77,-126.3 -60.04,-226.13 -16.42,-20.24 -123.31,-82.57 -152.19,-90.56 -13.09,8.58 -82.8,192 -85.72,218.48z"/>
   <path class="fil3" d="M2051.92 1155.74l-1.11 4.67c56.8,18.63 103.9,61.48 143.09,103.22l-9.14 -514.95c-48.67,-22.42 -67.06,-2.02 -117.15,-53.14 -53.95,-55.06 -31.81,-69.5 -56.34,-113.79l-85.63 1.47c-9.65,67.81 117.12,460.94 126.27,572.52z"/>
   <path class="fil3" d="M2614.06 1042.66c10.73,27.29 36.62,46.59 53.88,73 17.44,26.67 29.06,65.59 48.5,86.07l162.05 -489.13c-27.94,-26.2 -59.89,-27.71 -87.15,-75.66 -32.74,-57.59 -22.21,-78.58 -18.58,-138.93l-34.5 -10.77 -124.19 555.42z"/>
   <path class="fil3" d="M2333.45 1087.02c55.93,55.55 57.91,58.69 104.72,124.6l98.9 -509.28c-114.76,-48.61 -125.8,-76.31 -134.62,-195.89l-28.98 -4.54 -21.48 -1.05 -18.52 586.16z"/>
   <path class="fil3" d="M1655.52 1640.05c-4.7,54.01 -19.15,87.33 -79.74,80.27 -21.54,-11.56 -33.74,-24.59 -39.82,-48.59l119.56 -31.68zm57.52 -65.17c1.62,-122.13 106.03,-105.48 119.85,-32.52l-119.85 32.52zm146.17 80.2c5.73,-6.5 39.58,-47.31 43.99,-54.3l-3.35 -31.36 67.28 -21.9 -10.44 -39.05 -74.91 17.4c-31.47,-53.9 -64.41,-113.73 -143.04,-92.04 -90.55,24.98 -59.93,96.39 -85.67,159.54 -32.59,9.27 -105.09,33.33 -137.29,33.95l-3.42 -101.26 -48.65 -2.04 5.93 120.28 -51.76 16 10.22 40.24 56.35 -13.05c36.11,45.03 55.28,112.35 141.39,87.26 78.46,-22.86 75.08,-81.77 85.72,-152.53l139.06 -37.66c9.99,27.5 11.34,41.03 8.61,70.51z"/>
   <path class="fil3" d="M2726.67 1562.3c-29.13,91.65 -122.53,303.74 -142.94,374.85 -11.24,39.14 -8.29,15.92 6.9,28.27 38.23,-2.04 38.53,10.93 64.36,35.64l272.71 -460.43c-33.13,7.48 -57.11,17.91 -93.14,21.99 -40.39,4.57 -71.23,-2.26 -107.88,-0.31z"/>
   <path class="fil5" d="M1972.76 1598.47c-163.95,44.31 -97.61,150.28 -50.66,236.65 30.66,56.4 55.44,31.74 177.82,-33.17 47.66,-25.27 36.72,-44.95 14.35,-86.01 -31.71,-58.17 -55.41,-140.74 -141.51,-117.47z"/>
   <path class="fil6" d="M2000.01 1139.12l51.91 16.62c-9.15,-111.57 -135.92,-504.7 -126.27,-572.52 -50.73,-0.52 -198.1,-7.74 -237.9,1.95l-7.31 42.88c30.26,11.13 46.31,-1.6 80.86,-11.97 27.38,-8.22 58.14,-16.58 86.33,-23.56l152.39 546.59z"/>
   <path class="fil3" d="M2616.23 1491.22c-4.69,1.16 -113.69,47.46 -123.37,52.57 -16.1,60.14 -94.74,383.33 -95.24,427.8l54.15 9.21 164.46 -489.58z"/>
   <path class="fil6" d="M2293.16 1062.57l40.29 24.45 18.52 -586.16 21.48 1.05 -99.04 -17.28c-6.6,82.31 2.81,200.61 4.5,286.84 1.2,60.93 -9.36,249.76 14.24,291.11z"/>
   <polygon class="fil6" points="2614.06,1042.66 2738.25,487.24 2675.29,468.54 2571.7,1014.93 "/>
   <path class="fil6" d="M2979.31 717.62c40.22,-2.81 38.02,3.47 69.49,18.17 2.92,-26.47 72.63,-209.9 85.72,-218.48 -17.66,-27.81 -38.13,-29.91 -65.02,-48 -36.08,-24.27 -45.25,-41 -80.64,-16.4 0.65,2.34 1.51,3.37 2.26,6.94 4.17,20.05 34.9,21.79 57.73,32.11 -2.7,43.06 -80.22,199.75 -69.54,225.65z"/>
   <path class="fil3" d="M2862.69 1212.49c8.75,33.8 29.01,42.99 3.83,86.25l-34.48 -14.06 -9.96 41.12 23.83 18.37c-14.94,26.36 -47.9,69.56 -71.68,81.43l-0.93 25.25 28.05 14.63c29.84,-12.95 68.69,-63.71 84.72,-95.28 25.2,4.83 42.02,19.69 65.96,32.56 13.76,-15.8 16.53,-17.7 19.67,-38.94l-58.48 -32.86c1.34,-64.82 43.59,-98.53 -23.22,-165.08 -22.21,14.1 -17.2,19.62 -27.31,46.63z"/>
   <path class="fil0" d="M1833.66 2054.94c-99.5,38.64 -39.76,175.52 54.87,141.44 89.25,-32.15 42.69,-179.33 -54.87,-141.44z"/>
   <path class="fil7" d="M2444.09 2260.03c35.75,46.43 115.39,55.86 165.03,30.78 71.15,-35.95 66.36,-77 78.16,-145.46 -34.46,22.13 -49.66,83.67 -76.87,115.15 -45.79,-12.51 -85.24,-60.46 -131.18,-66.33 -9.98,18.98 -12.91,62.65 -35.14,65.87z"/>
   <path class="fil3" d="M2326.28 1545.17l-23.1 15.94c-9.94,29.74 -0.76,288.61 1.13,341.4l41.31 -196.65c12.96,-64.36 25.13,-129.67 35.43,-196.34l-54.78 35.65z"/>
   <path class="fil7" d="M1968.39 2503.13c27.43,2.54 29.1,22.85 39.52,42.87 18.87,36.27 19.85,18.59 44.57,41.03l18.06 -4.86 64.14 16.45 -3.09 -114.95c-7.05,-23.93 5.64,-6.07 -13.52,-23.83l-149.67 43.29z"/>
   <path class="fil6" d="M2590.62 1965.41c-15.19,-12.35 -18.13,10.87 -6.9,-28.27 20.41,-71.11 113.81,-283.2 142.94,-374.85l-13.13 -4.66 -10.52 -2.08c-18.44,1.63 -7.74,-13.37 -21.87,19.15l-25.08 79.79c-10.6,34.69 -24.95,67.97 -35.87,103.06 -20.83,66.93 -51.4,138.34 -66.99,205.43l12.24 3.24c7.93,3.66 3.33,-0.36 10.92,10.03l14.24 -10.84z"/>
   <path class="fil6" d="M2891.33 998.72c23.35,7.7 29.36,10.09 39.09,32.62l7.91 0c2.83,-49.06 51.55,-148.5 71.22,-199.48 -30.96,-1.83 -38.67,-1.24 -57.47,-26.42 -21.38,12.89 -32.73,70.1 -41.51,96.14 -9.96,29.59 -33.08,70.89 -19.22,97.14z"/>
   <path class="fil0" d="M1524.11 1020.92c-81.19,28.43 -35.96,141.79 41.44,115.08 71.84,-24.78 36.31,-142.31 -41.44,-115.08z"/>
   <path class="fil8" d="M2703.02 1555.56l10.52 2.08 21.52 -4.22c11.52,-67.41 45.37,-63.18 21.35,-117.81 9.29,-12.81 -7.91,-8.82 17.81,-10.02 23.78,-11.87 56.74,-55.06 71.68,-81.43l-23.83 -18.37 -41.67 -20.91c-18.17,42.44 -79.84,213.51 -77.38,250.67z"/>
   <path class="fil8" d="M2299.62 1318.2l15.72 -1.12 17.02 -3.92 1.09 -226.14 -40.29 -24.45c-20.6,7.33 -11.7,31.45 -10.98,57.9 0.65,24.28 0.32,48.01 1.34,72.45 1.24,29.74 4.61,102.24 16.1,125.28z"/>
   <path class="fil8" d="M2050.8 1160.41l1.11 -4.67 -51.91 -16.62 58.69 203.24c18.78,43.28 -6.37,55.7 48.43,50.17 -0.47,-31.9 -38.96,-208.36 -56.33,-232.12z"/>
   <path class="fil8" d="M2952.06 805.44c18.8,25.17 26.51,24.59 57.47,26.42 60,-36.27 44.14,-36.13 39.26,-96.06 -31.47,-14.7 -29.27,-20.98 -69.49,-18.17 -17.44,24.97 -28.2,56.16 -27.25,87.81z"/>
   <path class="fil8" d="M2845.24 1145.99l42.79 13.16c2.06,-44.2 40.64,-82.88 42.38,-127.81 -9.73,-22.53 -15.74,-24.92 -39.09,-32.62l-13.3 1.05 -43.39 133.57 10.61 12.66z"/>
   <path class="fil3" d="M2137.97 1681.48c10.06,26.91 51.86,101.51 69.03,116.7l-7.56 -232.88 -54.31 68.19c0.52,4.01 6.23,26.85 6.1,28.21 -2.26,24 13.7,11.98 -13.26,19.78z"/>
   <path class="fil8" d="M2303.18 1561.11l23.1 -15.94c-8.61,-54.42 10.42,-131.35 -2.51,-178.6l-19.1 -6.06c-25.58,10.46 -16.58,15.28 -15.09,49.59 0.76,17.41 0.47,35.29 0.62,52.77 0.2,22.3 -8.76,90.65 12.97,98.24z"/>
   <path class="fil0" d="M1713.04 1574.88l119.85 -32.52c-13.82,-72.96 -118.22,-89.61 -119.85,32.52z"/>
   <path class="fil0" d="M1535.96 1671.73c6.09,24 18.29,37.02 39.82,48.59 60.58,7.06 75.04,-26.26 79.74,-80.27l-119.56 31.68z"/>
   <path class="fil6" d="M2553.42 1330.35l-1.92 -38.03 18.76 -0.53 -18.48 -12.57c4.74,-38.06 3.21,-61.67 -7.21,-97.29 -19.01,26.51 -41.11,182.47 -46.99,228.44 8.39,-13.75 16.11,-27.57 22.87,-42.84 13.13,-29.67 6.91,-34.58 32.97,-37.19z"/>
   <path class="fil8" d="M2805.17 1264.97l26.86 19.71 34.48 14.06c25.19,-43.26 4.92,-52.45 -3.83,-86.25l-41.7 -12.51c-16.87,19.38 -27.5,40.49 -15.81,64.99z"/>
   <path class="fil6" d="M2820.98 1199.98l41.7 12.51c10.11,-27.02 5.1,-32.54 27.31,-46.63l-1.97 -6.7 -42.79 -13.16c-23.8,-0.11 -14.63,-4.87 -25.7,20.19 -0.87,1.95 -4.32,13.53 -4.43,15.53 -1.24,20.48 -5.42,6.03 5.87,18.27z"/>
   <path class="fil3" d="M2076.79 479.45l160.35 -1.94c-24.97,-13.85 -124,-30.02 -152.81,-29.21l-7.54 31.15z"/>
   <polygon class="fil3" points="2553.42,1330.35 2612.92,1349.3 2625.29,1311.7 2570.25,1291.79 2551.5,1292.32 "/>
   <polygon class="fil6" points="2780.41,1304.89 2822.07,1325.8 2832.04,1284.68 2805.17,1264.97 2787.43,1262.22 "/>
   <polygon class="fil6" points="2304.67,1360.5 2323.77,1366.57 2327.31,1322.67 2315.35,1317.08 2299.62,1318.2 2288.7,1322.39 2290.18,1350.53 "/>
   <polygon class="fil3" points="2323.77,1366.57 2359.5,1371.3 2360.85,1332.37 2327.31,1322.67 "/>
   <polygon class="fil3" points="2119.01,1435.67 2150.21,1436.16 2148.85,1394.5 2111.06,1395.99 "/>
   <polygon class="fil6" points="2119.01,1435.67 2111.06,1395.99 2074.13,1399.91 2084.7,1435.94 "/>
  </g>
 </g>
</svg>
