<svg xmlns="http://www.w3.org/2000/svg" xmlns:xlink="http://www.w3.org/1999/xlink" viewBox="0 0 1659.99 947.21"><defs><style>.cls-1{fill:none;}.cls-2{clip-path:url(#clip-path);}.cls-3{fill:#666660;}.cls-4{clip-path:url(#clip-path-2);}.cls-5{fill:#484848;}.cls-10,.cls-5,.cls-6,.cls-7,.cls-8,.cls-9{fill-rule:evenodd;}.cls-6{fill:#ececec;}.cls-7{fill:#727272;}.cls-8{fill:#939393;}.cls-9{fill:#2d2d2d;}.cls-10{fill:#5f5f5f;}</style><clipPath id="clip-path" transform="translate(-42.74)"><rect class="cls-1" x="47.17" y="386.94" width="297.1" height="569.3" transform="translate(-113.65 44.19) rotate(-10)"/></clipPath><clipPath id="clip-path-2" transform="translate(-42.74)"><rect class="cls-1" x="1264.07" y="523.09" width="569.3" height="297" transform="translate(618.4 2080.17) rotate(-80)"/></clipPath></defs><g id="Layer_2" data-name="Layer 2"><g id="Layer_1-2" data-name="Layer 1"><g class="cls-2"><path class="cls-3" d="M388.79,923.14A246.48,246.48,0,0,1,327,914.23a.09.09,0,0,1,.08-.11,1.63,1.63,0,0,0,.54-2.74,72.84,72.84,0,0,0-40.14-77.91,1.68,1.68,0,0,0-2.29,1.42c-3.64,30.6,13.36,61.41,38.74,78.06,0,.1-.06.21,0,.41-28.22-8-55.42-20.59-80.5-36.17,21.21-22.53-3.37-58.81-19.84-76.82a1.74,1.74,0,0,0-3,.93c-3.2,24.43-4.63,48,10.57,68-10-6.76-19.74-14.09-29-21.69-5.1-4.18-10-8.49-14.86-12.92,21.74-17.74,9.51-50.82-5.41-69.21a1.68,1.68,0,0,0-2.85.5c-7,15.85-14.33,36.24-7.82,53A295.53,295.53,0,0,1,150,794.55a1.46,1.46,0,0,0-.19-1.09c-.85-1.37-1.69-2.64-2.62-3.9,21.05-16.51,19.46-42.22,15.24-66.15a1.66,1.66,0,0,0-2.7-.95c-16.56,14.91-26.09,35.17-21.76,55.73a268.16,268.16,0,0,1-26.58-48.83c15.51-13.4,27.4-35.8,28.51-56a1.75,1.75,0,0,0-2.43-1.7c-17.94,6.51-30.25,21.37-32.95,38.91A222.16,222.16,0,0,1,97.48,682c-.4-2.26-.72-4.64-1.12-6.91,19.52-15.42,43.07-35.62,43.2-62.55a1.64,1.64,0,0,0-1.94-1.79c-18.85,4.85-38.34,21-43.93,40.54-.76-10.63-.91-21.26-.66-32a1.49,1.49,0,0,0,1.79-.21c17.88-14.93,40.7-26.57,43.47-52.35a1.65,1.65,0,0,0-1.94-1.79c-16.44,4.12-33.55,13-41.32,27.7a1.22,1.22,0,0,0-.2-.57c1.13-10.86,2.79-21.62,4.87-32.24a1.87,1.87,0,0,0,1.49-1.38c10.49-1.54,19.25-7.15,26.62-14.85a73.4,73.4,0,0,0,10-14c1.85-3.37,4.93-7.77,4.23-11.71a1.74,1.74,0,0,0-2-1.38c-14.78,3.11-26.45,13.5-36.25,24.77a295.16,295.16,0,0,1,15.44-46.08c12.92-3.9,29.56-10.29,33.78-24.34a1.71,1.71,0,0,0-1.41-2.29c-8.69-.9-16.6,2.63-23.19,7.85a210.64,210.64,0,0,1,13.23-21.12c3.74,2.79,9.85,1.72,14,.89,7.36-1.4,15.57-4.37,21.3-9.34a1.65,1.65,0,0,0-.16-2.61c-7.44-6.51-16.77-4.15-25.41-1.31a156.6,156.6,0,0,1,14.1-14.47,1.37,1.37,0,0,0,.47-.79c9.39.27,19.79-4.1,24.88-12.11.46-.79.3-2.29-.75-2.51-7.09-1.59-13.42-.07-19.37,3,6.14-10.63,12.33-28-1.75-28.32-17.94-.39-9.14,29.94-6.24,38.87a163.5,163.5,0,0,0-15.1,15.76c2.15-13.17-1.74-28.33-11.74-37.22a1.71,1.71,0,0,0-2.36.41c-8.64,13.81,1.08,33.22,6.39,46.6A209.58,209.58,0,0,0,120.86,484c-.34.37-.59.72-.93,1.08-.67-17.65-7.94-38.1-24.71-45.7a1.66,1.66,0,0,0-2.16,1C88,460,105.74,479.45,116,494.69a298.26,298.26,0,0,0-14.13,41.39c-2.29-18.79-14.62-38-29.56-47.9a1.66,1.66,0,0,0-2.51.75c-3.9,13.58-.53,25.78,6.91,37.47,6.33,10,15.65,18.46,20.4,29.3a1.69,1.69,0,0,0-.15,2.06c-1.47,7.77-2.84,15.53-3.82,23.21-.17,1.35-.32,2.8-.57,4.27C86.11,572,72,561,60.61,552.9c-.93-.64-2.65,0-2.64,1.18-.57,23.25,12.84,48.61,32.12,61.76-.43,10.23-.34,20.57.23,30.73C81.12,628.9,62.38,616,45.45,606.86c-1-.54-2.57-.16-2.64,1.17C41.28,638,65.34,665,93.09,673.19l0,.1a1.62,1.62,0,0,0,.32,2.38,261.6,261.6,0,0,0,10.63,43c0,.2,0,.51,0,.7-9.73-20.62-31.75-33.19-52.66-40.67a1.74,1.74,0,0,0-2.29,1.42c-2.27,29.75,29.81,56.18,58.58,51.81a2.06,2.06,0,0,0,.86-.35c.09,0,.18-.13.26-.25a230.41,230.41,0,0,0,10.83,22.87c3.48,6.49,7.36,12.92,11.3,19.13-12.7-9.24-28.34-15-43.54-17.1a1.75,1.75,0,0,0-1.7,2.43c10.23,24.6,33.4,46.61,61.89,39.45a1.12,1.12,0,0,0,.74-.43c7,8.81,14.53,17.34,22.35,25.4C153,814,132.5,819,112.9,825.87a1.72,1.72,0,0,0-.55,2.64c20.39,19.45,47.63,19,72,7.82a376.42,376.42,0,0,0,39.42,31.74c-18.27-3.38-39.36,10.59-55.42,16.27a1.64,1.64,0,0,0-.2,2.88c23.05,13.3,53.68,12.47,72.41-8h0a333.84,333.84,0,0,0,61.84,30.53c-9.73.7-19.8,4.61-28.16,7.91-11.68,4.59-27.25,11.3-33.88,22.62a1.7,1.7,0,0,0,.74,2.51c14.57,6.57,32.83,4.78,47.81,1,14.18-3.62,30.49-11.37,35.36-26.34a1.42,1.42,0,0,0,.09-.63,249.65,249.65,0,0,0,64.44,9.56C390.61,926.58,390.92,923.17,388.79,923.14Z" transform="translate(-42.74)"/></g><g class="cls-4"><path class="cls-3" d="M1355.61,923.13a246.93,246.93,0,0,0,61.79-8.9.11.11,0,0,0-.08-.12,1.61,1.61,0,0,1-.54-2.73,72.83,72.83,0,0,1,40.14-77.92,1.68,1.68,0,0,1,2.29,1.42c3.64,30.6-13.37,61.41-38.74,78.06.08.12.06.21.12.43,28.23-8,55.42-20.59,80.51-36.17-21.21-22.53,3.36-58.81,19.84-76.82a1.73,1.73,0,0,1,3,.93c3.21,24.43,4.63,48-10.57,68,10-6.76,19.75-14.09,29-21.7,5.1-4.17,10-8.48,14.87-12.91-21.75-17.75-9.52-50.83,5.4-69.21a1.69,1.69,0,0,1,2.86.5c7,15.85,14.32,36.24,7.82,53a301.06,301.06,0,0,0,21.16-24.39,1.38,1.38,0,0,1,.19-1.09c.85-1.37,1.68-2.64,2.62-3.9-21.06-16.51-19.47-42.22-15.25-66.15a1.66,1.66,0,0,1,2.71-.95c16.56,14.9,26.09,35.17,21.75,55.73a267.55,267.55,0,0,0,26.58-48.83c-15.51-13.4-27.4-35.8-28.51-56a1.75,1.75,0,0,1,2.44-1.7c17.94,6.51,30.24,21.37,32.94,38.91A220.56,220.56,0,0,0,1647,682c.39-2.26.71-4.65,1.11-6.91-19.52-15.42-43.07-35.62-43.19-62.55a1.63,1.63,0,0,1,1.94-1.79c18.84,4.84,38.34,21,43.93,40.54.75-10.63.9-21.26.66-32a1.49,1.49,0,0,1-1.79-.21c-17.88-14.93-40.71-26.57-43.47-52.35a1.64,1.64,0,0,1,1.94-1.79c16.43,4.12,33.54,13,41.31,27.7a1.24,1.24,0,0,1,.21-.57c-1.13-10.87-2.79-21.62-4.88-32.24a1.84,1.84,0,0,1-1.48-1.38c-10.49-1.54-19.25-7.15-26.63-14.85a73.72,73.72,0,0,1-10-14c-1.84-3.37-4.92-7.78-4.23-11.71a1.75,1.75,0,0,1,2-1.38c14.79,3.11,26.46,13.5,36.25,24.77a295.12,295.12,0,0,0-15.43-46.08c-12.92-3.91-29.56-10.29-33.79-24.34a1.71,1.71,0,0,1,1.42-2.29c8.69-.9,16.6,2.62,23.19,7.85a209.51,209.51,0,0,0-13.23-21.12c-3.75,2.79-9.85,1.72-14,.89-7.37-1.4-15.58-4.37-21.3-9.34a1.67,1.67,0,0,1,.15-2.62c7.45-6.5,16.78-4.15,25.42-1.3a159.22,159.22,0,0,0-14.1-14.47,1.27,1.27,0,0,1-.47-.8c-9.39.28-19.79-4.09-24.88-12.1-.47-.79-.31-2.29.75-2.51,7.08-1.59,13.41-.07,19.37,3-6.15-10.63-12.33-28,1.74-28.32,17.94-.4,9.14,29.94,6.25,38.87a163.39,163.39,0,0,1,15.09,15.76c-2.14-13.17,1.75-28.33,11.74-37.23a1.74,1.74,0,0,1,2.37.42c8.63,13.81-1.09,33.22-6.39,46.6A210.4,210.4,0,0,1,1623.64,484c.34.37.58.72.92,1.08.68-17.65,7.94-38.1,24.72-45.7a1.66,1.66,0,0,1,2.16,1c5.06,19.68-12.68,39.09-23,54.33a297.27,297.27,0,0,1,14.13,41.38c2.3-18.78,14.63-38,29.57-47.89a1.66,1.66,0,0,1,2.51.75c3.9,13.58.53,25.78-6.92,37.47-6.32,10-15.64,18.46-20.39,29.3a1.68,1.68,0,0,1,.14,2.06q2.35,11.68,3.83,23.21c.17,1.35.32,2.8.57,4.27,6.5-13.28,20.63-24.29,32-32.34.92-.65,2.64,0,2.63,1.18.57,23.25-12.83,48.61-32.11,61.76.43,10.23.33,20.57-.24,30.73,9.21-17.67,27.94-30.62,44.88-39.71,1-.54,2.56-.16,2.63,1.17,1.53,29.92-22.53,57-50.27,65.16l0,.1a1.64,1.64,0,0,1-.32,2.38,261.6,261.6,0,0,1-10.63,43c0,.19,0,.51,0,.7,9.73-20.62,31.74-33.19,52.66-40.67a1.74,1.74,0,0,1,2.29,1.42c2.27,29.75-29.81,56.18-58.59,51.81a2.07,2.07,0,0,1-.85-.35c-.1,0-.18-.13-.26-.25a232.76,232.76,0,0,1-10.84,22.87c-3.48,6.49-7.35,12.92-11.29,19.13,12.7-9.24,28.34-15,43.53-17.1a1.75,1.75,0,0,1,1.7,2.43c-10.22,24.6-33.4,46.61-61.89,39.45a1.12,1.12,0,0,1-.73-.43c-7,8.81-14.53,17.34-22.35,25.4,17.74-9.06,38.19-4.13,57.79,2.78a1.7,1.7,0,0,1,.55,2.63c-20.39,19.46-47.62,19-72,7.83a377.85,377.85,0,0,1-39.41,31.74c18.27-3.38,39.36,10.59,55.42,16.27a1.65,1.65,0,0,1,.2,2.88c-23.06,13.29-53.68,12.46-72.41-8h0a333.84,333.84,0,0,1-61.84,30.53c9.72.7,19.8,4.6,28.15,7.91,11.68,4.59,27.25,11.3,34,22.64a1.72,1.72,0,0,1-.75,2.51c-14.56,6.57-32.83,4.77-47.8,1-14.19-3.61-30.49-11.36-35.37-26.34a1.53,1.53,0,0,1-.09-.62,249.57,249.57,0,0,1-64.44,9.55c-2,.15-2.37-3.26-.23-3.29Z" transform="translate(-42.74)"/></g><g id="Layer_1-3" data-name="Layer_1"><g id="_2732940088816" data-name=" 2732940088816"><path class="cls-5" d="M52.65,144.71c3-7.55,8.52-.89,5.7,4.58C56.65,153.23,51.71,150.34,52.65,144.71Zm57.09-67.2C100.29,79.17,87.92,80,78.15,81,65,82.29,61.5,84.18,48.62,78.76c-.43,1.24.65,25.71.78,29.23.18,4.76.58,9.64.76,14.4.1,2.52-.09,4.74.17,7.29.49,4.67-.41,3.21-1.16,6.34,3.95,5.67.21,10.39,3.15,15.09,1.47,2.36,3.34,3.18,6.08,3.21,4.52,0,3.73-2.59,5.11-3.89l5.53,6L59.5,177.93c-7.64,18.73,8.59,28.85,20.3,40.56,8.38,8.38,23.65,25.55,32.16,31.95-15-24.8,27.78-71.63,49.58-80.91l-50.6-51.06,4.11-2.31L96,96.94l-5,1.54,19.86,20.19-4.57,2.58L85.74,100.79l-22.9,15.87.44.59V85.11l59.15-6.6-3.49,28.2,5.37,5.87-.11.26-3.32,1.06-.14.33,50.91,50.56,3.91-1.22L125,112.66l4.83-1.08,5-37-25.17,2.94Z" transform="translate(-42.74)"/><path class="cls-6" d="M114.38,247.7c31.05,10.45,90.45-48.78,80.16-80.15-14-10.91-46.53,13.52-56.6,23.58S103.35,233.83,114.38,247.7Z" transform="translate(-42.74)"/><path class="cls-5" d="M88.22,74.57c1.65,3,.48,3.07,6.17,3.08,2.18,0,6.28,0,7.59-1.67l.1-2.7,0-73.28H88.22V74.57Z" transform="translate(-42.74)"/><path class="cls-7" d="M129.88,111.59,125,112.67l50.52,50.9c9-2.19,13.38-2.66,21.68,1.56-6.6-8.53-22.09-22.28-30.4-30.59-10.72-10.72-20.66-26.32-37-22.95Z" transform="translate(-42.74)"/><path class="cls-7" d="M96,96.94l19.08,19.22-4.11,2.31,50.6,51.06,10.11-4.74-50.91-50.56.14-.33,3.32-1.06.11-.26-5.37-5.87c-9.6-9.53-8.68-11.23-23-9.77Z" transform="translate(-42.74)"/><path class="cls-8" d="M114.38,247.7c-11-13.87,13.55-46.56,23.56-56.57s42.6-34.49,56.6-23.58c11.4,5.11,3.9,25.75-.16,33.75-9.36,18.45-28.11,36.91-46.47,46.34-7.93,4.07-28.55,11.38-33.53.06Zm61.18-84.13-3.91,1.22-10.11,4.74c-21.8,9.29-64.6,56.11-49.58,80.91,25,32,117.4-59.18,85.28-85.31C188.94,160.91,184.57,161.38,175.56,163.57Z" transform="translate(-42.74)"/><path class="cls-5" d="M114.38,247.7c5,11.32,25.6,4,33.53-.06,18.36-9.43,37.11-27.89,46.47-46.34,4.06-8,11.56-28.64.16-33.75,10.29,31.37-49.11,90.6-80.16,80.15Z" transform="translate(-42.74)"/><path class="cls-9" d="M59.5,177.93,69,156.4l-5.53-6c-1.38,1.3-.59,3.93-5.11,3.89-2.74,0-4.61-.85-6.08-3.21-2.94-4.7.81-9.43-3.15-15.09-4.29,3.42-7.36,19.42-5.26,25,1.15,3.09,12.61,15,15.59,16.88Z" transform="translate(-42.74)"/><path class="cls-10" d="M48.62,78.76C61.5,84.18,65,82.29,78.15,81c9.77-1,22.15-1.81,31.59-3.47L102,76c-1.3,1.72-5.4,1.67-7.59,1.67-5.69,0-4.52-.1-6.17-3.08L48.63,78.76Z" transform="translate(-42.74)"/><polygon class="cls-10" points="43 100.79 63.47 121.25 68.04 118.67 48.17 98.48 43 100.79"/><path class="cls-7" d="M102.08,73.28,102,76l7.76,1.53,25.17-2.94c-5.43-1.8-9.73-3.75-15.33-3.1-5.16.59-12.53,1.7-17.5,1.81Z" transform="translate(-42.74)"/><path class="cls-7" d="M52.65,144.71c-.94,5.63,4,8.52,5.7,4.58C57.6,148.44,57.88,141.3,52.65,144.71Z" transform="translate(-42.74)"/><path class="cls-8" d="M52.65,144.71c5.23-3.41,5,3.73,5.7,4.58C61.17,143.82,55.63,137.16,52.65,144.71Z" transform="translate(-42.74)"/></g></g><g id="Layer_1-4" data-name="Layer_1"><g id="_2732940088816-2" data-name=" 2732940088816"><path class="cls-5" d="M1687.62,153.7c-2.82-5.46,2.72-12.13,5.7-4.57C1694.26,154.76,1689.32,157.64,1687.62,153.7Zm-51.39-71.77-25.18-3,5,37,4.84,1.08L1570.4,168l3.91,1.23,50.91-50.56-.13-.34-3.33-1-.1-.26,5.36-5.88-3.48-28.2,59.15,6.6v32.14l.43-.58-22.89-15.87-20.48,20.46-4.56-2.58,19.86-20.2-5.06-1.54-19.08,19.23,4.11,2.3-50.59,51.06c21.8,9.29,64.59,56.11,49.57,80.91,8.51-6.4,23.79-23.57,32.17-31.94,11.7-11.71,27.94-21.83,20.3-40.57l-9.55-21.53,5.54-6c1.37,1.3.58,3.92,5.11,3.88,2.74,0,4.61-.85,6.08-3.2,2.94-4.7-.81-9.43,3.15-15.1-.76-3.13-1.65-1.67-1.17-6.33.26-2.55.08-4.77.17-7.29.18-4.76.59-9.64.77-14.41.13-3.52,1.2-28,.77-29.23-12.87,5.43-16.37,3.54-29.52,2.22-9.77-1-22.15-1.8-31.59-3.46Z" transform="translate(-42.74)"/><path class="cls-6" d="M1608,195.55c-10.07-10.06-42.6-34.5-56.6-23.59-10.29,31.38,49.11,90.6,80.16,80.16C1642.61,238.25,1618,205.55,1608,195.55Z" transform="translate(-42.74)"/><path class="cls-5" d="M1657.75,79V4.41h-13.89l0,73.28.1,2.7c1.3,1.72,5.4,1.67,7.58,1.67,5.69,0,4.53-.1,6.17-3.08Z" transform="translate(-42.74)"/><path class="cls-7" d="M1616.09,116c-16.31-3.36-26.24,12.24-37,22.95-8.31,8.32-23.81,22.06-30.41,30.59,8.31-4.21,12.67-3.75,21.68-1.56l50.53-50.9-4.84-1.08Z" transform="translate(-42.74)"/><path class="cls-7" d="M1650,101.35c-14.3-1.45-13.38.24-23,9.77l-5.36,5.88.1.26,3.33,1,.13.34-50.91,50.56,10.12,4.73L1635,122.88l-4.11-2.3L1650,101.35Z" transform="translate(-42.74)"/><path class="cls-8" d="M1631.59,252.12c-5,11.32-25.6,4-33.53-.07-18.36-9.42-37.11-27.88-46.47-46.33-4.06-8-11.56-28.65-.16-33.76,14-10.91,46.53,13.53,56.6,23.59s34.58,42.7,23.56,56.57Zm-82.87-82.58c-32.11,26.14,60.26,117.35,85.28,85.31,15-24.8-27.77-71.62-49.57-80.91l-10.12-4.73L1570.4,168C1561.39,165.79,1557,165.33,1548.72,169.54Z" transform="translate(-42.74)"/><path class="cls-5" d="M1631.59,252.12c-31,10.44-90.45-48.78-80.16-80.16-11.4,5.11-3.9,25.75.16,33.75,9.36,18.45,28.11,36.91,46.47,46.34,7.93,4.07,28.55,11.39,33.53.07Z" transform="translate(-42.74)"/><path class="cls-9" d="M1686.47,182.34c3-1.85,14.43-13.78,15.59-16.88,2.09-5.61-1-21.6-5.26-25-4,5.67-.21,10.4-3.15,15.1a6.44,6.44,0,0,1-6.08,3.2c-4.53,0-3.74-2.58-5.11-3.88l-5.54,6,9.55,21.53Z" transform="translate(-42.74)"/><path class="cls-10" d="M1697.34,83.17,1657.74,79c-1.64,3-.48,3.08-6.17,3.08-2.18,0-6.28,0-7.58-1.67l-7.76,1.54c9.44,1.66,21.82,2.49,31.59,3.46,13.15,1.32,16.65,3.21,29.52-2.22Z" transform="translate(-42.74)"/><polygon class="cls-10" points="1612.31 102.89 1592.44 123.09 1597.01 125.67 1617.48 105.21 1612.31 102.89"/><path class="cls-7" d="M1643.89,77.69c-5-.11-12.35-1.21-17.5-1.81-5.6-.64-9.9,1.3-15.34,3.1l25.18,3,7.76-1.54-.1-2.7Z" transform="translate(-42.74)"/><path class="cls-7" d="M1687.62,153.7c1.7,3.94,6.64,1.06,5.7-4.57C1688.09,145.72,1688.36,152.85,1687.62,153.7Z" transform="translate(-42.74)"/><path class="cls-8" d="M1687.62,153.7c.74-.85.47-8,5.7-4.57C1690.34,141.57,1684.8,148.24,1687.62,153.7Z" transform="translate(-42.74)"/></g></g></g></g></svg>